999
dxfrw 0.5.10
0
SECTION
2
HEADER
9
$ACADVER
1
AC1014
9
$HANDSEED
5
20000
9
$DWGCODEPAGE
3
ANSI_1252
9
$INSBASE
10
0
20
0
30
0
9
$EXTMIN
10
-107
20
-107
30
0
9
$EXTMAX
10
227
20
227
30
0
9
$LIMMIN
10
0
20
0
9
$LIMMAX
10
420
20
297
9
$ORTHOMODE
70
0
9
$LTSCALE
40
1
9
$TEXTSTYLE
7
STANDARD
9
$DIMASZ
40
2.5
9
$DIMSCALE
40
1
9
$DIMEXO
40
0.625
9
$DIMEXE
40
1.25
9
$DIMTXT
40
2.5
9
$DIMTSZ
40
0
9
$DIMAUNIT
70
0
9
$DIMADEC
70
0
9
$DIMUNIT
70
2
9
$DIMSTYLE
2
Standard
9
$DIMGAP
40
0.625
9
$DIMTIH
70
0
9
$LUNITS
70
2
9
$LUPREC
70
4
9
$AUNITS
70
0
9
$AUPREC
70
2
9
$SPLINESEGS
70
8
9
$SNAPSTYLE
70
0
9
$PINSBASE
10
0
20
0
30
0
9
$PLIMMIN
10
0
20
0
9
$PLIMMAX
10
210
20
297
9
$PSVPSCALE
40
1
0
ENDSEC
0
SECTION
2
CLASSES
0
ENDSEC
0
SECTION
2
TABLES
0
TABLE
2
VPORT
5
8
100
AcDbSymbolTable
70
1
0
VPORT
5
31
330
2
100
AcDbSymbolTableRecord
100
AcDbViewportTableRecord
2
*ACTIVE
70
0
10
0
20
0
11
1
21
1
12
559.997558594
22
258.636474609
13
0
23
0
14
10
24
10
15
10
25
10
16
0
26
0
36
1
17
0
27
0
37
0
40
708.0078125
41
1.76724137931
42
50
43
0
44
0
50
0
51
0
71
0
72
100
73
1
74
3
75
0
76
1
77
0
78
0
0
ENDTAB
0
TABLE
2
LTYPE
5
5
100
AcDbSymbolTable
70
4
0
LTYPE
5
14
100
AcDbSymbolTableRecord
100
AcDbLinetypeTableRecord
2
ByBlock
70
0
3

72
65
73
0
40
0
0
LTYPE
5
15
100
AcDbSymbolTableRecord
100
AcDbLinetypeTableRecord
2
ByLayer
70
0
3

72
65
73
0
40
0
0
LTYPE
5
16
100
AcDbSymbolTableRecord
100
AcDbLinetypeTableRecord
2
Continuous
70
0
3
Solid line
72
65
73
0
40
0
0
LTYPE
5
32
330
5
100
AcDbSymbolTableRecord
100
AcDbLinetypeTableRecord
2
DOT
70
0
3
Dot . . . . . . . . . . . . . . . . . . . . . .
72
65
73
2
40
6.35
49
0
74
0
49
-6.35
74
0
0
LTYPE
5
33
330
5
100
AcDbSymbolTableRecord
100
AcDbLinetypeTableRecord
2
DOT2
70
0
3
Dot (.5x) .....................................
72
65
73
2
40
3.175
49
0
74
0
49
-3.175
74
0
0
LTYPE
5
34
330
5
100
AcDbSymbolTableRecord
100
AcDbLinetypeTableRecord
2
DOTX2
70
0
3
Dot (2x) .  .  .  .  .  .  .  .  .  .  .  .  .
72
65
73
2
40
12.7
49
0
74
0
49
-12.7
74
0
0
LTYPE
5
35
330
5
100
AcDbSymbolTableRecord
100
AcDbLinetypeTableRecord
2
DASHED
70
0
3
Dot . . . . . . . . . . . . . . . . . . . . . .
72
65
73
2
40
19.05
49
12.7
74
0
49
-6.35
74
0
0
LTYPE
5
36
330
5
100
AcDbSymbolTableRecord
100
AcDbLinetypeTableRecord
2
DASHED2
70
0
3
Dashed (.5x) _ _ _ _ _ _ _ _ _ _ _ _ _ _ _ _ _
72
65
73
2
40
9.525
49
6.35
74
0
49
-3.175
74
0
0
LTYPE
5
37
330
5
100
AcDbSymbolTableRecord
100
AcDbLinetypeTableRecord
2
DASHEDX2
70
0
3
Dashed (2x) ____  ____  ____  ____  ____  ___
72
65
73
2
40
38.1
49
25.4
74
0
49
-12.7
74
0
0
LTYPE
5
38
330
5
100
AcDbSymbolTableRecord
100
AcDbLinetypeTableRecord
2
DASHDOT
70
0
3
Dash dot __ . __ . __ . __ . __ . __ . __ . __
72
65
73
4
40
25.4
49
12.7
74
0
49
-6.35
74
0
49
0
74
0
49
-6.35
74
0
0
LTYPE
5
39
330
5
100
AcDbSymbolTableRecord
100
AcDbLinetypeTableRecord
2
DASHDOT2
70
0
3
Dash dot (.5x) _._._._._._._._._._._._._._._.
72
65
73
4
40
12.7
49
6.35
74
0
49
-3.175
74
0
49
0
74
0
49
-3.175
74
0
0
LTYPE
5
3A
330
5
100
AcDbSymbolTableRecord
100
AcDbLinetypeTableRecord
2
DASHDOTX2
70
0
3
Dash dot (2x) ____  .  ____  .  ____  .  ___
72
65
73
4
40
50.8
49
25.4
74
0
49
-12.7
74
0
49
0
74
0
49
-12.7
74
0
0
LTYPE
5
3B
330
5
100
AcDbSymbolTableRecord
100
AcDbLinetypeTableRecord
2
DIVIDE
70
0
3
Divide ____ . . ____ . . ____ . . ____ . . ____
72
65
73
6
40
31.75
49
12.7
74
0
49
-6.35
74
0
49
0
74
0
49
-6.35
74
0
49
0
74
0
49
-6.35
74
0
0
LTYPE
5
3C
330
5
100
AcDbSymbolTableRecord
100
AcDbLinetypeTableRecord
2
DIVIDE2
70
0
3
Divide (.5x) __..__..__..__..__..__..__..__.._
72
65
73
6
40
15.875
49
6.35
74
0
49
-3.175
74
0
49
0
74
0
49
-3.175
74
0
49
0
74
0
49
-3.175
74
0
0
LTYPE
5
3D
330
5
100
AcDbSymbolTableRecord
100
AcDbLinetypeTableRecord
2
DIVIDEX2
70
0
3
Divide (2x) ________  .  .  ________  .  .  _
72
65
73
6
40
63.5
49
25.4
74
0
49
-12.7
74
0
49
0
74
0
49
-12.7
74
0
49
0
74
0
49
-12.7
74
0
0
LTYPE
5
3E
330
5
100
AcDbSymbolTableRecord
100
AcDbLinetypeTableRecord
2
BORDER
70
0
3
Border __ __ . __ __ . __ __ . __ __ . __ __ .
72
65
73
6
40
44.45
49
12.7
74
0
49
-6.35
74
0
49
12.7
74
0
49
-6.35
74
0
49
0
74
0
49
-6.35
74
0
0
LTYPE
5
3F
330
5
100
AcDbSymbolTableRecord
100
AcDbLinetypeTableRecord
2
BORDER2
70
0
3
Border (.5x) __.__.__.__.__.__.__.__.__.__.__.
72
65
73
6
40
22.225
49
6.35
74
0
49
-3.175
74
0
49
6.35
74
0
49
-3.175
74
0
49
0
74
0
49
-3.175
74
0
0
LTYPE
5
40
330
5
100
AcDbSymbolTableRecord
100
AcDbLinetypeTableRecord
2
BORDERX2
70
0
3
Border (2x) ____  ____  .  ____  ____  .  ___
72
65
73
6
40
88.9
49
25.4
74
0
49
-12.7
74
0
49
25.4
74
0
49
-12.7
74
0
49
0
74
0
49
-12.7
74
0
0
LTYPE
5
41
330
5
100
AcDbSymbolTableRecord
100
AcDbLinetypeTableRecord
2
CENTER
70
0
3
Center ____ _ ____ _ ____ _ ____ _ ____ _ ____
72
65
73
4
40
50.8
49
31.75
74
0
49
-6.35
74
0
49
6.35
74
0
49
-6.35
74
0
0
LTYPE
5
42
330
5
100
AcDbSymbolTableRecord
100
AcDbLinetypeTableRecord
2
CENTER2
70
0
3
Center (.5x) ___ _ ___ _ ___ _ ___ _ ___ _ ___
72
65
73
4
40
28.575
49
19.05
74
0
49
-3.175
74
0
49
3.175
74
0
49
-3.175
74
0
0
LTYPE
5
43
330
5
100
AcDbSymbolTableRecord
100
AcDbLinetypeTableRecord
2
CENTERX2
70
0
3
Center (2x) ________  __  ________  __  _____
72
65
73
4
40
101.6
49
63.5
74
0
49
-12.7
74
0
49
12.7
74
0
49
-12.7
74
0
0
ENDTAB
0
TABLE
2
LAYER
5
2
100
AcDbSymbolTable
70
1
0
LAYER
5
10
330
2
100
AcDbSymbolTableRecord
100
AcDbLayerTableRecord
2
0
70
0
62
7
6
CONTINUOUS
370
0
390
F
0
ENDTAB
0
TABLE
2
STYLE
5
3
100
AcDbSymbolTable
70
3
0
STYLE
5
44
330
2
100
AcDbSymbolTableRecord
100
AcDbTextStyleTableRecord
2
Standard
70
0
40
0
41
1
50
0
71
0
42
1
3
txt
4

0
ENDTAB
0
TABLE
2
VIEW
5
6
100
AcDbSymbolTable
70
0
0
ENDTAB
0
TABLE
2
UCS
5
7
100
AcDbSymbolTable
70
0
0
ENDTAB
0
TABLE
2
APPID
5
9
100
AcDbSymbolTable
70
1
0
APPID
5
12
100
AcDbSymbolTableRecord
100
AcDbRegAppTableRecord
2
ACAD
70
0
0
ENDTAB
0
TABLE
2
DIMSTYLE
5
A
100
AcDbSymbolTable
70
1
0
DIMSTYLE
105
45
330
A
100
AcDbSymbolTableRecord
100
AcDbDimStyleTableRecord
2
Standard
70
0
40
1
41
2.5
42
0.625
43
0.38
44
1.25
45
0
46
0
47
0
48
0
140
2.5
141
0.09
142
0
143
25.4
144
1
145
0
146
1
147
0.625
71
0
72
0
73
0
74
1
75
0
76
0
77
0
78
0
170
0
171
2
172
0
173
0
174
0
175
0
176
0
177
0
178
0
270
2
271
4
272
4
273
2
274
2
275
0
280
0
281
0
282
0
283
1
284
0
285
0
286
0
287
3
288
0
340
Standard
0
ENDTAB
0
TABLE
2
BLOCK_RECORD
5
1
100
AcDbSymbolTable
70
2
0
BLOCK_RECORD
5
1F
100
AcDbSymbolTableRecord
100
AcDbBlockTableRecord
2
*Model_Space
0
BLOCK_RECORD
5
1E
100
AcDbSymbolTableRecord
100
AcDbBlockTableRecord
2
*Paper_Space
0
ENDTAB
0
ENDSEC
0
SECTION
2
BLOCKS
0
BLOCK
5
20
100
AcDbEntity
8
0
100
AcDbBlockBegin
2
*Model_Space
70
0
10
0
20
0
30
0
3
*Model_Space
1

0
ENDBLK
5
21
100
AcDbEntity
8
0
100
AcDbBlockEnd
0
BLOCK
5
1C
100
AcDbEntity
8
0
100
AcDbBlockBegin
2
*Paper_Space
70
0
10
0
20
0
30
0
3
*Paper_Space
1

0
ENDBLK
5
1D
100
AcDbEntity
8
0
100
AcDbBlockEnd
0
ENDSEC
0
SECTION
2
ENTITIES
0
LINE
5
46
100
AcDbEntity
8
0
6
ByLayer
62
256
100
AcDbLine
10
13
20
20.5
11
13
21
219.5
0
LINE
5
47
100
AcDbEntity
8
0
6
ByLayer
62
256
100
AcDbLine
10
13
20
219.5
11
13.005
21
219.657
0
LINE
5
48
100
AcDbEntity
8
0
6
ByLayer
62
256
100
AcDbLine
10
13.005
20
219.657
11
13.02
21
219.813
0
LINE
5
49
100
AcDbEntity
8
0
6
ByLayer
62
256
100
AcDbLine
10
13.02
20
219.813
11
13.044
21
219.968
0
LINE
5
4A
100
AcDbEntity
8
0
6
ByLayer
62
256
100
AcDbLine
10
13.044
20
219.968
11
13.079
21
220.122
0
LINE
5
4B
100
AcDbEntity
8
0
6
ByLayer
62
256
100
AcDbLine
10
13.079
20
220.122
11
13.122
21
220.273
0
LINE
5
4C
100
AcDbEntity
8
0
6
ByLayer
62
256
100
AcDbLine
10
13.122
20
220.273
11
13.176
21
220.42
0
LINE
5
4D
100
AcDbEntity
8
0
6
ByLayer
62
256
100
AcDbLine
10
13.176
20
220.42
11
13.238
21
220.564
0
LINE
5
4E
100
AcDbEntity
8
0
6
ByLayer
62
256
100
AcDbLine
10
13.238
20
220.564
11
13.309
21
220.704
0
LINE
5
4F
100
AcDbEntity
8
0
6
ByLayer
62
256
100
AcDbLine
10
13.309
20
220.704
11
13.389
21
220.84
0
LINE
5
50
100
AcDbEntity
8
0
6
ByLayer
62
256
100
AcDbLine
10
13.389
20
220.84
11
13.477
21
220.969
0
LINE
5
51
100
AcDbEntity
8
0
6
ByLayer
62
256
100
AcDbLine
10
13.477
20
220.969
11
13.574
21
221.094
0
LINE
5
52
100
AcDbEntity
8
0
6
ByLayer
62
256
100
AcDbLine
10
13.574
20
221.094
11
13.678
21
221.211
0
LINE
5
53
100
AcDbEntity
8
0
6
ByLayer
62
256
100
AcDbLine
10
13.678
20
221.211
11
13.789
21
221.322
0
LINE
5
54
100
AcDbEntity
8
0
6
ByLayer
62
256
100
AcDbLine
10
13.789
20
221.322
11
13.906
21
221.426
0
LINE
5
55
100
AcDbEntity
8
0
6
ByLayer
62
256
100
AcDbLine
10
13.906
20
221.426
11
14.031
21
221.523
0
LINE
5
56
100
AcDbEntity
8
0
6
ByLayer
62
256
100
AcDbLine
10
14.031
20
221.523
11
14.16
21
221.611
0
LINE
5
57
100
AcDbEntity
8
0
6
ByLayer
62
256
100
AcDbLine
10
14.16
20
221.611
11
14.296
21
221.691
0
LINE
5
58
100
AcDbEntity
8
0
6
ByLayer
62
256
100
AcDbLine
10
14.296
20
221.691
11
14.436
21
221.762
0
LINE
5
59
100
AcDbEntity
8
0
6
ByLayer
62
256
100
AcDbLine
10
14.436
20
221.762
11
14.58
21
221.824
0
LINE
5
5A
100
AcDbEntity
8
0
6
ByLayer
62
256
100
AcDbLine
10
14.58
20
221.824
11
14.727
21
221.878
0
LINE
5
5B
100
AcDbEntity
8
0
6
ByLayer
62
256
100
AcDbLine
10
14.727
20
221.878
11
14.878
21
221.921
0
LINE
5
5C
100
AcDbEntity
8
0
6
ByLayer
62
256
100
AcDbLine
10
14.878
20
221.921
11
15.032
21
221.956
0
LINE
5
5D
100
AcDbEntity
8
0
6
ByLayer
62
256
100
AcDbLine
10
15.032
20
221.956
11
15.187
21
221.98
0
LINE
5
5E
100
AcDbEntity
8
0
6
ByLayer
62
256
100
AcDbLine
10
15.187
20
221.98
11
15.343
21
221.995
0
LINE
5
5F
100
AcDbEntity
8
0
6
ByLayer
62
256
100
AcDbLine
10
15.343
20
221.995
11
15.657
21
222.005
0
LINE
5
60
100
AcDbEntity
8
0
6
ByLayer
62
256
100
AcDbLine
10
15.657
20
222.005
11
15.813
21
222.02
0
LINE
5
61
100
AcDbEntity
8
0
6
ByLayer
62
256
100
AcDbLine
10
15.813
20
222.02
11
15.968
21
222.044
0
LINE
5
62
100
AcDbEntity
8
0
6
ByLayer
62
256
100
AcDbLine
10
15.968
20
222.044
11
16.122
21
222.079
0
LINE
5
63
100
AcDbEntity
8
0
6
ByLayer
62
256
100
AcDbLine
10
16.122
20
222.079
11
16.273
21
222.122
0
LINE
5
64
100
AcDbEntity
8
0
6
ByLayer
62
256
100
AcDbLine
10
16.273
20
222.122
11
16.42
21
222.176
0
LINE
5
65
100
AcDbEntity
8
0
6
ByLayer
62
256
100
AcDbLine
10
16.42
20
222.176
11
16.564
21
222.238
0
LINE
5
66
100
AcDbEntity
8
0
6
ByLayer
62
256
100
AcDbLine
10
16.564
20
222.238
11
16.704
21
222.309
0
LINE
5
67
100
AcDbEntity
8
0
6
ByLayer
62
256
100
AcDbLine
10
16.704
20
222.309
11
16.84
21
222.389
0
LINE
5
68
100
AcDbEntity
8
0
6
ByLayer
62
256
100
AcDbLine
10
16.84
20
222.389
11
16.969
21
222.477
0
LINE
5
69
100
AcDbEntity
8
0
6
ByLayer
62
256
100
AcDbLine
10
16.969
20
222.477
11
17.094
21
222.574
0
LINE
5
6A
100
AcDbEntity
8
0
6
ByLayer
62
256
100
AcDbLine
10
17.094
20
222.574
11
17.211
21
222.678
0
LINE
5
6B
100
AcDbEntity
8
0
6
ByLayer
62
256
100
AcDbLine
10
17.211
20
222.678
11
17.322
21
222.789
0
LINE
5
6C
100
AcDbEntity
8
0
6
ByLayer
62
256
100
AcDbLine
10
17.322
20
222.789
11
17.426
21
222.906
0
LINE
5
6D
100
AcDbEntity
8
0
6
ByLayer
62
256
100
AcDbLine
10
17.426
20
222.906
11
17.523
21
223.031
0
LINE
5
6E
100
AcDbEntity
8
0
6
ByLayer
62
256
100
AcDbLine
10
17.523
20
223.031
11
17.611
21
223.16
0
LINE
5
6F
100
AcDbEntity
8
0
6
ByLayer
62
256
100
AcDbLine
10
17.611
20
223.16
11
17.691
21
223.296
0
LINE
5
70
100
AcDbEntity
8
0
6
ByLayer
62
256
100
AcDbLine
10
17.691
20
223.296
11
17.762
21
223.436
0
LINE
5
71
100
AcDbEntity
8
0
6
ByLayer
62
256
100
AcDbLine
10
17.762
20
223.436
11
17.824
21
223.58
0
LINE
5
72
100
AcDbEntity
8
0
6
ByLayer
62
256
100
AcDbLine
10
17.824
20
223.58
11
17.878
21
223.727
0
LINE
5
73
100
AcDbEntity
8
0
6
ByLayer
62
256
100
AcDbLine
10
17.878
20
223.727
11
17.921
21
223.878
0
LINE
5
74
100
AcDbEntity
8
0
6
ByLayer
62
256
100
AcDbLine
10
17.921
20
223.878
11
17.956
21
224.032
0
LINE
5
75
100
AcDbEntity
8
0
6
ByLayer
62
256
100
AcDbLine
10
17.956
20
224.032
11
17.98
21
224.187
0
LINE
5
76
100
AcDbEntity
8
0
6
ByLayer
62
256
100
AcDbLine
10
17.98
20
224.187
11
17.995
21
224.343
0
LINE
5
77
100
AcDbEntity
8
0
6
ByLayer
62
256
100
AcDbLine
10
17.995
20
224.343
11
18.005
21
224.657
0
LINE
5
78
100
AcDbEntity
8
0
6
ByLayer
62
256
100
AcDbLine
10
18.005
20
224.657
11
18.02
21
224.813
0
LINE
5
79
100
AcDbEntity
8
0
6
ByLayer
62
256
100
AcDbLine
10
18.02
20
224.813
11
18.044
21
224.968
0
LINE
5
7A
100
AcDbEntity
8
0
6
ByLayer
62
256
100
AcDbLine
10
18.044
20
224.968
11
18.079
21
225.122
0
LINE
5
7B
100
AcDbEntity
8
0
6
ByLayer
62
256
100
AcDbLine
10
18.079
20
225.122
11
18.122
21
225.273
0
LINE
5
7C
100
AcDbEntity
8
0
6
ByLayer
62
256
100
AcDbLine
10
18.122
20
225.273
11
18.176
21
225.42
0
LINE
5
7D
100
AcDbEntity
8
0
6
ByLayer
62
256
100
AcDbLine
10
18.176
20
225.42
11
18.238
21
225.564
0
LINE
5
7E
100
AcDbEntity
8
0
6
ByLayer
62
256
100
AcDbLine
10
18.238
20
225.564
11
18.309
21
225.704
0
LINE
5
7F
100
AcDbEntity
8
0
6
ByLayer
62
256
100
AcDbLine
10
18.309
20
225.704
11
18.389
21
225.84
0
LINE
5
80
100
AcDbEntity
8
0
6
ByLayer
62
256
100
AcDbLine
10
18.389
20
225.84
11
18.477
21
225.969
0
LINE
5
81
100
AcDbEntity
8
0
6
ByLayer
62
256
100
AcDbLine
10
18.477
20
225.969
11
18.574
21
226.094
0
LINE
5
82
100
AcDbEntity
8
0
6
ByLayer
62
256
100
AcDbLine
10
18.574
20
226.094
11
18.678
21
226.211
0
LINE
5
83
100
AcDbEntity
8
0
6
ByLayer
62
256
100
AcDbLine
10
18.678
20
226.211
11
18.789
21
226.322
0
LINE
5
84
100
AcDbEntity
8
0
6
ByLayer
62
256
100
AcDbLine
10
18.789
20
226.322
11
18.906
21
226.426
0
LINE
5
85
100
AcDbEntity
8
0
6
ByLayer
62
256
100
AcDbLine
10
18.906
20
226.426
11
19.031
21
226.523
0
LINE
5
86
100
AcDbEntity
8
0
6
ByLayer
62
256
100
AcDbLine
10
19.031
20
226.523
11
19.16
21
226.611
0
LINE
5
87
100
AcDbEntity
8
0
6
ByLayer
62
256
100
AcDbLine
10
19.16
20
226.611
11
19.296
21
226.691
0
LINE
5
88
100
AcDbEntity
8
0
6
ByLayer
62
256
100
AcDbLine
10
19.296
20
226.691
11
19.436
21
226.762
0
LINE
5
89
100
AcDbEntity
8
0
6
ByLayer
62
256
100
AcDbLine
10
19.436
20
226.762
11
19.58
21
226.824
0
LINE
5
8A
100
AcDbEntity
8
0
6
ByLayer
62
256
100
AcDbLine
10
19.58
20
226.824
11
19.727
21
226.878
0
LINE
5
8B
100
AcDbEntity
8
0
6
ByLayer
62
256
100
AcDbLine
10
19.727
20
226.878
11
19.878
21
226.921
0
LINE
5
8C
100
AcDbEntity
8
0
6
ByLayer
62
256
100
AcDbLine
10
19.878
20
226.921
11
20.032
21
226.956
0
LINE
5
8D
100
AcDbEntity
8
0
6
ByLayer
62
256
100
AcDbLine
10
20.032
20
226.956
11
20.187
21
226.98
0
LINE
5
8E
100
AcDbEntity
8
0
6
ByLayer
62
256
100
AcDbLine
10
20.187
20
226.98
11
20.343
21
226.995
0
LINE
5
8F
100
AcDbEntity
8
0
6
ByLayer
62
256
100
AcDbLine
10
20.343
20
226.995
11
20.5
21
227
0
LINE
5
90
100
AcDbEntity
8
0
6
ByLayer
62
256
100
AcDbLine
10
20.5
20
227
11
219.5
21
227
0
LINE
5
91
100
AcDbEntity
8
0
6
ByLayer
62
256
100
AcDbLine
10
219.5
20
227
11
219.657
21
226.995
0
LINE
5
92
100
AcDbEntity
8
0
6
ByLayer
62
256
100
AcDbLine
10
219.657
20
226.995
11
219.813
21
226.98
0
LINE
5
93
100
AcDbEntity
8
0
6
ByLayer
62
256
100
AcDbLine
10
219.813
20
226.98
11
219.968
21
226.956
0
LINE
5
94
100
AcDbEntity
8
0
6
ByLayer
62
256
100
AcDbLine
10
219.968
20
226.956
11
220.122
21
226.921
0
LINE
5
95
100
AcDbEntity
8
0
6
ByLayer
62
256
100
AcDbLine
10
220.122
20
226.921
11
220.273
21
226.878
0
LINE
5
96
100
AcDbEntity
8
0
6
ByLayer
62
256
100
AcDbLine
10
220.273
20
226.878
11
220.42
21
226.824
0
LINE
5
97
100
AcDbEntity
8
0
6
ByLayer
62
256
100
AcDbLine
10
220.42
20
226.824
11
220.564
21
226.762
0
LINE
5
98
100
AcDbEntity
8
0
6
ByLayer
62
256
100
AcDbLine
10
220.564
20
226.762
11
220.704
21
226.691
0
LINE
5
99
100
AcDbEntity
8
0
6
ByLayer
62
256
100
AcDbLine
10
220.704
20
226.691
11
220.84
21
226.611
0
LINE
5
9A
100
AcDbEntity
8
0
6
ByLayer
62
256
100
AcDbLine
10
220.84
20
226.611
11
220.969
21
226.523
0
LINE
5
9B
100
AcDbEntity
8
0
6
ByLayer
62
256
100
AcDbLine
10
220.969
20
226.523
11
221.094
21
226.426
0
LINE
5
9C
100
AcDbEntity
8
0
6
ByLayer
62
256
100
AcDbLine
10
221.094
20
226.426
11
221.211
21
226.322
0
LINE
5
9D
100
AcDbEntity
8
0
6
ByLayer
62
256
100
AcDbLine
10
221.211
20
226.322
11
221.322
21
226.211
0
LINE
5
9E
100
AcDbEntity
8
0
6
ByLayer
62
256
100
AcDbLine
10
221.322
20
226.211
11
221.426
21
226.094
0
LINE
5
9F
100
AcDbEntity
8
0
6
ByLayer
62
256
100
AcDbLine
10
221.426
20
226.094
11
221.523
21
225.969
0
LINE
5
A0
100
AcDbEntity
8
0
6
ByLayer
62
256
100
AcDbLine
10
221.523
20
225.969
11
221.611
21
225.84
0
LINE
5
A1
100
AcDbEntity
8
0
6
ByLayer
62
256
100
AcDbLine
10
221.611
20
225.84
11
221.691
21
225.704
0
LINE
5
A2
100
AcDbEntity
8
0
6
ByLayer
62
256
100
AcDbLine
10
221.691
20
225.704
11
221.762
21
225.564
0
LINE
5
A3
100
AcDbEntity
8
0
6
ByLayer
62
256
100
AcDbLine
10
221.762
20
225.564
11
221.824
21
225.42
0
LINE
5
A4
100
AcDbEntity
8
0
6
ByLayer
62
256
100
AcDbLine
10
221.824
20
225.42
11
221.878
21
225.273
0
LINE
5
A5
100
AcDbEntity
8
0
6
ByLayer
62
256
100
AcDbLine
10
221.878
20
225.273
11
221.921
21
225.122
0
LINE
5
A6
100
AcDbEntity
8
0
6
ByLayer
62
256
100
AcDbLine
10
221.921
20
225.122
11
221.956
21
224.968
0
LINE
5
A7
100
AcDbEntity
8
0
6
ByLayer
62
256
100
AcDbLine
10
221.956
20
224.968
11
221.98
21
224.813
0
LINE
5
A8
100
AcDbEntity
8
0
6
ByLayer
62
256
100
AcDbLine
10
221.98
20
224.813
11
221.995
21
224.657
0
LINE
5
A9
100
AcDbEntity
8
0
6
ByLayer
62
256
100
AcDbLine
10
221.995
20
224.657
11
222.005
21
224.343
0
LINE
5
AA
100
AcDbEntity
8
0
6
ByLayer
62
256
100
AcDbLine
10
222.005
20
224.343
11
222.02
21
224.187
0
LINE
5
AB
100
AcDbEntity
8
0
6
ByLayer
62
256
100
AcDbLine
10
222.02
20
224.187
11
222.044
21
224.032
0
LINE
5
AC
100
AcDbEntity
8
0
6
ByLayer
62
256
100
AcDbLine
10
222.044
20
224.032
11
222.079
21
223.878
0
LINE
5
AD
100
AcDbEntity
8
0
6
ByLayer
62
256
100
AcDbLine
10
222.079
20
223.878
11
222.122
21
223.727
0
LINE
5
AE
100
AcDbEntity
8
0
6
ByLayer
62
256
100
AcDbLine
10
222.122
20
223.727
11
222.176
21
223.58
0
LINE
5
AF
100
AcDbEntity
8
0
6
ByLayer
62
256
100
AcDbLine
10
222.176
20
223.58
11
222.238
21
223.436
0
LINE
5
B0
100
AcDbEntity
8
0
6
ByLayer
62
256
100
AcDbLine
10
222.238
20
223.436
11
222.309
21
223.296
0
LINE
5
B1
100
AcDbEntity
8
0
6
ByLayer
62
256
100
AcDbLine
10
222.309
20
223.296
11
222.389
21
223.16
0
LINE
5
B2
100
AcDbEntity
8
0
6
ByLayer
62
256
100
AcDbLine
10
222.389
20
223.16
11
222.477
21
223.031
0
LINE
5
B3
100
AcDbEntity
8
0
6
ByLayer
62
256
100
AcDbLine
10
222.477
20
223.031
11
222.574
21
222.906
0
LINE
5
B4
100
AcDbEntity
8
0
6
ByLayer
62
256
100
AcDbLine
10
222.574
20
222.906
11
222.678
21
222.789
0
LINE
5
B5
100
AcDbEntity
8
0
6
ByLayer
62
256
100
AcDbLine
10
222.678
20
222.789
11
222.789
21
222.678
0
LINE
5
B6
100
AcDbEntity
8
0
6
ByLayer
62
256
100
AcDbLine
10
222.789
20
222.678
11
222.906
21
222.574
0
LINE
5
B7
100
AcDbEntity
8
0
6
ByLayer
62
256
100
AcDbLine
10
222.906
20
222.574
11
223.031
21
222.477
0
LINE
5
B8
100
AcDbEntity
8
0
6
ByLayer
62
256
100
AcDbLine
10
223.031
20
222.477
11
223.16
21
222.389
0
LINE
5
B9
100
AcDbEntity
8
0
6
ByLayer
62
256
100
AcDbLine
10
223.16
20
222.389
11
223.296
21
222.309
0
LINE
5
BA
100
AcDbEntity
8
0
6
ByLayer
62
256
100
AcDbLine
10
223.296
20
222.309
11
223.436
21
222.238
0
LINE
5
BB
100
AcDbEntity
8
0
6
ByLayer
62
256
100
AcDbLine
10
223.436
20
222.238
11
223.58
21
222.176
0
LINE
5
BC
100
AcDbEntity
8
0
6
ByLayer
62
256
100
AcDbLine
10
223.58
20
222.176
11
223.727
21
222.122
0
LINE
5
BD
100
AcDbEntity
8
0
6
ByLayer
62
256
100
AcDbLine
10
223.727
20
222.122
11
223.878
21
222.079
0
LINE
5
BE
100
AcDbEntity
8
0
6
ByLayer
62
256
100
AcDbLine
10
223.878
20
222.079
11
224.032
21
222.044
0
LINE
5
BF
100
AcDbEntity
8
0
6
ByLayer
62
256
100
AcDbLine
10
224.032
20
222.044
11
224.187
21
222.02
0
LINE
5
C0
100
AcDbEntity
8
0
6
ByLayer
62
256
100
AcDbLine
10
224.187
20
222.02
11
224.343
21
222.005
0
LINE
5
C1
100
AcDbEntity
8
0
6
ByLayer
62
256
100
AcDbLine
10
224.343
20
222.005
11
224.657
21
221.995
0
LINE
5
C2
100
AcDbEntity
8
0
6
ByLayer
62
256
100
AcDbLine
10
224.657
20
221.995
11
224.813
21
221.98
0
LINE
5
C3
100
AcDbEntity
8
0
6
ByLayer
62
256
100
AcDbLine
10
224.813
20
221.98
11
224.968
21
221.956
0
LINE
5
C4
100
AcDbEntity
8
0
6
ByLayer
62
256
100
AcDbLine
10
224.968
20
221.956
11
225.122
21
221.921
0
LINE
5
C5
100
AcDbEntity
8
0
6
ByLayer
62
256
100
AcDbLine
10
225.122
20
221.921
11
225.273
21
221.878
0
LINE
5
C6
100
AcDbEntity
8
0
6
ByLayer
62
256
100
AcDbLine
10
225.273
20
221.878
11
225.42
21
221.824
0
LINE
5
C7
100
AcDbEntity
8
0
6
ByLayer
62
256
100
AcDbLine
10
225.42
20
221.824
11
225.564
21
221.762
0
LINE
5
C8
100
AcDbEntity
8
0
6
ByLayer
62
256
100
AcDbLine
10
225.564
20
221.762
11
225.704
21
221.691
0
LINE
5
C9
100
AcDbEntity
8
0
6
ByLayer
62
256
100
AcDbLine
10
225.704
20
221.691
11
225.84
21
221.611
0
LINE
5
CA
100
AcDbEntity
8
0
6
ByLayer
62
256
100
AcDbLine
10
225.84
20
221.611
11
225.969
21
221.523
0
LINE
5
CB
100
AcDbEntity
8
0
6
ByLayer
62
256
100
AcDbLine
10
225.969
20
221.523
11
226.094
21
221.426
0
LINE
5
CC
100
AcDbEntity
8
0
6
ByLayer
62
256
100
AcDbLine
10
226.094
20
221.426
11
226.211
21
221.322
0
LINE
5
CD
100
AcDbEntity
8
0
6
ByLayer
62
256
100
AcDbLine
10
226.211
20
221.322
11
226.322
21
221.211
0
LINE
5
CE
100
AcDbEntity
8
0
6
ByLayer
62
256
100
AcDbLine
10
226.322
20
221.211
11
226.426
21
221.094
0
LINE
5
CF
100
AcDbEntity
8
0
6
ByLayer
62
256
100
AcDbLine
10
226.426
20
221.094
11
226.523
21
220.969
0
LINE
5
D0
100
AcDbEntity
8
0
6
ByLayer
62
256
100
AcDbLine
10
226.523
20
220.969
11
226.611
21
220.84
0
LINE
5
D1
100
AcDbEntity
8
0
6
ByLayer
62
256
100
AcDbLine
10
226.611
20
220.84
11
226.691
21
220.704
0
LINE
5
D2
100
AcDbEntity
8
0
6
ByLayer
62
256
100
AcDbLine
10
226.691
20
220.704
11
226.762
21
220.564
0
LINE
5
D3
100
AcDbEntity
8
0
6
ByLayer
62
256
100
AcDbLine
10
226.762
20
220.564
11
226.824
21
220.42
0
LINE
5
D4
100
AcDbEntity
8
0
6
ByLayer
62
256
100
AcDbLine
10
226.824
20
220.42
11
226.878
21
220.273
0
LINE
5
D5
100
AcDbEntity
8
0
6
ByLayer
62
256
100
AcDbLine
10
226.878
20
220.273
11
226.921
21
220.122
0
LINE
5
D6
100
AcDbEntity
8
0
6
ByLayer
62
256
100
AcDbLine
10
226.921
20
220.122
11
226.956
21
219.968
0
LINE
5
D7
100
AcDbEntity
8
0
6
ByLayer
62
256
100
AcDbLine
10
226.956
20
219.968
11
226.98
21
219.813
0
LINE
5
D8
100
AcDbEntity
8
0
6
ByLayer
62
256
100
AcDbLine
10
226.98
20
219.813
11
226.995
21
219.657
0
LINE
5
D9
100
AcDbEntity
8
0
6
ByLayer
62
256
100
AcDbLine
10
226.995
20
219.657
11
227
21
219.5
0
LINE
5
DA
100
AcDbEntity
8
0
6
ByLayer
62
256
100
AcDbLine
10
227
20
219.5
11
227
21
20.5
0
LINE
5
DB
100
AcDbEntity
8
0
6
ByLayer
62
256
100
AcDbLine
10
227
20
20.5
11
226.995
21
20.343
0
LINE
5
DC
100
AcDbEntity
8
0
6
ByLayer
62
256
100
AcDbLine
10
226.995
20
20.343
11
226.98
21
20.187
0
LINE
5
DD
100
AcDbEntity
8
0
6
ByLayer
62
256
100
AcDbLine
10
226.98
20
20.187
11
226.956
21
20.032
0
LINE
5
DE
100
AcDbEntity
8
0
6
ByLayer
62
256
100
AcDbLine
10
226.956
20
20.032
11
226.921
21
19.878
0
LINE
5
DF
100
AcDbEntity
8
0
6
ByLayer
62
256
100
AcDbLine
10
226.921
20
19.878
11
226.878
21
19.727
0
LINE
5
E0
100
AcDbEntity
8
0
6
ByLayer
62
256
100
AcDbLine
10
226.878
20
19.727
11
226.824
21
19.58
0
LINE
5
E1
100
AcDbEntity
8
0
6
ByLayer
62
256
100
AcDbLine
10
226.824
20
19.58
11
226.762
21
19.436
0
LINE
5
E2
100
AcDbEntity
8
0
6
ByLayer
62
256
100
AcDbLine
10
226.762
20
19.436
11
226.691
21
19.296
0
LINE
5
E3
100
AcDbEntity
8
0
6
ByLayer
62
256
100
AcDbLine
10
226.691
20
19.296
11
226.611
21
19.16
0
LINE
5
E4
100
AcDbEntity
8
0
6
ByLayer
62
256
100
AcDbLine
10
226.611
20
19.16
11
226.523
21
19.031
0
LINE
5
E5
100
AcDbEntity
8
0
6
ByLayer
62
256
100
AcDbLine
10
226.523
20
19.031
11
226.426
21
18.906
0
LINE
5
E6
100
AcDbEntity
8
0
6
ByLayer
62
256
100
AcDbLine
10
226.426
20
18.906
11
226.322
21
18.789
0
LINE
5
E7
100
AcDbEntity
8
0
6
ByLayer
62
256
100
AcDbLine
10
226.322
20
18.789
11
226.211
21
18.678
0
LINE
5
E8
100
AcDbEntity
8
0
6
ByLayer
62
256
100
AcDbLine
10
226.211
20
18.678
11
226.094
21
18.574
0
LINE
5
E9
100
AcDbEntity
8
0
6
ByLayer
62
256
100
AcDbLine
10
226.094
20
18.574
11
225.969
21
18.477
0
LINE
5
EA
100
AcDbEntity
8
0
6
ByLayer
62
256
100
AcDbLine
10
225.969
20
18.477
11
225.84
21
18.389
0
LINE
5
EB
100
AcDbEntity
8
0
6
ByLayer
62
256
100
AcDbLine
10
225.84
20
18.389
11
225.704
21
18.309
0
LINE
5
EC
100
AcDbEntity
8
0
6
ByLayer
62
256
100
AcDbLine
10
225.704
20
18.309
11
225.564
21
18.238
0
LINE
5
ED
100
AcDbEntity
8
0
6
ByLayer
62
256
100
AcDbLine
10
225.564
20
18.238
11
225.42
21
18.176
0
LINE
5
EE
100
AcDbEntity
8
0
6
ByLayer
62
256
100
AcDbLine
10
225.42
20
18.176
11
225.273
21
18.122
0
LINE
5
EF
100
AcDbEntity
8
0
6
ByLayer
62
256
100
AcDbLine
10
225.273
20
18.122
11
225.122
21
18.079
0
LINE
5
F0
100
AcDbEntity
8
0
6
ByLayer
62
256
100
AcDbLine
10
225.122
20
18.079
11
224.968
21
18.044
0
LINE
5
F1
100
AcDbEntity
8
0
6
ByLayer
62
256
100
AcDbLine
10
224.968
20
18.044
11
224.813
21
18.02
0
LINE
5
F2
100
AcDbEntity
8
0
6
ByLayer
62
256
100
AcDbLine
10
224.813
20
18.02
11
224.657
21
18.005
0
LINE
5
F3
100
AcDbEntity
8
0
6
ByLayer
62
256
100
AcDbLine
10
224.657
20
18.005
11
224.343
21
17.995
0
LINE
5
F4
100
AcDbEntity
8
0
6
ByLayer
62
256
100
AcDbLine
10
224.343
20
17.995
11
224.187
21
17.98
0
LINE
5
F5
100
AcDbEntity
8
0
6
ByLayer
62
256
100
AcDbLine
10
224.187
20
17.98
11
224.032
21
17.956
0
LINE
5
F6
100
AcDbEntity
8
0
6
ByLayer
62
256
100
AcDbLine
10
224.032
20
17.956
11
223.878
21
17.921
0
LINE
5
F7
100
AcDbEntity
8
0
6
ByLayer
62
256
100
AcDbLine
10
223.878
20
17.921
11
223.727
21
17.878
0
LINE
5
F8
100
AcDbEntity
8
0
6
ByLayer
62
256
100
AcDbLine
10
223.727
20
17.878
11
223.58
21
17.824
0
LINE
5
F9
100
AcDbEntity
8
0
6
ByLayer
62
256
100
AcDbLine
10
223.58
20
17.824
11
223.436
21
17.762
0
LINE
5
FA
100
AcDbEntity
8
0
6
ByLayer
62
256
100
AcDbLine
10
223.436
20
17.762
11
223.296
21
17.691
0
LINE
5
FB
100
AcDbEntity
8
0
6
ByLayer
62
256
100
AcDbLine
10
223.296
20
17.691
11
223.16
21
17.611
0
LINE
5
FC
100
AcDbEntity
8
0
6
ByLayer
62
256
100
AcDbLine
10
223.16
20
17.611
11
223.031
21
17.523
0
LINE
5
FD
100
AcDbEntity
8
0
6
ByLayer
62
256
100
AcDbLine
10
223.031
20
17.523
11
222.906
21
17.426
0
LINE
5
FE
100
AcDbEntity
8
0
6
ByLayer
62
256
100
AcDbLine
10
222.906
20
17.426
11
222.789
21
17.322
0
LINE
5
FF
100
AcDbEntity
8
0
6
ByLayer
62
256
100
AcDbLine
10
222.789
20
17.322
11
222.678
21
17.211
0
LINE
5
100
100
AcDbEntity
8
0
6
ByLayer
62
256
100
AcDbLine
10
222.678
20
17.211
11
222.574
21
17.094
0
LINE
5
101
100
AcDbEntity
8
0
6
ByLayer
62
256
100
AcDbLine
10
222.574
20
17.094
11
222.477
21
16.969
0
LINE
5
102
100
AcDbEntity
8
0
6
ByLayer
62
256
100
AcDbLine
10
222.477
20
16.969
11
222.389
21
16.84
0
LINE
5
103
100
AcDbEntity
8
0
6
ByLayer
62
256
100
AcDbLine
10
222.389
20
16.84
11
222.309
21
16.704
0
LINE
5
104
100
AcDbEntity
8
0
6
ByLayer
62
256
100
AcDbLine
10
222.309
20
16.704
11
222.238
21
16.564
0
LINE
5
105
100
AcDbEntity
8
0
6
ByLayer
62
256
100
AcDbLine
10
222.238
20
16.564
11
222.176
21
16.42
0
LINE
5
106
100
AcDbEntity
8
0
6
ByLayer
62
256
100
AcDbLine
10
222.176
20
16.42
11
222.122
21
16.273
0
LINE
5
107
100
AcDbEntity
8
0
6
ByLayer
62
256
100
AcDbLine
10
222.122
20
16.273
11
222.079
21
16.122
0
LINE
5
108
100
AcDbEntity
8
0
6
ByLayer
62
256
100
AcDbLine
10
222.079
20
16.122
11
222.044
21
15.968
0
LINE
5
109
100
AcDbEntity
8
0
6
ByLayer
62
256
100
AcDbLine
10
222.044
20
15.968
11
222.02
21
15.813
0
LINE
5
10A
100
AcDbEntity
8
0
6
ByLayer
62
256
100
AcDbLine
10
222.02
20
15.813
11
222.005
21
15.657
0
LINE
5
10B
100
AcDbEntity
8
0
6
ByLayer
62
256
100
AcDbLine
10
222.005
20
15.657
11
221.995
21
15.343
0
LINE
5
10C
100
AcDbEntity
8
0
6
ByLayer
62
256
100
AcDbLine
10
221.995
20
15.343
11
221.98
21
15.187
0
LINE
5
10D
100
AcDbEntity
8
0
6
ByLayer
62
256
100
AcDbLine
10
221.98
20
15.187
11
221.956
21
15.032
0
LINE
5
10E
100
AcDbEntity
8
0
6
ByLayer
62
256
100
AcDbLine
10
221.956
20
15.032
11
221.921
21
14.878
0
LINE
5
10F
100
AcDbEntity
8
0
6
ByLayer
62
256
100
AcDbLine
10
221.921
20
14.878
11
221.878
21
14.727
0
LINE
5
110
100
AcDbEntity
8
0
6
ByLayer
62
256
100
AcDbLine
10
221.878
20
14.727
11
221.824
21
14.58
0
LINE
5
111
100
AcDbEntity
8
0
6
ByLayer
62
256
100
AcDbLine
10
221.824
20
14.58
11
221.762
21
14.436
0
LINE
5
112
100
AcDbEntity
8
0
6
ByLayer
62
256
100
AcDbLine
10
221.762
20
14.436
11
221.691
21
14.296
0
LINE
5
113
100
AcDbEntity
8
0
6
ByLayer
62
256
100
AcDbLine
10
221.691
20
14.296
11
221.611
21
14.16
0
LINE
5
114
100
AcDbEntity
8
0
6
ByLayer
62
256
100
AcDbLine
10
221.611
20
14.16
11
221.523
21
14.031
0
LINE
5
115
100
AcDbEntity
8
0
6
ByLayer
62
256
100
AcDbLine
10
221.523
20
14.031
11
221.426
21
13.906
0
LINE
5
116
100
AcDbEntity
8
0
6
ByLayer
62
256
100
AcDbLine
10
221.426
20
13.906
11
221.322
21
13.789
0
LINE
5
117
100
AcDbEntity
8
0
6
ByLayer
62
256
100
AcDbLine
10
221.322
20
13.789
11
221.211
21
13.678
0
LINE
5
118
100
AcDbEntity
8
0
6
ByLayer
62
256
100
AcDbLine
10
221.211
20
13.678
11
221.094
21
13.574
0
LINE
5
119
100
AcDbEntity
8
0
6
ByLayer
62
256
100
AcDbLine
10
221.094
20
13.574
11
220.969
21
13.477
0
LINE
5
11A
100
AcDbEntity
8
0
6
ByLayer
62
256
100
AcDbLine
10
220.969
20
13.477
11
220.84
21
13.389
0
LINE
5
11B
100
AcDbEntity
8
0
6
ByLayer
62
256
100
AcDbLine
10
220.84
20
13.389
11
220.704
21
13.309
0
LINE
5
11C
100
AcDbEntity
8
0
6
ByLayer
62
256
100
AcDbLine
10
220.704
20
13.309
11
220.564
21
13.238
0
LINE
5
11D
100
AcDbEntity
8
0
6
ByLayer
62
256
100
AcDbLine
10
220.564
20
13.238
11
220.42
21
13.176
0
LINE
5
11E
100
AcDbEntity
8
0
6
ByLayer
62
256
100
AcDbLine
10
220.42
20
13.176
11
220.273
21
13.122
0
LINE
5
11F
100
AcDbEntity
8
0
6
ByLayer
62
256
100
AcDbLine
10
220.273
20
13.122
11
220.122
21
13.079
0
LINE
5
120
100
AcDbEntity
8
0
6
ByLayer
62
256
100
AcDbLine
10
220.122
20
13.079
11
219.968
21
13.044
0
LINE
5
121
100
AcDbEntity
8
0
6
ByLayer
62
256
100
AcDbLine
10
219.968
20
13.044
11
219.813
21
13.02
0
LINE
5
122
100
AcDbEntity
8
0
6
ByLayer
62
256
100
AcDbLine
10
219.813
20
13.02
11
219.657
21
13.005
0
LINE
5
123
100
AcDbEntity
8
0
6
ByLayer
62
256
100
AcDbLine
10
219.657
20
13.005
11
219.5
21
13
0
LINE
5
124
100
AcDbEntity
8
0
6
ByLayer
62
256
100
AcDbLine
10
219.5
20
13
11
160
21
13
0
LINE
5
125
100
AcDbEntity
8
0
6
ByLayer
62
256
100
AcDbLine
10
160
20
13
11
159.686
21
13.01
0
LINE
5
126
100
AcDbEntity
8
0
6
ByLayer
62
256
100
AcDbLine
10
159.686
20
13.01
11
159.373
21
13.039
0
LINE
5
127
100
AcDbEntity
8
0
6
ByLayer
62
256
100
AcDbLine
10
159.373
20
13.039
11
159.063
21
13.089
0
LINE
5
128
100
AcDbEntity
8
0
6
ByLayer
62
256
100
AcDbLine
10
159.063
20
13.089
11
158.757
21
13.157
0
LINE
5
129
100
AcDbEntity
8
0
6
ByLayer
62
256
100
AcDbLine
10
158.757
20
13.157
11
158.455
21
13.245
0
LINE
5
12A
100
AcDbEntity
8
0
6
ByLayer
62
256
100
AcDbLine
10
158.455
20
13.245
11
158.159
21
13.351
0
LINE
5
12B
100
AcDbEntity
8
0
6
ByLayer
62
256
100
AcDbLine
10
158.159
20
13.351
11
157.871
21
13.476
0
LINE
5
12C
100
AcDbEntity
8
0
6
ByLayer
62
256
100
AcDbLine
10
157.871
20
13.476
11
157.591
21
13.618
0
LINE
5
12D
100
AcDbEntity
8
0
6
ByLayer
62
256
100
AcDbLine
10
157.591
20
13.618
11
157.321
21
13.778
0
LINE
5
12E
100
AcDbEntity
8
0
6
ByLayer
62
256
100
AcDbLine
10
157.321
20
13.778
11
157.061
21
13.955
0
LINE
5
12F
100
AcDbEntity
8
0
6
ByLayer
62
256
100
AcDbLine
10
157.061
20
13.955
11
156.813
21
14.147
0
LINE
5
130
100
AcDbEntity
8
0
6
ByLayer
62
256
100
AcDbLine
10
156.813
20
14.147
11
156.577
21
14.355
0
LINE
5
131
100
AcDbEntity
8
0
6
ByLayer
62
256
100
AcDbLine
10
156.577
20
14.355
11
156.355
21
14.577
0
LINE
5
132
100
AcDbEntity
8
0
6
ByLayer
62
256
100
AcDbLine
10
156.355
20
14.577
11
156.147
21
14.813
0
LINE
5
133
100
AcDbEntity
8
0
6
ByLayer
62
256
100
AcDbLine
10
156.147
20
14.813
11
155.955
21
15.061
0
LINE
5
134
100
AcDbEntity
8
0
6
ByLayer
62
256
100
AcDbLine
10
155.955
20
15.061
11
155.778
21
15.321
0
LINE
5
135
100
AcDbEntity
8
0
6
ByLayer
62
256
100
AcDbLine
10
155.778
20
15.321
11
155.618
21
15.591
0
LINE
5
136
100
AcDbEntity
8
0
6
ByLayer
62
256
100
AcDbLine
10
155.618
20
15.591
11
155.476
21
15.871
0
LINE
5
137
100
AcDbEntity
8
0
6
ByLayer
62
256
100
AcDbLine
10
155.476
20
15.871
11
155.351
21
16.159
0
LINE
5
138
100
AcDbEntity
8
0
6
ByLayer
62
256
100
AcDbLine
10
155.351
20
16.159
11
155.245
21
16.455
0
LINE
5
139
100
AcDbEntity
8
0
6
ByLayer
62
256
100
AcDbLine
10
155.245
20
16.455
11
155.157
21
16.757
0
LINE
5
13A
100
AcDbEntity
8
0
6
ByLayer
62
256
100
AcDbLine
10
155.157
20
16.757
11
155.089
21
17.063
0
LINE
5
13B
100
AcDbEntity
8
0
6
ByLayer
62
256
100
AcDbLine
10
155.089
20
17.063
11
155.039
21
17.373
0
LINE
5
13C
100
AcDbEntity
8
0
6
ByLayer
62
256
100
AcDbLine
10
155.039
20
17.373
11
155.01
21
17.686
0
LINE
5
13D
100
AcDbEntity
8
0
6
ByLayer
62
256
100
AcDbLine
10
155.01
20
17.686
11
154.99
21
18.314
0
LINE
5
13E
100
AcDbEntity
8
0
6
ByLayer
62
256
100
AcDbLine
10
154.99
20
18.314
11
154.961
21
18.627
0
LINE
5
13F
100
AcDbEntity
8
0
6
ByLayer
62
256
100
AcDbLine
10
154.961
20
18.627
11
154.911
21
18.937
0
LINE
5
140
100
AcDbEntity
8
0
6
ByLayer
62
256
100
AcDbLine
10
154.911
20
18.937
11
154.843
21
19.243
0
LINE
5
141
100
AcDbEntity
8
0
6
ByLayer
62
256
100
AcDbLine
10
154.843
20
19.243
11
154.755
21
19.545
0
LINE
5
142
100
AcDbEntity
8
0
6
ByLayer
62
256
100
AcDbLine
10
154.755
20
19.545
11
154.649
21
19.841
0
LINE
5
143
100
AcDbEntity
8
0
6
ByLayer
62
256
100
AcDbLine
10
154.649
20
19.841
11
154.524
21
20.129
0
LINE
5
144
100
AcDbEntity
8
0
6
ByLayer
62
256
100
AcDbLine
10
154.524
20
20.129
11
154.382
21
20.409
0
LINE
5
145
100
AcDbEntity
8
0
6
ByLayer
62
256
100
AcDbLine
10
154.382
20
20.409
11
154.222
21
20.679
0
LINE
5
146
100
AcDbEntity
8
0
6
ByLayer
62
256
100
AcDbLine
10
154.222
20
20.679
11
154.045
21
20.939
0
LINE
5
147
100
AcDbEntity
8
0
6
ByLayer
62
256
100
AcDbLine
10
154.045
20
20.939
11
153.853
21
21.187
0
LINE
5
148
100
AcDbEntity
8
0
6
ByLayer
62
256
100
AcDbLine
10
153.853
20
21.187
11
153.645
21
21.423
0
LINE
5
149
100
AcDbEntity
8
0
6
ByLayer
62
256
100
AcDbLine
10
153.645
20
21.423
11
153.423
21
21.645
0
LINE
5
14A
100
AcDbEntity
8
0
6
ByLayer
62
256
100
AcDbLine
10
153.423
20
21.645
11
153.187
21
21.853
0
LINE
5
14B
100
AcDbEntity
8
0
6
ByLayer
62
256
100
AcDbLine
10
153.187
20
21.853
11
152.939
21
22.045
0
LINE
5
14C
100
AcDbEntity
8
0
6
ByLayer
62
256
100
AcDbLine
10
152.939
20
22.045
11
152.679
21
22.222
0
LINE
5
14D
100
AcDbEntity
8
0
6
ByLayer
62
256
100
AcDbLine
10
152.679
20
22.222
11
152.409
21
22.382
0
LINE
5
14E
100
AcDbEntity
8
0
6
ByLayer
62
256
100
AcDbLine
10
152.409
20
22.382
11
152.129
21
22.524
0
LINE
5
14F
100
AcDbEntity
8
0
6
ByLayer
62
256
100
AcDbLine
10
152.129
20
22.524
11
151.841
21
22.649
0
LINE
5
150
100
AcDbEntity
8
0
6
ByLayer
62
256
100
AcDbLine
10
151.841
20
22.649
11
151.545
21
22.755
0
LINE
5
151
100
AcDbEntity
8
0
6
ByLayer
62
256
100
AcDbLine
10
151.545
20
22.755
11
151.243
21
22.843
0
LINE
5
152
100
AcDbEntity
8
0
6
ByLayer
62
256
100
AcDbLine
10
151.243
20
22.843
11
150.937
21
22.911
0
LINE
5
153
100
AcDbEntity
8
0
6
ByLayer
62
256
100
AcDbLine
10
150.937
20
22.911
11
150.627
21
22.961
0
LINE
5
154
100
AcDbEntity
8
0
6
ByLayer
62
256
100
AcDbLine
10
150.627
20
22.961
11
150.314
21
22.99
0
LINE
5
155
100
AcDbEntity
8
0
6
ByLayer
62
256
100
AcDbLine
10
150.314
20
22.99
11
150
21
23
0
LINE
5
156
100
AcDbEntity
8
0
6
ByLayer
62
256
100
AcDbLine
10
150
20
23
11
90
21
23
0
LINE
5
157
100
AcDbEntity
8
0
6
ByLayer
62
256
100
AcDbLine
10
90
20
23
11
89.686
21
22.99
0
LINE
5
158
100
AcDbEntity
8
0
6
ByLayer
62
256
100
AcDbLine
10
89.686
20
22.99
11
89.373
21
22.961
0
LINE
5
159
100
AcDbEntity
8
0
6
ByLayer
62
256
100
AcDbLine
10
89.373
20
22.961
11
89.063
21
22.911
0
LINE
5
15A
100
AcDbEntity
8
0
6
ByLayer
62
256
100
AcDbLine
10
89.063
20
22.911
11
88.757
21
22.843
0
LINE
5
15B
100
AcDbEntity
8
0
6
ByLayer
62
256
100
AcDbLine
10
88.757
20
22.843
11
88.455
21
22.755
0
LINE
5
15C
100
AcDbEntity
8
0
6
ByLayer
62
256
100
AcDbLine
10
88.455
20
22.755
11
88.159
21
22.649
0
LINE
5
15D
100
AcDbEntity
8
0
6
ByLayer
62
256
100
AcDbLine
10
88.159
20
22.649
11
87.871
21
22.524
0
LINE
5
15E
100
AcDbEntity
8
0
6
ByLayer
62
256
100
AcDbLine
10
87.871
20
22.524
11
87.591
21
22.382
0
LINE
5
15F
100
AcDbEntity
8
0
6
ByLayer
62
256
100
AcDbLine
10
87.591
20
22.382
11
87.321
21
22.222
0
LINE
5
160
100
AcDbEntity
8
0
6
ByLayer
62
256
100
AcDbLine
10
87.321
20
22.222
11
87.061
21
22.045
0
LINE
5
161
100
AcDbEntity
8
0
6
ByLayer
62
256
100
AcDbLine
10
87.061
20
22.045
11
86.813
21
21.853
0
LINE
5
162
100
AcDbEntity
8
0
6
ByLayer
62
256
100
AcDbLine
10
86.813
20
21.853
11
86.577
21
21.645
0
LINE
5
163
100
AcDbEntity
8
0
6
ByLayer
62
256
100
AcDbLine
10
86.577
20
21.645
11
86.355
21
21.423
0
LINE
5
164
100
AcDbEntity
8
0
6
ByLayer
62
256
100
AcDbLine
10
86.355
20
21.423
11
86.147
21
21.187
0
LINE
5
165
100
AcDbEntity
8
0
6
ByLayer
62
256
100
AcDbLine
10
86.147
20
21.187
11
85.955
21
20.939
0
LINE
5
166
100
AcDbEntity
8
0
6
ByLayer
62
256
100
AcDbLine
10
85.955
20
20.939
11
85.778
21
20.679
0
LINE
5
167
100
AcDbEntity
8
0
6
ByLayer
62
256
100
AcDbLine
10
85.778
20
20.679
11
85.618
21
20.409
0
LINE
5
168
100
AcDbEntity
8
0
6
ByLayer
62
256
100
AcDbLine
10
85.618
20
20.409
11
85.476
21
20.129
0
LINE
5
169
100
AcDbEntity
8
0
6
ByLayer
62
256
100
AcDbLine
10
85.476
20
20.129
11
85.351
21
19.841
0
LINE
5
16A
100
AcDbEntity
8
0
6
ByLayer
62
256
100
AcDbLine
10
85.351
20
19.841
11
85.245
21
19.545
0
LINE
5
16B
100
AcDbEntity
8
0
6
ByLayer
62
256
100
AcDbLine
10
85.245
20
19.545
11
85.157
21
19.243
0
LINE
5
16C
100
AcDbEntity
8
0
6
ByLayer
62
256
100
AcDbLine
10
85.157
20
19.243
11
85.089
21
18.937
0
LINE
5
16D
100
AcDbEntity
8
0
6
ByLayer
62
256
100
AcDbLine
10
85.089
20
18.937
11
85.039
21
18.627
0
LINE
5
16E
100
AcDbEntity
8
0
6
ByLayer
62
256
100
AcDbLine
10
85.039
20
18.627
11
85.01
21
18.314
0
LINE
5
16F
100
AcDbEntity
8
0
6
ByLayer
62
256
100
AcDbLine
10
85.01
20
18.314
11
84.99
21
17.686
0
LINE
5
170
100
AcDbEntity
8
0
6
ByLayer
62
256
100
AcDbLine
10
84.99
20
17.686
11
84.961
21
17.373
0
LINE
5
171
100
AcDbEntity
8
0
6
ByLayer
62
256
100
AcDbLine
10
84.961
20
17.373
11
84.911
21
17.063
0
LINE
5
172
100
AcDbEntity
8
0
6
ByLayer
62
256
100
AcDbLine
10
84.911
20
17.063
11
84.843
21
16.757
0
LINE
5
173
100
AcDbEntity
8
0
6
ByLayer
62
256
100
AcDbLine
10
84.843
20
16.757
11
84.755
21
16.455
0
LINE
5
174
100
AcDbEntity
8
0
6
ByLayer
62
256
100
AcDbLine
10
84.755
20
16.455
11
84.649
21
16.159
0
LINE
5
175
100
AcDbEntity
8
0
6
ByLayer
62
256
100
AcDbLine
10
84.649
20
16.159
11
84.524
21
15.871
0
LINE
5
176
100
AcDbEntity
8
0
6
ByLayer
62
256
100
AcDbLine
10
84.524
20
15.871
11
84.382
21
15.591
0
LINE
5
177
100
AcDbEntity
8
0
6
ByLayer
62
256
100
AcDbLine
10
84.382
20
15.591
11
84.222
21
15.321
0
LINE
5
178
100
AcDbEntity
8
0
6
ByLayer
62
256
100
AcDbLine
10
84.222
20
15.321
11
84.045
21
15.061
0
LINE
5
179
100
AcDbEntity
8
0
6
ByLayer
62
256
100
AcDbLine
10
84.045
20
15.061
11
83.853
21
14.813
0
LINE
5
17A
100
AcDbEntity
8
0
6
ByLayer
62
256
100
AcDbLine
10
83.853
20
14.813
11
83.645
21
14.577
0
LINE
5
17B
100
AcDbEntity
8
0
6
ByLayer
62
256
100
AcDbLine
10
83.645
20
14.577
11
83.423
21
14.355
0
LINE
5
17C
100
AcDbEntity
8
0
6
ByLayer
62
256
100
AcDbLine
10
83.423
20
14.355
11
83.187
21
14.147
0
LINE
5
17D
100
AcDbEntity
8
0
6
ByLayer
62
256
100
AcDbLine
10
83.187
20
14.147
11
82.939
21
13.955
0
LINE
5
17E
100
AcDbEntity
8
0
6
ByLayer
62
256
100
AcDbLine
10
82.939
20
13.955
11
82.679
21
13.778
0
LINE
5
17F
100
AcDbEntity
8
0
6
ByLayer
62
256
100
AcDbLine
10
82.679
20
13.778
11
82.409
21
13.618
0
LINE
5
180
100
AcDbEntity
8
0
6
ByLayer
62
256
100
AcDbLine
10
82.409
20
13.618
11
82.129
21
13.476
0
LINE
5
181
100
AcDbEntity
8
0
6
ByLayer
62
256
100
AcDbLine
10
82.129
20
13.476
11
81.841
21
13.351
0
LINE
5
182
100
AcDbEntity
8
0
6
ByLayer
62
256
100
AcDbLine
10
81.841
20
13.351
11
81.545
21
13.245
0
LINE
5
183
100
AcDbEntity
8
0
6
ByLayer
62
256
100
AcDbLine
10
81.545
20
13.245
11
81.243
21
13.157
0
LINE
5
184
100
AcDbEntity
8
0
6
ByLayer
62
256
100
AcDbLine
10
81.243
20
13.157
11
80.937
21
13.089
0
LINE
5
185
100
AcDbEntity
8
0
6
ByLayer
62
256
100
AcDbLine
10
80.937
20
13.089
11
80.627
21
13.039
0
LINE
5
186
100
AcDbEntity
8
0
6
ByLayer
62
256
100
AcDbLine
10
80.627
20
13.039
11
80.314
21
13.01
0
LINE
5
187
100
AcDbEntity
8
0
6
ByLayer
62
256
100
AcDbLine
10
80.314
20
13.01
11
80
21
13
0
LINE
5
188
100
AcDbEntity
8
0
6
ByLayer
62
256
100
AcDbLine
10
80
20
13
11
20.5
21
13
0
LINE
5
189
100
AcDbEntity
8
0
6
ByLayer
62
256
100
AcDbLine
10
20.5
20
13
11
20.343
21
13.005
0
LINE
5
18A
100
AcDbEntity
8
0
6
ByLayer
62
256
100
AcDbLine
10
20.343
20
13.005
11
20.187
21
13.02
0
LINE
5
18B
100
AcDbEntity
8
0
6
ByLayer
62
256
100
AcDbLine
10
20.187
20
13.02
11
20.032
21
13.044
0
LINE
5
18C
100
AcDbEntity
8
0
6
ByLayer
62
256
100
AcDbLine
10
20.032
20
13.044
11
19.878
21
13.079
0
LINE
5
18D
100
AcDbEntity
8
0
6
ByLayer
62
256
100
AcDbLine
10
19.878
20
13.079
11
19.727
21
13.122
0
LINE
5
18E
100
AcDbEntity
8
0
6
ByLayer
62
256
100
AcDbLine
10
19.727
20
13.122
11
19.58
21
13.176
0
LINE
5
18F
100
AcDbEntity
8
0
6
ByLayer
62
256
100
AcDbLine
10
19.58
20
13.176
11
19.436
21
13.238
0
LINE
5
190
100
AcDbEntity
8
0
6
ByLayer
62
256
100
AcDbLine
10
19.436
20
13.238
11
19.296
21
13.309
0
LINE
5
191
100
AcDbEntity
8
0
6
ByLayer
62
256
100
AcDbLine
10
19.296
20
13.309
11
19.16
21
13.389
0
LINE
5
192
100
AcDbEntity
8
0
6
ByLayer
62
256
100
AcDbLine
10
19.16
20
13.389
11
19.031
21
13.477
0
LINE
5
193
100
AcDbEntity
8
0
6
ByLayer
62
256
100
AcDbLine
10
19.031
20
13.477
11
18.906
21
13.574
0
LINE
5
194
100
AcDbEntity
8
0
6
ByLayer
62
256
100
AcDbLine
10
18.906
20
13.574
11
18.789
21
13.678
0
LINE
5
195
100
AcDbEntity
8
0
6
ByLayer
62
256
100
AcDbLine
10
18.789
20
13.678
11
18.678
21
13.789
0
LINE
5
196
100
AcDbEntity
8
0
6
ByLayer
62
256
100
AcDbLine
10
18.678
20
13.789
11
18.574
21
13.906
0
LINE
5
197
100
AcDbEntity
8
0
6
ByLayer
62
256
100
AcDbLine
10
18.574
20
13.906
11
18.477
21
14.031
0
LINE
5
198
100
AcDbEntity
8
0
6
ByLayer
62
256
100
AcDbLine
10
18.477
20
14.031
11
18.389
21
14.16
0
LINE
5
199
100
AcDbEntity
8
0
6
ByLayer
62
256
100
AcDbLine
10
18.389
20
14.16
11
18.309
21
14.296
0
LINE
5
19A
100
AcDbEntity
8
0
6
ByLayer
62
256
100
AcDbLine
10
18.309
20
14.296
11
18.238
21
14.436
0
LINE
5
19B
100
AcDbEntity
8
0
6
ByLayer
62
256
100
AcDbLine
10
18.238
20
14.436
11
18.176
21
14.58
0
LINE
5
19C
100
AcDbEntity
8
0
6
ByLayer
62
256
100
AcDbLine
10
18.176
20
14.58
11
18.122
21
14.727
0
LINE
5
19D
100
AcDbEntity
8
0
6
ByLayer
62
256
100
AcDbLine
10
18.122
20
14.727
11
18.079
21
14.878
0
LINE
5
19E
100
AcDbEntity
8
0
6
ByLayer
62
256
100
AcDbLine
10
18.079
20
14.878
11
18.044
21
15.032
0
LINE
5
19F
100
AcDbEntity
8
0
6
ByLayer
62
256
100
AcDbLine
10
18.044
20
15.032
11
18.02
21
15.187
0
LINE
5
1A0
100
AcDbEntity
8
0
6
ByLayer
62
256
100
AcDbLine
10
18.02
20
15.187
11
18.005
21
15.343
0
LINE
5
1A1
100
AcDbEntity
8
0
6
ByLayer
62
256
100
AcDbLine
10
18.005
20
15.343
11
17.995
21
15.657
0
LINE
5
1A2
100
AcDbEntity
8
0
6
ByLayer
62
256
100
AcDbLine
10
17.995
20
15.657
11
17.98
21
15.813
0
LINE
5
1A3
100
AcDbEntity
8
0
6
ByLayer
62
256
100
AcDbLine
10
17.98
20
15.813
11
17.956
21
15.968
0
LINE
5
1A4
100
AcDbEntity
8
0
6
ByLayer
62
256
100
AcDbLine
10
17.956
20
15.968
11
17.921
21
16.122
0
LINE
5
1A5
100
AcDbEntity
8
0
6
ByLayer
62
256
100
AcDbLine
10
17.921
20
16.122
11
17.878
21
16.273
0
LINE
5
1A6
100
AcDbEntity
8
0
6
ByLayer
62
256
100
AcDbLine
10
17.878
20
16.273
11
17.824
21
16.42
0
LINE
5
1A7
100
AcDbEntity
8
0
6
ByLayer
62
256
100
AcDbLine
10
17.824
20
16.42
11
17.762
21
16.564
0
LINE
5
1A8
100
AcDbEntity
8
0
6
ByLayer
62
256
100
AcDbLine
10
17.762
20
16.564
11
17.691
21
16.704
0
LINE
5
1A9
100
AcDbEntity
8
0
6
ByLayer
62
256
100
AcDbLine
10
17.691
20
16.704
11
17.611
21
16.84
0
LINE
5
1AA
100
AcDbEntity
8
0
6
ByLayer
62
256
100
AcDbLine
10
17.611
20
16.84
11
17.523
21
16.969
0
LINE
5
1AB
100
AcDbEntity
8
0
6
ByLayer
62
256
100
AcDbLine
10
17.523
20
16.969
11
17.426
21
17.094
0
LINE
5
1AC
100
AcDbEntity
8
0
6
ByLayer
62
256
100
AcDbLine
10
17.426
20
17.094
11
17.322
21
17.211
0
LINE
5
1AD
100
AcDbEntity
8
0
6
ByLayer
62
256
100
AcDbLine
10
17.322
20
17.211
11
17.211
21
17.322
0
LINE
5
1AE
100
AcDbEntity
8
0
6
ByLayer
62
256
100
AcDbLine
10
17.211
20
17.322
11
17.094
21
17.426
0
LINE
5
1AF
100
AcDbEntity
8
0
6
ByLayer
62
256
100
AcDbLine
10
17.094
20
17.426
11
16.969
21
17.523
0
LINE
5
1B0
100
AcDbEntity
8
0
6
ByLayer
62
256
100
AcDbLine
10
16.969
20
17.523
11
16.84
21
17.611
0
LINE
5
1B1
100
AcDbEntity
8
0
6
ByLayer
62
256
100
AcDbLine
10
16.84
20
17.611
11
16.704
21
17.691
0
LINE
5
1B2
100
AcDbEntity
8
0
6
ByLayer
62
256
100
AcDbLine
10
16.704
20
17.691
11
16.564
21
17.762
0
LINE
5
1B3
100
AcDbEntity
8
0
6
ByLayer
62
256
100
AcDbLine
10
16.564
20
17.762
11
16.42
21
17.824
0
LINE
5
1B4
100
AcDbEntity
8
0
6
ByLayer
62
256
100
AcDbLine
10
16.42
20
17.824
11
16.273
21
17.878
0
LINE
5
1B5
100
AcDbEntity
8
0
6
ByLayer
62
256
100
AcDbLine
10
16.273
20
17.878
11
16.122
21
17.921
0
LINE
5
1B6
100
AcDbEntity
8
0
6
ByLayer
62
256
100
AcDbLine
10
16.122
20
17.921
11
15.968
21
17.956
0
LINE
5
1B7
100
AcDbEntity
8
0
6
ByLayer
62
256
100
AcDbLine
10
15.968
20
17.956
11
15.813
21
17.98
0
LINE
5
1B8
100
AcDbEntity
8
0
6
ByLayer
62
256
100
AcDbLine
10
15.813
20
17.98
11
15.657
21
17.995
0
LINE
5
1B9
100
AcDbEntity
8
0
6
ByLayer
62
256
100
AcDbLine
10
15.657
20
17.995
11
15.343
21
18.005
0
LINE
5
1BA
100
AcDbEntity
8
0
6
ByLayer
62
256
100
AcDbLine
10
15.343
20
18.005
11
15.187
21
18.02
0
LINE
5
1BB
100
AcDbEntity
8
0
6
ByLayer
62
256
100
AcDbLine
10
15.187
20
18.02
11
15.032
21
18.044
0
LINE
5
1BC
100
AcDbEntity
8
0
6
ByLayer
62
256
100
AcDbLine
10
15.032
20
18.044
11
14.878
21
18.079
0
LINE
5
1BD
100
AcDbEntity
8
0
6
ByLayer
62
256
100
AcDbLine
10
14.878
20
18.079
11
14.727
21
18.122
0
LINE
5
1BE
100
AcDbEntity
8
0
6
ByLayer
62
256
100
AcDbLine
10
14.727
20
18.122
11
14.58
21
18.176
0
LINE
5
1BF
100
AcDbEntity
8
0
6
ByLayer
62
256
100
AcDbLine
10
14.58
20
18.176
11
14.436
21
18.238
0
LINE
5
1C0
100
AcDbEntity
8
0
6
ByLayer
62
256
100
AcDbLine
10
14.436
20
18.238
11
14.296
21
18.309
0
LINE
5
1C1
100
AcDbEntity
8
0
6
ByLayer
62
256
100
AcDbLine
10
14.296
20
18.309
11
14.16
21
18.389
0
LINE
5
1C2
100
AcDbEntity
8
0
6
ByLayer
62
256
100
AcDbLine
10
14.16
20
18.389
11
14.031
21
18.477
0
LINE
5
1C3
100
AcDbEntity
8
0
6
ByLayer
62
256
100
AcDbLine
10
14.031
20
18.477
11
13.906
21
18.574
0
LINE
5
1C4
100
AcDbEntity
8
0
6
ByLayer
62
256
100
AcDbLine
10
13.906
20
18.574
11
13.789
21
18.678
0
LINE
5
1C5
100
AcDbEntity
8
0
6
ByLayer
62
256
100
AcDbLine
10
13.789
20
18.678
11
13.678
21
18.789
0
LINE
5
1C6
100
AcDbEntity
8
0
6
ByLayer
62
256
100
AcDbLine
10
13.678
20
18.789
11
13.574
21
18.906
0
LINE
5
1C7
100
AcDbEntity
8
0
6
ByLayer
62
256
100
AcDbLine
10
13.574
20
18.906
11
13.477
21
19.031
0
LINE
5
1C8
100
AcDbEntity
8
0
6
ByLayer
62
256
100
AcDbLine
10
13.477
20
19.031
11
13.389
21
19.16
0
LINE
5
1C9
100
AcDbEntity
8
0
6
ByLayer
62
256
100
AcDbLine
10
13.389
20
19.16
11
13.309
21
19.296
0
LINE
5
1CA
100
AcDbEntity
8
0
6
ByLayer
62
256
100
AcDbLine
10
13.309
20
19.296
11
13.238
21
19.436
0
LINE
5
1CB
100
AcDbEntity
8
0
6
ByLayer
62
256
100
AcDbLine
10
13.238
20
19.436
11
13.176
21
19.58
0
LINE
5
1CC
100
AcDbEntity
8
0
6
ByLayer
62
256
100
AcDbLine
10
13.176
20
19.58
11
13.122
21
19.727
0
LINE
5
1CD
100
AcDbEntity
8
0
6
ByLayer
62
256
100
AcDbLine
10
13.122
20
19.727
11
13.079
21
19.878
0
LINE
5
1CE
100
AcDbEntity
8
0
6
ByLayer
62
256
100
AcDbLine
10
13.079
20
19.878
11
13.044
21
20.032
0
LINE
5
1CF
100
AcDbEntity
8
0
6
ByLayer
62
256
100
AcDbLine
10
13.044
20
20.032
11
13.02
21
20.187
0
LINE
5
1D0
100
AcDbEntity
8
0
6
ByLayer
62
256
100
AcDbLine
10
13.02
20
20.187
11
13.005
21
20.343
0
LINE
5
1D1
100
AcDbEntity
8
0
6
ByLayer
62
256
100
AcDbLine
10
13.005
20
20.343
11
13
21
20.5
0
ENDSEC
0
SECTION
2
OBJECTS
0
DICTIONARY
5
C
100
AcDbDictionary
281
1
3
ACAD_GROUP
350
D
0
DICTIONARY
5
D
330
C
100
AcDbDictionary
281
1
0
ENDSEC
0
EOF
