999
dxflib 2.2.0.0
  0
SECTION
  2
HEADER
  9
$ACADVER
  1
AC1015
  9
$HANDSEED
  5
FFFF
  9
$SPLINESEGS
 70
8
  9
$DIMEXE
 40
1.25
  9
$PSVPSCALE
 40
0.9868161364174627
  9
$DIMLUNIT
 70
2
  9
$GRIDMODE
 70
0
  9
$INSUNITS
 70
4
  9
$DIMADEC
 70
2
  9
$DIMASZ
 40
2.5
  9
$DIMGAP
 40
0.625
  9
$DIMTXT
 40
2.5
  9
$GRIDUNIT
 10
1.0
 20
1.0
  9
$DIMEXO
 40
0.625
  9
$LUPREC
 70
4
  9
$PINSBASE
 10
12.7734100865867415
 20
74.9663693060709022
 30
0.0
  9
$DIMAUNIT
 70
0
  9
$AUPREC
 70
2
  9
$PLIMMIN
 10
0.0
 20
0.0
  9
$LUNITS
 70
2
  9
$PLIMMAX
 10
420.0
 20
594.0
  9
$DIMSTYLE
  2
Standard
  9
$AUNITS
 70
0
  0
ENDSEC
  0
SECTION
  2
TABLES
  0
TABLE
  2
VPORT
  5
8
100
AcDbSymbolTable
 70
1
  0
VPORT
  5
30
100
AcDbSymbolTableRecord
100
AcDbViewportTableRecord
  2
*Active
 70
0
 10
0.0
 20
0.0
 11
1.0
 21
1.0
 12
286.3055555555554861
 22
148.5
 13
0.0
 23
0.0
 14
10.0
 24
10.0
 15
10.0
 25
10.0
 16
0.0
 26
0.0
 36
1.0
 17
0.0
 27
0.0
 37
0.0
 40
297.0
 41
1.92798353909465
 42
50.0
 43
0.0
 44
0.0
 50
0.0
 51
0.0
 71
0
 72
100
 73
1
 74
3
 75
1
 76
1
 77
0
 78
0
281
0
 65
1
110
0.0
120
0.0
130
0.0
111
1.0
121
0.0
131
0.0
112
0.0
122
1.0
132
0.0
 79
0
146
0.0
  0
ENDTAB
  0
TABLE
  2
LTYPE
  5
5
100
AcDbSymbolTable
 70
21
  0
LTYPE
  5
14
100
AcDbSymbolTableRecord
100
AcDbLinetypeTableRecord
  2
ByBlock
 70
0
  3

 72
65
 73
0
 40
0.0
  0
LTYPE
  5
15
100
AcDbSymbolTableRecord
100
AcDbLinetypeTableRecord
  2
ByLayer
 70
0
  3

 72
65
 73
0
 40
0.0
  0
LTYPE
  5
16
100
AcDbSymbolTableRecord
100
AcDbLinetypeTableRecord
  2
CONTINUOUS
 70
0
  3
Solid line
 72
65
 73
0
 40
0.0
  0
LTYPE
  5
31
100
AcDbSymbolTableRecord
100
AcDbLinetypeTableRecord
  2
DOT
 70
0
  3
Dot . . . . . . . . . . . . . . . . . . . . . .
 72
65
 73
2
 40
6.3499999999999996
 49
0.0
 74
0
 49
-6.3499999999999996
 74
0
  0
LTYPE
  5
32
100
AcDbSymbolTableRecord
100
AcDbLinetypeTableRecord
  2
DOT2
 70
0
  3
Dot (.5x) .....................................
 72
65
 73
2
 40
3.1749999999999998
 49
0.0
 74
0
 49
-3.1749999999999998
 74
0
  0
LTYPE
  5
33
100
AcDbSymbolTableRecord
100
AcDbLinetypeTableRecord
  2
DOTX2
 70
0
  3
Dot (2x) .  .  .  .  .  .  .  .  .  .  .  .  .
 72
65
 73
2
 40
12.6999999999999993
 49
0.0
 74
0
 49
-12.6999999999999993
 74
0
  0
LTYPE
  5
34
100
AcDbSymbolTableRecord
100
AcDbLinetypeTableRecord
  2
DASHED
 70
0
  3
Dashed __ __ __ __ __ __ __ __ __ __ __ __ __ _
 72
65
 73
2
 40
19.0500000000000007
 49
12.6999999999999993
 74
0
 49
-6.3499999999999996
 74
0
  0
LTYPE
  5
35
100
AcDbSymbolTableRecord
100
AcDbLinetypeTableRecord
  2
DASHED2
 70
0
  3
Dashed (.5x) _ _ _ _ _ _ _ _ _ _ _ _ _ _ _ _ _
 72
65
 73
2
 40
9.5250000000000004
 49
6.3499999999999996
 74
0
 49
-3.1749999999999998
 74
0
  0
LTYPE
  5
36
100
AcDbSymbolTableRecord
100
AcDbLinetypeTableRecord
  2
DASHEDX2
 70
0
  3
Dashed (2x) ____  ____  ____  ____  ____  ___
 72
65
 73
2
 40
38.1000000000000014
 49
25.3999999999999986
 74
0
 49
-12.6999999999999993
 74
0
  0
LTYPE
  5
37
100
AcDbSymbolTableRecord
100
AcDbLinetypeTableRecord
  2
DASHDOT
 70
0
  3
Dash dot __ . __ . __ . __ . __ . __ . __ . __
 72
65
 73
4
 40
25.3999999999999986
 49
12.6999999999999993
 74
0
 49
-6.3499999999999996
 74
0
 49
0.0
 74
0
 49
-6.3499999999999996
 74
0
  0
LTYPE
  5
38
100
AcDbSymbolTableRecord
100
AcDbLinetypeTableRecord
  2
DASHDOT2
 70
0
  3
Dash dot (.5x) _._._._._._._._._._._._._._._.
 72
65
 73
4
 40
12.6999999999999993
 49
6.3499999999999996
 74
0
 49
-3.1749999999999998
 74
0
 49
0.0
 74
0
 49
-3.1749999999999998
 74
0
  0
LTYPE
  5
39
100
AcDbSymbolTableRecord
100
AcDbLinetypeTableRecord
  2
DASHDOTX2
 70
0
  3
Dash dot (2x) ____  .  ____  .  ____  .  ___
 72
65
 73
4
 40
50.7999999999999972
 49
25.3999999999999986
 74
0
 49
-12.6999999999999993
 74
0
 49
0.0
 74
0
 49
-12.6999999999999993
 74
0
  0
LTYPE
  5
3A
100
AcDbSymbolTableRecord
100
AcDbLinetypeTableRecord
  2
DIVIDE
 70
0
  3
Divide ____ . . ____ . . ____ . . ____ . . ____
 72
65
 73
6
 40
31.75
 49
12.6999999999999993
 74
0
 49
-6.3499999999999996
 74
0
 49
0.0
 74
0
 49
-6.3499999999999996
 74
0
 49
0.0
 74
0
 49
-6.3499999999999996
 74
0
  0
LTYPE
  5
3B
100
AcDbSymbolTableRecord
100
AcDbLinetypeTableRecord
  2
DIVIDE2
 70
0
  3
Divide (.5x) __..__..__..__..__..__..__..__.._
 72
65
 73
6
 40
15.875
 49
6.3499999999999996
 74
0
 49
-3.1749999999999998
 74
0
 49
0.0
 74
0
 49
-3.1749999999999998
 74
0
 49
0.0
 74
0
 49
-3.1749999999999998
 74
0
  0
LTYPE
  5
3C
100
AcDbSymbolTableRecord
100
AcDbLinetypeTableRecord
  2
DIVIDEX2
 70
0
  3
Divide (2x) ________  .  .  ________  .  .  _
 72
65
 73
6
 40
63.5
 49
25.3999999999999986
 74
0
 49
-12.6999999999999993
 74
0
 49
0.0
 74
0
 49
-12.6999999999999993
 74
0
 49
0.0
 74
0
 49
-12.6999999999999993
 74
0
  0
LTYPE
  5
3D
100
AcDbSymbolTableRecord
100
AcDbLinetypeTableRecord
  2
CENTER
 70
0
  3
Center ____ _ ____ _ ____ _ ____ _ ____ _ ____
 72
65
 73
4
 40
50.7999999999999972
 49
31.75
 74
0
 49
-6.3499999999999996
 74
0
 49
6.3499999999999996
 74
0
 49
-6.3499999999999996
 74
0
  0
LTYPE
  5
3E
100
AcDbSymbolTableRecord
100
AcDbLinetypeTableRecord
  2
CENTER2
 70
0
  3
Center (.5x) ___ _ ___ _ ___ _ ___ _ ___ _ ___
 72
65
 73
4
 40
28.5749999999999993
 49
19.0500000000000007
 74
0
 49
-3.1749999999999998
 74
0
 49
3.1749999999999998
 74
0
 49
-3.1749999999999998
 74
0
  0
LTYPE
  5
3F
100
AcDbSymbolTableRecord
100
AcDbLinetypeTableRecord
  2
CENTERX2
 70
0
  3
Center (2x) ________  __  ________  __  _____
 72
65
 73
4
 40
101.5999999999999943
 49
63.5
 74
0
 49
-12.6999999999999993
 74
0
 49
12.6999999999999993
 74
0
 49
-12.6999999999999993
 74
0
  0
LTYPE
  5
40
100
AcDbSymbolTableRecord
100
AcDbLinetypeTableRecord
  2
BORDER
 70
0
  3
Border __ __ . __ __ . __ __ . __ __ . __ __ .
 72
65
 73
6
 40
44.4500000000000028
 49
12.6999999999999993
 74
0
 49
-6.3499999999999996
 74
0
 49
12.6999999999999993
 74
0
 49
-6.3499999999999996
 74
0
 49
0.0
 74
0
 49
-6.3499999999999996
 74
0
  0
LTYPE
  5
41
100
AcDbSymbolTableRecord
100
AcDbLinetypeTableRecord
  2
BORDER2
 70
0
  3
Border (.5x) __.__.__.__.__.__.__.__.__.__.__.
 72
65
 73
6
 40
22.2250000000000014
 49
6.3499999999999996
 74
0
 49
-3.1749999999999998
 74
0
 49
6.3499999999999996
 74
0
 49
-3.1749999999999998
 74
0
 49
0.0
 74
0
 49
-3.1749999999999998
 74
0
  0
LTYPE
  5
42
100
AcDbSymbolTableRecord
100
AcDbLinetypeTableRecord
  2
BORDERX2
 70
0
  3
Border (2x) ____  ____  .  ____  ____  .  ___
 72
65
 73
6
 40
88.9000000000000057
 49
25.3999999999999986
 74
0
 49
-12.6999999999999993
 74
0
 49
25.3999999999999986
 74
0
 49
-12.6999999999999993
 74
0
 49
0.0
 74
0
 49
-12.6999999999999993
 74
0
  0
ENDTAB
  0
TABLE
  2
LAYER
  5
2
100
AcDbSymbolTable
 70
4
  0
LAYER
  5
10
100
AcDbSymbolTableRecord
100
AcDbLayerTableRecord
  2
0
 70
0
 62
7
  6
CONTINUOUS
290
1
370
0
390
F
  0
LAYER
  5
43
100
AcDbSymbolTableRecord
100
AcDbLayerTableRecord
  2
Cut
 70
0
 62
2
  6
CONTINUOUS
290
1
370
0
390
F
  0
LAYER
  5
44
100
AcDbSymbolTableRecord
100
AcDbLayerTableRecord
  2
Etch
 70
0
 62
4
  6
CONTINUOUS
290
1
370
0
390
F
  0
LAYER
  5
45
100
AcDbSymbolTableRecord
100
AcDbLayerTableRecord
  2
Cut-Optional
 70
0
 62
3
  6
CONTINUOUS
290
1
370
0
390
F
  0
ENDTAB
  0
TABLE
  2
STYLE
  5
3
100
AcDbSymbolTable
 70
1
  0
STYLE
  5
11
100
AcDbSymbolTableRecord
100
AcDbTextStyleTableRecord
  2
Standard
 70
0
 40
0.0
 41
0.75
 50
0.0
 71
0
 42
2.5
  3
txt
  4

  0
ENDTAB
  0
TABLE
  2
VIEW
  5
6
100
AcDbSymbolTable
 70
0
  0
ENDTAB
  0
TABLE
  2
UCS
  5
7
100
AcDbSymbolTable
 70
0
  0
ENDTAB
  0
TABLE
  2
APPID
  5
9
100
AcDbSymbolTable
 70
1
  0
APPID
  5
12
100
AcDbSymbolTableRecord
100
AcDbRegAppTableRecord
  2
ACAD
 70
0
  0
ENDTAB
  0
TABLE
  2
DIMSTYLE
  5
A
100
AcDbSymbolTable
 70
1
100
AcDbDimStyleTable
 71
0
  0
DIMSTYLE
105
27
100
AcDbSymbolTableRecord
100
AcDbDimStyleTableRecord
  2
Standard
 41
2.5
 42
0.625
 43
3.75
 44
1.25
 70
0
 73
0
 74
0
 77
1
 78
8
140
2.5
141
2.5
143
0.03937007874016
147
0.625
171
3
172
1
271
2
272
2
274
3
278
44
283
0
284
8
340
11
  0
ENDTAB
  0
TABLE
  2
BLOCK_RECORD
  5
1
100
AcDbSymbolTable
 70
1
  0
BLOCK_RECORD
  5
1F
100
AcDbSymbolTableRecord
100
AcDbBlockTableRecord
  2
*Model_Space
340
22
  0
BLOCK_RECORD
  5
1B
100
AcDbSymbolTableRecord
100
AcDbBlockTableRecord
  2
*Paper_Space
340
1E
  0
BLOCK_RECORD
  5
23
100
AcDbSymbolTableRecord
100
AcDbBlockTableRecord
  2
*Paper_Space0
340
26
  0
BLOCK_RECORD
  5
46
100
AcDbSymbolTableRecord
100
AcDbBlockTableRecord
  2
1
340
0
  0
BLOCK_RECORD
  5
47
100
AcDbSymbolTableRecord
100
AcDbBlockTableRecord
  2
2
340
0
  0
BLOCK_RECORD
  5
48
100
AcDbSymbolTableRecord
100
AcDbBlockTableRecord
  2
3
340
0
  0
BLOCK_RECORD
  5
49
100
AcDbSymbolTableRecord
100
AcDbBlockTableRecord
  2
4
340
0
  0
ENDTAB
  0
ENDSEC
  0
SECTION
  2
BLOCKS
  0
BLOCK
  5
20
100
AcDbEntity
  8
0
100
AcDbBlockBegin
  2
*Model_Space
 70
0
 10
0.0
 20
0.0
 30
0.0
  3
*Model_Space
  1

  0
ENDBLK
  5
21
100
AcDbEntity
  8
0
100
AcDbBlockEnd
  0
BLOCK
  5
1C
100
AcDbEntity
 67
1
  8
0
100
AcDbBlockBegin
  2
*Paper_Space
 70
0
 10
0.0
 20
0.0
 30
0.0
  3
*Paper_Space
  1

  0
ENDBLK
  5
1D
100
AcDbEntity
 67
1
  8
0
100
AcDbBlockEnd
  0
BLOCK
  5
24
100
AcDbEntity
  8
0
100
AcDbBlockBegin
  2
*Paper_Space0
 70
0
 10
0.0
 20
0.0
 30
0.0
  3
*Paper_Space0
  1

  0
ENDBLK
  5
25
100
AcDbEntity
  8
0
100
AcDbBlockEnd
  0
BLOCK
  5
4A
100
AcDbEntity
  8
0
100
AcDbBlockBegin
  2
1
 70
0
 10
0.0
 20
0.0
 30
0.0
  3
1
  1

  0
ENDBLK
  5
4B
100
AcDbEntity
  8
0
100
AcDbBlockEnd
  0
BLOCK
  5
4C
100
AcDbEntity
  8
0
100
AcDbBlockBegin
  2
2
 70
0
 10
0.0
 20
0.0
 30
0.0
  3
2
  1

  0
ENDBLK
  5
4D
100
AcDbEntity
  8
0
100
AcDbBlockEnd
  0
BLOCK
  5
4E
100
AcDbEntity
  8
0
100
AcDbBlockBegin
  2
3
 70
0
 10
0.0
 20
0.0
 30
0.0
  3
3
  1

  0
ENDBLK
  5
4F
100
AcDbEntity
  8
0
100
AcDbBlockEnd
  0
BLOCK
  5
50
100
AcDbEntity
  8
0
100
AcDbBlockBegin
  2
4
 70
0
 10
0.0
 20
0.0
 30
0.0
  3
4
  1

  0
ENDBLK
  5
51
100
AcDbEntity
  8
0
100
AcDbBlockEnd
  0
ENDSEC
  0
SECTION
  2
ENTITIES
  0
IMAGE
  5
52
  8
Etch
 62
256
370
-1
  6
ByLayer
100
AcDbEntity
100
AcDbRasterImage
 90
0
 10
15.9399414062529061
 20
216.7565917968981637
 30
0.0
 11
1.0
 21
0.0
 31
0.0
 12
0.0000000000000001
 22
1.0
 32
0.0
 13
1.0
 23
1.0
340
53
 70
15
280
0
281
50
282
50
283
0
  0
LINE
  5
54
100
AcDbEntity
100
AcDbLine
  8
Cut
 62
256
370
-1
  6
ByLayer
 10
390.0
 20
460.0
 30
0.0
 11
390.0
 21
460.0
 31
0.0
  0
ARC
  5
55
100
AcDbEntity
  8
Cut
 62
256
370
-1
  6
ByLayer
100
AcDbCircle
 10
45.0000000000000071
 20
415.0
 30
0.0
 40
45.2769256906870865
100
AcDbArc
 50
96.3401917459099195
 51
186.3401917459098911
  0
LINE
  5
56
100
AcDbEntity
100
AcDbLine
  8
Cut
 62
256
370
-1
  6
ByLayer
 10
0.0
 20
410.0
 30
0.0
 11
0.0
 21
0.0
 31
0.0
  0
ARC
  5
57
100
AcDbEntity
  8
Cut
 62
256
370
-1
  6
ByLayer
100
AcDbCircle
 10
355.0
 20
415.0
 30
0.0
 40
45.2769256906870865
100
AcDbArc
 50
353.6598082540900805
 51
83.6598082540900805
  0
LINE
  5
58
100
AcDbEntity
100
AcDbLine
  8
Cut
 62
256
370
-1
  6
ByLayer
 10
400.0
 20
0.0
 30
0.0
 11
400.0
 21
410.0
 31
0.0
  0
LINE
  5
59
100
AcDbEntity
100
AcDbLine
  8
Cut
 62
256
370
-1
  6
ByLayer
 10
0.0
 20
0.0
 30
0.0
 11
400.0
 21
0.0
 31
0.0
  0
LINE
  5
5A
100
AcDbEntity
100
AcDbLine
  8
Cut
 62
256
370
-1
  6
ByLayer
 10
360.0
 20
460.0
 30
0.0
 11
40.0
 21
460.0
 31
0.0
  0
CIRCLE
  5
5B
100
AcDbEntity
100
AcDbCircle
  8
Cut
 62
256
370
-1
  6
ByLayer
 10
60.0
 20
40.0
 30
0.0
 40
2.0
  0
CIRCLE
  5
5C
100
AcDbEntity
100
AcDbCircle
  8
Cut
 62
256
370
-1
  6
ByLayer
 10
340.0
 20
40.0
 30
0.0
 40
2.0
  0
CIRCLE
  5
5D
100
AcDbEntity
100
AcDbCircle
  8
Cut
 62
256
370
-1
  6
ByLayer
 10
180.0
 20
170.0
 30
0.0
 40
2.0
  0
CIRCLE
  5
5E
100
AcDbEntity
100
AcDbCircle
  8
Cut
 62
256
370
-1
  6
ByLayer
 10
220.0
 20
170.0
 30
0.0
 40
2.0
  0
ARC
  5
5F
100
AcDbEntity
  8
Cut
 62
256
370
-1
  6
ByLayer
100
AcDbCircle
 10
200.0
 20
39.9999999999999787
 30
0.0
 40
160.0
100
AcDbArc
 50
0.0
 51
180.0
  0
CIRCLE
  5
60
100
AcDbEntity
100
AcDbCircle
  8
Cut
 62
256
370
-1
  6
ByLayer
 10
200.0
 20
39.9999999999999787
 30
0.0
 40
13.0
  0
CIRCLE
  5
61
100
AcDbEntity
100
AcDbCircle
  8
Cut
 62
256
370
-1
  6
ByLayer
 10
302.5304832720494801
 20
142.5304832720494801
 30
0.0
 40
2.0
  0
CIRCLE
  5
62
100
AcDbEntity
100
AcDbCircle
  8
Cut
 62
256
370
-1
  6
ByLayer
 10
97.4695167279505341
 20
142.5304832720494801
 30
0.0
 40
2.0
  0
CIRCLE
  5
63
100
AcDbEntity
100
AcDbCircle
  8
Cut
 62
256
370
-1
  6
ByLayer
 10
50.0
 20
280.0
 30
0.0
 40
2.0
  0
CIRCLE
  5
64
100
AcDbEntity
100
AcDbCircle
  8
Cut
 62
256
370
-1
  6
ByLayer
 10
350.0
 20
280.0
 30
0.0
 40
2.0
  0
CIRCLE
  5
65
100
AcDbEntity
100
AcDbCircle
  8
Cut
 62
256
370
-1
  6
ByLayer
 10
270.0
 20
430.0
 30
0.0
 40
2.0
  0
CIRCLE
  5
66
100
AcDbEntity
100
AcDbCircle
  8
Cut
 62
256
370
-1
  6
ByLayer
 10
130.0
 20
430.0
 30
0.0
 40
2.0
  0
CIRCLE
  5
67
100
AcDbEntity
100
AcDbCircle
  8
Cut
 62
256
370
-1
  6
ByLayer
 10
200.0
 20
280.0
 30
0.0
 40
8.0
  0
LINE
  5
68
100
AcDbEntity
100
AcDbLine
  8
Etch
 62
256
370
-1
  6
ByLayer
 10
50.0
 20
20.0
 30
0.0
 11
350.0
 21
20.0
 31
0.0
  0
CIRCLE
  5
69
100
AcDbEntity
100
AcDbCircle
  8
Cut-Optional
 62
256
370
-1
  6
ByLayer
 10
295.0
 20
40.0
 30
0.0
 40
6.0
  0
CIRCLE
  5
6A
100
AcDbEntity
100
AcDbCircle
  8
Cut-Optional
 62
256
370
-1
  6
ByLayer
 10
105.0
 20
40.0
 30
0.0
 40
6.0
  0
CIRCLE
  5
6B
100
AcDbEntity
100
AcDbCircle
  8
Cut-Optional
 62
256
370
-1
  6
ByLayer
 10
105.0
 20
280.0
 30
0.0
 40
6.0
  0
CIRCLE
  5
6C
100
AcDbEntity
100
AcDbCircle
  8
Cut-Optional
 62
256
370
-1
  6
ByLayer
 10
295.0
 20
280.0
 30
0.0
 40
6.0
  0
LINE
  5
6D
100
AcDbEntity
100
AcDbLine
  8
Cut
 62
256
370
-1
  6
ByLayer
 10
40.0
 20
40.0
 30
0.0
 11
40.0
 21
0.0
 31
0.0
  0
LINE
  5
6E
100
AcDbEntity
100
AcDbLine
  8
Cut
 62
256
370
-1
  6
ByLayer
 10
360.0
 20
40.0
 30
0.0
 11
360.0
 21
0.0
 31
0.0
  0
CIRCLE
  5
6F
100
AcDbEntity
100
AcDbCircle
  8
Cut
 62
256
370
-1
  6
ByLayer
 10
185.0
 20
95.0
 30
0.0
 40
2.5
  0
CIRCLE
  5
70
100
AcDbEntity
100
AcDbCircle
  8
Cut
 62
256
370
-1
  6
ByLayer
 10
215.0
 20
95.0
 30
0.0
 40
2.5
  0
CIRCLE
  5
71
100
AcDbEntity
100
AcDbCircle
  8
Cut
 62
256
370
-1
  6
ByLayer
 10
185.0
 20
65.0
 30
0.0
 40
2.5
  0
CIRCLE
  5
72
100
AcDbEntity
100
AcDbCircle
  8
Cut
 62
256
370
-1
  6
ByLayer
 10
215.0
 20
65.0
 30
0.0
 40
2.5
  0
CIRCLE
  5
73
100
AcDbEntity
100
AcDbCircle
  8
Cut
 62
256
370
-1
  6
ByLayer
 10
200.0
 20
80.0
 30
0.0
 40
13.0
  0
LINE
  5
74
100
AcDbEntity
100
AcDbLine
  8
Etch
 62
256
370
-1
  6
ByLayer
 10
231.7299910581225504
 20
100.2233219076007344
 30
0.0
 11
231.7299910581225504
 21
106.2233219076007344
 31
0.0
  0
LINE
  5
75
100
AcDbEntity
100
AcDbLine
  8
Etch
 62
256
370
-1
  6
ByLayer
 10
231.7299910581225504
 20
106.2233219076007344
 30
0.0
 11
275.9999910581225322
 21
106.2233219076007344
 31
0.0
  0
LINE
  5
76
100
AcDbEntity
100
AcDbLine
  8
Etch
 62
256
370
-1
  6
ByLayer
 10
275.9999910581225322
 20
106.2233219076007344
 30
0.0
 11
275.3849910581225799
 21
107.1273219076007308
 31
0.0
  0
LINE
  5
77
100
AcDbEntity
100
AcDbLine
  8
Etch
 62
256
370
-1
  6
ByLayer
 10
269.7249910581225549
 20
114.4243219076007279
 30
0.0
 11
263.6179910581225272
 21
121.3513219076007346
 31
0.0
  0
LINE
  5
78
100
AcDbEntity
100
AcDbLine
  8
Etch
 62
256
370
-1
  6
ByLayer
 10
257.0879910581225545
 20
127.8813219076007357
 30
0.0
 11
250.1609910581225336
 21
133.9883219076007208
 31
0.0
  0
LINE
  5
79
100
AcDbEntity
100
AcDbLine
  8
Etch
 62
256
370
-1
  6
ByLayer
 10
250.1609910581225336
 20
133.9883219076007208
 30
0.0
 11
244.3669910581225508
 21
138.4833219076007254
 31
0.0
  0
LINE
  5
7A
100
AcDbEntity
100
AcDbLine
  8
Etch
 62
256
370
-1
  6
ByLayer
 10
244.3669910581225508
 20
138.4833219076007254
 30
0.0
 11
249.6589910581225524
 21
141.968321907600739
 31
0.0
  0
LINE
  5
7B
100
AcDbEntity
100
AcDbLine
  8
Etch
 62
256
370
-1
  6
ByLayer
 10
249.6589910581225524
 20
141.968321907600739
 30
0.0
 11
253.985991058122579
 21
138.6123219076007445
 31
0.0
  0
LINE
  5
7C
100
AcDbEntity
100
AcDbLine
  8
Etch
 62
256
370
-1
  6
ByLayer
 10
253.985991058122579
 20
138.6123219076007445
 30
0.0
 11
261.1959910581225586
 21
132.2553219076007736
 31
0.0
  0
LINE
  5
7D
100
AcDbEntity
100
AcDbLine
  8
Etch
 62
256
370
-1
  6
ByLayer
 10
261.1959910581225586
 20
132.2553219076007736
 30
0.0
 11
267.9919910581225508
 21
125.4593219076007387
 31
0.0
  0
LINE
  5
7E
100
AcDbEntity
100
AcDbLine
  8
Etch
 62
256
370
-1
  6
ByLayer
 10
278.7299910581225504
 20
153.2233219076007344
 30
0.0
 11
284.7299910581225504
 21
153.2233219076007344
 31
0.0
  0
LINE
  5
7F
100
AcDbEntity
100
AcDbLine
  8
Etch
 62
256
370
-1
  6
ByLayer
 10
284.7299910581225504
 20
153.2233219076007344
 30
0.0
 11
284.7299910581225504
 21
112.6003219076007298
 31
0.0
  0
LINE
  5
80
100
AcDbEntity
100
AcDbLine
  8
Etch
 62
256
370
-1
  6
ByLayer
 10
302.2639910581225422
 20
132.2553219076007736
 30
0.0
 11
309.4739910581225217
 21
138.6123219076007445
 31
0.0
  0
LINE
  5
81
100
AcDbEntity
100
AcDbLine
  8
Etch
 62
256
370
-1
  6
ByLayer
 10
309.4739910581225217
 20
138.6123219076007445
 30
0.0
 11
313.8009910581225199
 21
141.968321907600739
 31
0.0
  0
LINE
  5
82
100
AcDbEntity
100
AcDbLine
  8
Etch
 62
256
370
-1
  6
ByLayer
 10
313.8009910581225199
 20
141.968321907600739
 30
0.0
 11
319.0929910581225499
 21
138.4833219076007254
 31
0.0
  0
LINE
  5
83
100
AcDbEntity
100
AcDbLine
  8
Etch
 62
256
370
-1
  6
ByLayer
 10
319.0929910581225499
 20
138.4833219076007254
 30
0.0
 11
313.2989910581225672
 21
133.9883219076007208
 31
0.0
  0
LINE
  5
84
100
AcDbEntity
100
AcDbLine
  8
Etch
 62
256
370
-1
  6
ByLayer
 10
313.2989910581225672
 20
133.9883219076007208
 30
0.0
 11
306.3719910581225463
 21
127.8813219076007357
 31
0.0
  0
LINE
  5
85
100
AcDbEntity
100
AcDbLine
  8
Etch
 62
256
370
-1
  6
ByLayer
 10
306.3719910581225463
 20
127.8813219076007357
 30
0.0
 11
299.8419910581225736
 21
121.3513219076007346
 31
0.0
  0
LINE
  5
86
100
AcDbEntity
100
AcDbLine
  8
Etch
 62
256
370
-1
  6
ByLayer
 10
293.7349910581225458
 20
114.4243219076007279
 30
0.0
 11
288.0749910581225208
 21
107.1273219076007308
 31
0.0
  0
LINE
  5
87
100
AcDbEntity
100
AcDbLine
  8
Etch
 62
256
370
-1
  6
ByLayer
 10
288.0749910581225208
 20
107.1273219076007308
 30
0.0
 11
287.4599910581225686
 21
106.2233219076007344
 31
0.0
  0
LINE
  5
88
100
AcDbEntity
100
AcDbLine
  8
Etch
 62
256
370
-1
  6
ByLayer
 10
287.4599910581225686
 20
106.2233219076007344
 30
0.0
 11
331.7299910581225504
 21
106.2233219076007344
 31
0.0
  0
LINE
  5
89
100
AcDbEntity
100
AcDbLine
  8
Etch
 62
256
370
-1
  6
ByLayer
 10
331.7299910581225504
 20
106.2233219076007344
 30
0.0
 11
331.7299910581225504
 21
100.2233219076007344
 31
0.0
  0
LINE
  5
8A
100
AcDbEntity
100
AcDbLine
  8
Etch
 62
256
370
-1
  6
ByLayer
 10
331.7299910581225504
 20
100.2233219076007344
 30
0.0
 11
287.1099910581225458
 21
100.2233219076007344
 31
0.0
  0
LINE
  5
8B
100
AcDbEntity
100
AcDbLine
  8
Etch
 62
256
370
-1
  6
ByLayer
 10
287.1099910581225458
 20
100.2233219076007344
 30
0.0
 11
290.5349910581225572
 21
94.4313219076007329
 31
0.0
  0
LINE
  5
8C
100
AcDbEntity
100
AcDbLine
  8
Etch
 62
256
370
-1
  6
ByLayer
 10
301.971991058122569
 20
68.0033219076007356
 30
0.0
 11
304.6529910581225522
 21
58.7733219076007316
 31
0.0
  0
LINE
  5
8D
100
AcDbEntity
100
AcDbLine
  8
Etch
 62
256
370
-1
  6
ByLayer
 10
304.6529910581225522
 20
58.7733219076007316
 30
0.0
 11
304.7169910581225736
 21
58.4893219076007327
 31
0.0
  0
LINE
  5
8E
100
AcDbEntity
100
AcDbLine
  8
Etch
 62
256
370
-1
  6
ByLayer
 10
304.7169910581225736
 20
58.4893219076007327
 30
0.0
 11
299.3599910581225458
 21
54.9623219076007317
 31
0.0
  0
LINE
  5
8F
100
AcDbEntity
100
AcDbLine
  8
Etch
 62
256
370
-1
  6
ByLayer
 10
299.3599910581225458
 20
54.9623219076007317
 30
0.0
 11
298.8419910581225736
 21
57.2803219076007366
 31
0.0
  0
LINE
  5
90
100
AcDbEntity
100
AcDbLine
  8
Etch
 62
256
370
-1
  6
ByLayer
 10
298.8419910581225736
 20
57.2803219076007366
 30
0.0
 11
296.2649910581225754
 21
66.1483219076007316
 31
0.0
  0
LINE
  5
91
100
AcDbEntity
100
AcDbLine
  8
Etch
 62
256
370
-1
  6
ByLayer
 10
289.4699910581225595
 20
83.3133219076007379
 30
0.0
 11
285.276991058122519
 21
91.5413219076007323
 31
0.0
  0
LINE
  5
92
100
AcDbEntity
100
AcDbLine
  8
Etch
 62
256
370
-1
  6
ByLayer
 10
285.276991058122519
 20
91.5413219076007323
 30
0.0
 11
284.7299910581225504
 21
92.4663219076007294
 31
0.0
  0
LINE
  5
93
100
AcDbEntity
100
AcDbLine
  8
Etch
 62
256
370
-1
  6
ByLayer
 10
284.7299910581225504
 20
92.4663219076007294
 30
0.0
 11
284.7299910581225504
 21
53.2233219076007344
 31
0.0
  0
LINE
  5
94
100
AcDbEntity
100
AcDbLine
  8
Etch
 62
256
370
-1
  6
ByLayer
 10
284.7299910581225504
 20
53.2233219076007344
 30
0.0
 11
278.7299910581225504
 21
53.2233219076007344
 31
0.0
  0
LINE
  5
95
100
AcDbEntity
100
AcDbLine
  8
Etch
 62
256
370
-1
  6
ByLayer
 10
270.3229910581225681
 20
74.8373219076007388
 30
0.0
 11
267.1949910581225254
 21
66.1483219076007316
 31
0.0
  0
LINE
  5
96
100
AcDbEntity
100
AcDbLine
  8
Etch
 62
256
370
-1
  6
ByLayer
 10
267.1949910581225254
 20
66.1483219076007316
 30
0.0
 11
264.6179910581225272
 21
57.2803219076007366
 31
0.0
  0
LINE
  5
97
100
AcDbEntity
100
AcDbLine
  8
Etch
 62
256
370
-1
  6
ByLayer
 10
264.6179910581225272
 20
57.2803219076007366
 30
0.0
 11
264.0999910581225549
 21
54.9623219076007317
 31
0.0
  0
LINE
  5
98
100
AcDbEntity
100
AcDbLine
  8
Etch
 62
256
370
-1
  6
ByLayer
 10
264.0999910581225549
 20
54.9623219076007317
 30
0.0
 11
258.7429910581225272
 21
58.4893219076007327
 31
0.0
  0
LINE
  5
99
100
AcDbEntity
100
AcDbLine
  8
Etch
 62
256
370
-1
  6
ByLayer
 10
258.7429910581225272
 20
58.4893219076007327
 30
0.0
 11
258.8069910581225486
 21
58.7733219076007316
 31
0.0
  0
LINE
  5
9A
100
AcDbEntity
100
AcDbLine
  8
Etch
 62
256
370
-1
  6
ByLayer
 10
258.8069910581225486
 20
58.7733219076007316
 30
0.0
 11
261.4879910581225317
 21
68.0033219076007356
 31
0.0
  0
LINE
  5
9B
100
AcDbEntity
100
AcDbLine
  8
Etch
 62
256
370
-1
  6
ByLayer
 10
261.4879910581225317
 20
68.0033219076007356
 30
0.0
 11
264.7439910581225604
 21
77.0463219076007277
 31
0.0
  0
LINE
  5
9C
100
AcDbEntity
100
AcDbLine
  8
Etch
 62
256
370
-1
  6
ByLayer
 10
264.7439910581225604
 20
77.0463219076007277
 30
0.0
 11
268.5609910581225677
 21
85.8673219076007399
 31
0.0
  0
LINE
  5
9D
100
AcDbEntity
100
AcDbLine
  8
Etch
 62
256
370
-1
  6
ByLayer
 10
268.5609910581225677
 20
85.8673219076007399
 30
0.0
 11
272.9249910581225436
 21
94.4313219076007329
 31
0.0
  0
LINE
  5
9E
100
AcDbEntity
100
AcDbLine
  8
Etch
 62
256
370
-1
  6
ByLayer
 10
272.9249910581225436
 20
94.4313219076007329
 30
0.0
 11
276.3499910581225549
 21
100.2233219076007344
 31
0.0
  0
LINE
  5
9F
100
AcDbEntity
100
AcDbLine
  8
Etch
 62
256
370
-1
  6
ByLayer
 10
276.3499910581225549
 20
100.2233219076007344
 30
0.0
 11
231.7299910581225504
 21
100.2233219076007344
 31
0.0
  0
ARC
  5
A0
100
AcDbEntity
  8
Cut
 62
256
370
-1
  6
ByLayer
100
AcDbCircle
 10
0.0
 20
0.0
 30
0.0
 40
0.0
100
AcDbArc
 50
0.0
 51
0.0
  0
ARC
  5
A1
100
AcDbEntity
  8
Cut
 62
256
370
-1
  6
ByLayer
100
AcDbCircle
 10
120.0
 20
90.0
 30
0.0
 40
42.0
100
AcDbArc
 50
130.0000000000000568
 51
170.0
  0
ARC
  5
A2
100
AcDbEntity
  8
Cut
 62
256
370
-1
  6
ByLayer
100
AcDbCircle
 10
120.0
 20
90.0
 30
0.0
 40
38.0
100
AcDbArc
 50
130.0000000000000568
 51
170.0
  0
LINE
  5
A3
100
AcDbEntity
100
AcDbLine
  8
Cut
 62
256
370
-1
  6
ByLayer
 10
95.5740708319114987
 20
119.1096888385211656
 30
0.0
 11
93.0029203931653399
 21
122.1738666109970666
 31
0.0
  0
LINE
  5
A4
100
AcDbEntity
100
AcDbLine
  8
Cut
 62
256
370
-1
  6
ByLayer
 10
82.5773053855360928
 20
96.5986307513433644
 30
0.0
 11
78.6380743734872567
 21
97.2932234620110847
 31
0.0
  0
LINE
  5
A5
100
AcDbEntity
100
AcDbLine
  8
Cut
 62
256
370
-1
  6
ByLayer
 10
144.4259291680884871
 20
60.8903111614788344
 30
0.0
 11
146.9970796068346601
 21
57.8261333890029263
 31
0.0
  0
LINE
  5
A6
100
AcDbEntity
100
AcDbLine
  8
Cut
 62
256
370
-1
  6
ByLayer
 10
157.4226946144639214
 20
83.4013692486566498
 30
0.0
 11
161.3619256265127433
 21
82.7067765379889295
 31
0.0
  0
ARC
  5
A7
100
AcDbEntity
  8
Cut
 62
256
370
-1
  6
ByLayer
100
AcDbCircle
 10
120.0
 20
90.0
 30
0.0
 40
38.0
100
AcDbArc
 50
310.0
 51
350.0
  0
ARC
  5
A8
100
AcDbEntity
  8
Cut
 62
256
370
-1
  6
ByLayer
100
AcDbCircle
 10
120.0
 20
90.0
 30
0.0
 40
42.0
100
AcDbArc
 50
310.0
 51
350.0
  0
CIRCLE
  5
A9
100
AcDbEntity
100
AcDbCircle
  8
Cut
 62
256
370
-1
  6
ByLayer
 10
250.0
 20
220.0
 30
0.0
 40
2.0
  0
CIRCLE
  5
AA
100
AcDbEntity
100
AcDbCircle
  8
Cut
 62
256
370
-1
  6
ByLayer
 10
150.0
 20
220.0
 30
0.0
 40
2.0
  0
CIRCLE
  5
AB
100
AcDbEntity
100
AcDbCircle
  8
Cut
 62
256
370
-1
  6
ByLayer
 10
72.725933896874551
 20
240.7055236082016734
 30
0.0
 40
2.0
  0
CIRCLE
  5
AC
100
AcDbEntity
100
AcDbCircle
  8
Cut
 62
256
370
-1
  6
ByLayer
 10
327.274066103125449
 20
240.7055236082016449
 30
0.0
 40
2.0
  0
CIRCLE
  5
AD
100
AcDbEntity
100
AcDbCircle
  8
Cut
 62
256
370
-1
  6
ByLayer
 10
190.0
 20
210.0
 30
0.0
 40
2.0
  0
CIRCLE
  5
AE
100
AcDbEntity
100
AcDbCircle
  8
Cut
 62
256
370
-1
  6
ByLayer
 10
210.0
 20
210.0
 30
0.0
 40
2.0
  0
CIRCLE
  5
AF
100
AcDbEntity
100
AcDbCircle
  8
Cut
 62
256
370
-1
  6
ByLayer
 10
297.0
 20
289.0
 30
0.0
 40
2.0
  0
CIRCLE
  5
B0
100
AcDbEntity
100
AcDbCircle
  8
Cut
 62
256
370
-1
  6
ByLayer
 10
297.0
 20
271.0
 30
0.0
 40
2.0
  0
CIRCLE
  5
B1
100
AcDbEntity
100
AcDbCircle
  8
Cut
 62
256
370
-1
  6
ByLayer
 10
103.0
 20
271.0
 30
0.0
 40
2.0
  0
CIRCLE
  5
B2
100
AcDbEntity
100
AcDbCircle
  8
Cut
 62
256
370
-1
  6
ByLayer
 10
103.0
 20
289.0
 30
0.0
 40
2.0
  0
CIRCLE
  5
B3
100
AcDbEntity
100
AcDbCircle
  8
Cut
 62
256
370
-1
  6
ByLayer
 10
297.0
 20
49.0
 30
0.0
 40
2.0
  0
CIRCLE
  5
B4
100
AcDbEntity
100
AcDbCircle
  8
Cut
 62
256
370
-1
  6
ByLayer
 10
297.0
 20
31.0
 30
0.0
 40
2.0
  0
CIRCLE
  5
B5
100
AcDbEntity
100
AcDbCircle
  8
Cut
 62
256
370
-1
  6
ByLayer
 10
103.0
 20
31.0
 30
0.0
 40
2.0
  0
CIRCLE
  5
B6
100
AcDbEntity
100
AcDbCircle
  8
Cut
 62
256
370
-1
  6
ByLayer
 10
103.0
 20
49.0
 30
0.0
 40
2.0
  0
ARC
  5
B7
100
AcDbEntity
  8
Cut-Optional
 62
256
370
-1
  6
ByLayer
100
AcDbCircle
 10
0.0
 20
0.0
 30
0.0
 40
0.0
100
AcDbArc
 50
0.0
 51
0.0
  0
ARC
  5
B8
100
AcDbEntity
  8
Cut
 62
256
370
-1
  6
ByLayer
100
AcDbCircle
 10
10.0
 20
10.0
 30
0.0
 40
10.0
100
AcDbArc
 50
180.0
 51
270.0
  0
ARC
  5
B9
100
AcDbEntity
  8
Cut
 62
256
370
-1
  6
ByLayer
100
AcDbCircle
 10
0.0
 20
0.0
 30
0.0
 40
0.0
100
AcDbArc
 50
0.0
 51
0.0
  0
ARC
  5
BA
100
AcDbEntity
  8
Cut
 62
256
370
-1
  6
ByLayer
100
AcDbCircle
 10
50.0
 20
10.0
 30
0.0
 40
10.0
100
AcDbArc
 50
180.0
 51
270.0
  0
ARC
  5
BB
100
AcDbEntity
  8
Cut
 62
256
370
-1
  6
ByLayer
100
AcDbCircle
 10
350.0
 20
10.0
 30
0.0
 40
10.0
100
AcDbArc
 50
270.0
 51
0.0
  0
ARC
  5
BC
100
AcDbEntity
  8
Cut
 62
256
370
-1
  6
ByLayer
100
AcDbCircle
 10
390.0
 20
10.0
 30
0.0
 40
10.0
100
AcDbArc
 50
270.0
 51
0.0
  0
ARC
  5
BD
100
AcDbEntity
  8
Cut
 62
256
370
-1
  6
ByLayer
100
AcDbCircle
 10
370.0
 20
10.0
 30
0.0
 40
10.0
100
AcDbArc
 50
180.0
 51
270.0
  0
ARC
  5
BE
100
AcDbEntity
  8
Cut
 62
256
370
-1
  6
ByLayer
100
AcDbCircle
 10
30.0
 20
10.0
 30
0.0
 40
10.0
100
AcDbArc
 50
270.0
 51
0.0
  0
MTEXT
  5
BF
100
AcDbEntity
100
AcDbMText
  8
Etch
 62
256
370
-1
  6
ByLayer
 10
232.7822116244414019
 20
97.4371862891208309
 30
0.0
 40
20.0
 41
100.0
 71
1
 72
2
  1
Morgan
  7
kochigothic
 50
0.0
 73
0
 44
1.0
  0
LINE
  5
C0
100
AcDbEntity
100
AcDbLine
  8
Etch
 62
256
370
-1
  6
ByLayer
 10
267.9919910581225508
 20
125.4593219076007387
 30
0.0
 11
270.6997417585705534
 21
122.3882376618511358
 31
0.0
  0
LINE
  5
C1
100
AcDbEntity
100
AcDbLine
  8
Etch
 62
256
370
-1
  6
ByLayer
 10
272.6717417585704766
 20
120.1516291987396841
 30
0.0
 11
274.3489910581225217
 21
118.2493219076007307
 31
0.0
  0
LINE
  5
C2
100
AcDbEntity
100
AcDbLine
  8
Etch
 62
256
370
-1
  6
ByLayer
 10
275.3849910581225799
 20
107.1273219076007308
 30
0.0
 11
272.400595979157174
 21
110.9748715350230555
 31
0.0
  0
LINE
  5
C3
100
AcDbEntity
100
AcDbLine
  8
Etch
 62
256
370
-1
  6
ByLayer
 10
270.6997417585705534
 20
113.1676512607510716
 30
0.0
 11
269.7249910581225549
 21
114.4243219076007279
 31
0.0
  0
LINE
  5
C4
100
AcDbEntity
100
AcDbLine
  8
Etch
 62
256
370
-1
  6
ByLayer
 10
278.7299910581225504
 20
112.6003219076007298
 30
0.0
 11
278.7299910581225504
 21
116.9848873870153625
 31
0.0
  0
LINE
  5
C5
100
AcDbEntity
100
AcDbLine
  8
Etch
 62
256
370
-1
  6
ByLayer
 10
278.7299910581225504
 20
126.4508639300060793
 30
0.0
 11
278.7299910581225504
 21
153.2233219076007344
 31
0.0
  0
LINE
  5
C6
100
AcDbEntity
100
AcDbLine
  8
Etch
 62
256
370
-1
  6
ByLayer
 10
276.5446837466081433
 20
115.4181262907883223
 30
0.0
 11
278.7299910581225504
 21
112.6003219076007298
 31
0.0
  0
LINE
  5
C7
100
AcDbEntity
100
AcDbLine
  8
Etch
 62
256
370
-1
  6
ByLayer
 10
274.3489910581225217
 20
118.2493219076007307
 30
0.0
 11
274.9977203793619083
 21
117.4128297971964088
 31
0.0
  0
LINE
  5
C8
100
AcDbEntity
100
AcDbLine
  8
Etch
 62
256
370
-1
  6
ByLayer
 10
284.7299910581225504
 20
112.6003219076007298
 30
0.0
 11
286.8079639807927492
 21
115.2797259341161151
 31
0.0
  0
LINE
  5
C9
100
AcDbEntity
100
AcDbLine
  8
Etch
 62
256
370
-1
  6
ByLayer
 10
288.7686306474593607
 20
117.8078715629678754
 30
0.0
 11
289.110991058122579
 21
118.2493219076007307
 31
0.0
  0
LINE
  5
CA
100
AcDbEntity
100
AcDbLine
  8
Etch
 62
256
370
-1
  6
ByLayer
 10
289.110991058122579
 20
118.2493219076007307
 30
0.0
 11
292.3034999344196763
 21
121.8702105340129123
 31
0.0
  0
LINE
  5
CB
100
AcDbEntity
100
AcDbLine
  8
Etch
 62
256
370
-1
  6
ByLayer
 10
298.0713104680942251
 20
128.0626413175724565
 30
0.0
 11
302.2639910581225422
 21
132.2553219076007736
 31
0.0
  0
LINE
  5
CC
100
AcDbEntity
100
AcDbLine
  8
Etch
 62
256
370
-1
  6
ByLayer
 10
295.0854643514669533
 20
115.9561261491263195
 30
0.0
 11
293.7349910581225458
 21
114.4243219076007279
 31
0.0
  0
LINE
  5
CD
100
AcDbEntity
100
AcDbLine
  8
Etch
 62
256
370
-1
  6
ByLayer
 10
299.8419910581225736
 20
121.3513219076007346
 30
0.0
 11
296.7212124626470882
 21
117.8115096706826819
 31
0.0
  0
LINE
  5
CE
100
AcDbEntity
100
AcDbLine
  8
Etch
 62
256
370
-1
  6
ByLayer
 10
276.5901197947708283
 20
88.415601718032832
 30
0.0
 11
275.3690879671503922
 21
86.0195488018246976
 31
0.0
  0
LINE
  5
CF
100
AcDbEntity
100
AcDbLine
  8
Etch
 62
256
370
-1
  6
ByLayer
 10
278.7299910581225504
 20
53.2233219076007344
 30
0.0
 11
278.7299910581225504
 21
89.1191945278388431
 31
0.0
  0
LINE
  5
D0
100
AcDbEntity
100
AcDbLine
  8
Etch
 62
256
370
-1
  6
ByLayer
 10
278.7299910581225504
 20
91.7048269543747807
 30
0.0
 11
278.7299910581225504
 21
92.4663219076007294
 31
0.0
  0
LINE
  5
D1
100
AcDbEntity
100
AcDbLine
  8
Etch
 62
256
370
-1
  6
ByLayer
 10
278.7299910581225504
 20
92.4663219076007294
 30
0.0
 11
278.2541340298661225
 21
91.6616276642053975
 31
0.0
  0
LINE
  5
D2
100
AcDbEntity
100
AcDbLine
  8
Etch
 62
256
370
-1
  6
ByLayer
 10
273.2706560688858985
 20
81.6506321424603385
 30
0.0
 11
270.3229910581225681
 21
74.8373219076007388
 31
0.0
  0
LINE
  5
D3
100
AcDbEntity
100
AcDbLine
  8
Etch
 62
256
370
-1
  6
ByLayer
 10
289.6416637638718043
 20
82.916513111873769
 30
0.0
 11
289.4699910581225595
 21
83.3133219076007379
 31
0.0
  0
LINE
  5
D4
100
AcDbEntity
100
AcDbLine
  8
Etch
 62
256
370
-1
  6
ByLayer
 10
292.5900064699914651
 20
76.1016364341888902
 30
0.0
 11
291.0924714605646386
 21
79.5630781412796608
 31
0.0
  0
LINE
  5
D5
100
AcDbEntity
100
AcDbLine
  8
Etch
 62
256
370
-1
  6
ByLayer
 10
296.2649910581225754
 20
66.1483219076007316
 30
0.0
 11
293.3597835531552391
 21
74.2184459519296382
 31
0.0
  0
LINE
  5
D6
100
AcDbEntity
100
AcDbLine
  8
Etch
 62
256
370
-1
  6
ByLayer
 10
298.7159910581225404
 20
77.0463219076007277
 30
0.0
 11
298.8224973646059084
 21
76.7505183051655706
 31
0.0
  0
LINE
  5
D7
100
AcDbEntity
100
AcDbLine
  8
Etch
 62
256
370
-1
  6
ByLayer
 10
298.8224973646059084
 20
76.7505183051655706
 30
0.0
 11
301.971991058122569
 21
68.0033219076007356
 31
0.0
  0
LINE
  5
D8
100
AcDbEntity
100
AcDbLine
  8
Etch
 62
256
370
-1
  6
ByLayer
 10
295.7255437193020384
 20
83.9571775470389809
 30
0.0
 11
297.1420486130638778
 21
80.68366702362448
 31
0.0
  0
LINE
  5
D9
100
AcDbEntity
100
AcDbLine
  8
Etch
 62
256
370
-1
  6
ByLayer
 10
292.8988198767935387
 20
89.792497433930194
 30
0.0
 11
294.8989910581225899
 21
85.8673219076007399
 31
0.0
  0
LINE
  5
DA
100
AcDbEntity
100
AcDbLine
  8
Etch
 62
256
370
-1
  6
ByLayer
 10
290.5349910581225572
 20
94.4313219076007329
 30
0.0
 11
291.9972729767134183
 21
91.5617109197886236
 31
0.0
  0
MTEXT
  5
DB
100
AcDbEntity
100
AcDbMText
  8
Etch
 62
256
370
-1
  6
ByLayer
 10
234.1637417585705236
 20
133.884871535023052
 30
0.0
 40
20.0
 41
100.0
 71
1
 72
0
  1
RepRap
  7
kochigothic
 50
0.0
 73
1
 44
1.0
  0
MTEXT
  5
DC
100
AcDbEntity
100
AcDbMText
  8
Etch
 62
256
370
-1
  6
ByLayer
 10
204.4215320417324051
 20
15.7247332339794159
 30
0.0
 40
8.0
 41
100.0
 71
1
 72
0
  1
reprap.harleystudio.co.za
  7
kochigothic
 50
0.0
 73
1
 44
1.0
  0
ENDSEC
  0
SECTION
  2
OBJECTS
  0
DICTIONARY
  5
C
100
AcDbDictionary
280
0
281
1
  3
ACAD_GROUP
350
D
  3
ACAD_LAYOUT
350
1A
  3
ACAD_MLINESTYLE
350
17
  3
ACAD_PLOTSETTINGS
350
19
  3
ACAD_PLOTSTYLENAME
350
E
  3
AcDbVariableDictionary
350
DD
  0
DICTIONARY
  5
D
100
AcDbDictionary
280
0
281
1
  0
ACDBDICTIONARYWDFLT
  5
E
100
AcDbDictionary
281
1
  3
Normal
350
F
100
AcDbDictionaryWithDefault
340
F
  0
ACDBPLACEHOLDER
  5
F
  0
DICTIONARY
  5
17
100
AcDbDictionary
280
0
281
1
  3
Standard
350
18
  0
MLINESTYLE
  5
18
100
AcDbMlineStyle
  2
STANDARD
 70
0
  3

 62
256
 51
90.0
 52
90.0
 71
2
 49
0.5
 62
256
  6
BYLAYER
 49
-0.5
 62
256
  6
BYLAYER
  0
DICTIONARY
  5
19
100
AcDbDictionary
280
0
281
1
  0
DICTIONARY
  5
1A
100
AcDbDictionary
281
1
  3
Layout1
350
1E
  3
Layout2
350
26
  3
Model
350
22
  0
LAYOUT
  5
1E
100
AcDbPlotSettings
  1

  2
C:\Program Files\AutoCAD 2002\plotters\DWF ePlot (optimized for plotting).pc3
  4

  6

 40
0.0
 41
0.0
 42
0.0
 43
0.0
 44
0.0
 45
0.0
 46
0.0
 47
0.0
 48
0.0
 49
0.0
140
0.0
141
0.0
142
1.0
143
1.0
 70
688
 72
0
 73
0
 74
5
  7

 75
16
147
1.0
148
0.0
149
0.0
100
AcDbLayout
  1
Layout1
 70
1
 71
1
 10
0.0
 20
0.0
 11
420.0
 21
297.0
 12
0.0
 22
0.0
 32
0.0
 14
100000000000000000000.0
 24
100000000000000000000.0
 34
100000000000000000000.0
 15
-100000000000000000000.0
 25
-100000000000000000000.0
 35
-100000000000000000000.0
146
0.0
 13
0.0
 23
0.0
 33
0.0
 16
1.0
 26
0.0
 36
0.0
 17
0.0
 27
1.0
 37
0.0
 76
0
330
1B
  0
LAYOUT
  5
22
100
AcDbPlotSettings
  1

  2
C:\Program Files\AutoCAD 2002\plotters\DWF ePlot (optimized for plotting).pc3
  4

  6

 40
0.0
 41
0.0
 42
0.0
 43
0.0
 44
0.0
 45
0.0
 46
0.0
 47
0.0
 48
0.0
 49
0.0
140
0.0
141
0.0
142
1.0
143
1.0
 70
1712
 72
0
 73
0
 74
0
  7

 75
0
147
1.0
148
0.0
149
0.0
100
AcDbLayout
  1
Model
 70
1
 71
0
 10
0.0
 20
0.0
 11
12.0
 21
9.0
 12
0.0
 22
0.0
 32
0.0
 14
0.0
 24
0.0
 34
0.0
 15
0.0
 25
0.0
 35
0.0
146
0.0
 13
0.0
 23
0.0
 33
0.0
 16
1.0
 26
0.0
 36
0.0
 17
0.0
 27
1.0
 37
0.0
 76
0
330
1F
  0
LAYOUT
  5
26
100
AcDbPlotSettings
  1

  2
C:\Program Files\AutoCAD 2002\plotters\DWF ePlot (optimized for plotting).pc3
  4

  6

 40
0.0
 41
0.0
 42
0.0
 43
0.0
 44
0.0
 45
0.0
 46
0.0
 47
0.0
 48
0.0
 49
0.0
140
0.0
141
0.0
142
1.0
143
1.0
 70
688
 72
0
 73
0
 74
5
  7

 75
16
147
1.0
148
0.0
149
0.0
100
AcDbLayout
  1
Layout2
 70
1
 71
2
 10
0.0
 20
0.0
 11
12.0
 21
9.0
 12
0.0
 22
0.0
 32
0.0
 14
0.0
 24
0.0
 34
0.0
 15
0.0
 25
0.0
 35
0.0
146
0.0
 13
0.0
 23
0.0
 33
0.0
 16
1.0
 26
0.0
 36
0.0
 17
0.0
 27
1.0
 37
0.0
 76
0
330
23
  0
DICTIONARY
  5
DD
100
AcDbDictionary
281
1
  3
DIMASSOC
350
DF
  3
HIDETEXT
350
DE
  0
DICTIONARYVAR
  5
DE
100
DictionaryVariables
280
0
  1
2
  0
DICTIONARYVAR
  5
DF
100
DictionaryVariables
280
0
  1
1
  0
IMAGEDEF
  5
53
100
AcDbRasterImageDef
 90
0
  1
/home/qharley/Dropbox/Morgan/RepRAP Morgan SCARA/SCARA Cal/SCARA-CAL1.dxf
 10
1.0
 20
1.0
 11
1.0
 21
1.0
280
1
281
0
  0
ENDSEC
  0
EOF
