999
dxflib 2.2.0.0
  0
SECTION
  2
HEADER
  9
$ACADVER
  1
AC1015
  9
$HANDSEED
  5
FFFF
  9
$SPLINESEGS
 70
8
  9
$DIMEXE
 40
1.25
  9
$PSVPSCALE
 40
0.9868161364174627
  9
$DIMLUNIT
 70
2
  9
$GRIDMODE
 70
1
  9
$INSUNITS
 70
4
  9
$DIMADEC
 70
2
  9
$DIMASZ
 40
2.5
  9
$DIMGAP
 40
0.625
  9
$DIMTXT
 40
2.5
  9
$GRIDUNIT
 10
1.0
 20
1.0
  9
$DIMEXO
 40
0.625
  9
$LUPREC
 70
4
  9
$PINSBASE
 10
12.7734100865867415
 20
74.9663693060709022
 30
0.0
  9
$DIMAUNIT
 70
0
  9
$AUPREC
 70
2
  9
$PLIMMIN
 10
0.0
 20
0.0
  9
$LUNITS
 70
2
  9
$PLIMMAX
 10
420.0
 20
594.0
  9
$DIMSTYLE
  2
Standard
  9
$AUNITS
 70
0
  0
ENDSEC
  0
SECTION
  2
TABLES
  0
TABLE
  2
VPORT
  5
8
100
AcDbSymbolTable
 70
1
  0
VPORT
  5
30
100
AcDbSymbolTableRecord
100
AcDbViewportTableRecord
  2
*Active
 70
0
 10
0.0
 20
0.0
 11
1.0
 21
1.0
 12
286.3055555555554861
 22
148.5
 13
0.0
 23
0.0
 14
10.0
 24
10.0
 15
10.0
 25
10.0
 16
0.0
 26
0.0
 36
1.0
 17
0.0
 27
0.0
 37
0.0
 40
297.0
 41
1.92798353909465
 42
50.0
 43
0.0
 44
0.0
 50
0.0
 51
0.0
 71
0
 72
100
 73
1
 74
3
 75
1
 76
1
 77
0
 78
0
281
0
 65
1
110
0.0
120
0.0
130
0.0
111
1.0
121
0.0
131
0.0
112
0.0
122
1.0
132
0.0
 79
0
146
0.0
  0
ENDTAB
  0
TABLE
  2
LTYPE
  5
5
100
AcDbSymbolTable
 70
21
  0
LTYPE
  5
14
100
AcDbSymbolTableRecord
100
AcDbLinetypeTableRecord
  2
ByBlock
 70
0
  3

 72
65
 73
0
 40
0.0
  0
LTYPE
  5
15
100
AcDbSymbolTableRecord
100
AcDbLinetypeTableRecord
  2
ByLayer
 70
0
  3

 72
65
 73
0
 40
0.0
  0
LTYPE
  5
16
100
AcDbSymbolTableRecord
100
AcDbLinetypeTableRecord
  2
CONTINUOUS
 70
0
  3
Solid line
 72
65
 73
0
 40
0.0
  0
LTYPE
  5
31
100
AcDbSymbolTableRecord
100
AcDbLinetypeTableRecord
  2
DOT
 70
0
  3
Dot . . . . . . . . . . . . . . . . . . . . . .
 72
65
 73
2
 40
6.3499999999999996
 49
0.0
 74
0
 49
-6.3499999999999996
 74
0
  0
LTYPE
  5
32
100
AcDbSymbolTableRecord
100
AcDbLinetypeTableRecord
  2
DOT2
 70
0
  3
Dot (.5x) .....................................
 72
65
 73
2
 40
3.1749999999999998
 49
0.0
 74
0
 49
-3.1749999999999998
 74
0
  0
LTYPE
  5
33
100
AcDbSymbolTableRecord
100
AcDbLinetypeTableRecord
  2
DOTX2
 70
0
  3
Dot (2x) .  .  .  .  .  .  .  .  .  .  .  .  .
 72
65
 73
2
 40
12.6999999999999993
 49
0.0
 74
0
 49
-12.6999999999999993
 74
0
  0
LTYPE
  5
34
100
AcDbSymbolTableRecord
100
AcDbLinetypeTableRecord
  2
DASHED
 70
0
  3
Dashed __ __ __ __ __ __ __ __ __ __ __ __ __ _
 72
65
 73
2
 40
19.0500000000000007
 49
12.6999999999999993
 74
0
 49
-6.3499999999999996
 74
0
  0
LTYPE
  5
35
100
AcDbSymbolTableRecord
100
AcDbLinetypeTableRecord
  2
DASHED2
 70
0
  3
Dashed (.5x) _ _ _ _ _ _ _ _ _ _ _ _ _ _ _ _ _
 72
65
 73
2
 40
9.5250000000000004
 49
6.3499999999999996
 74
0
 49
-3.1749999999999998
 74
0
  0
LTYPE
  5
36
100
AcDbSymbolTableRecord
100
AcDbLinetypeTableRecord
  2
DASHEDX2
 70
0
  3
Dashed (2x) ____  ____  ____  ____  ____  ___
 72
65
 73
2
 40
38.1000000000000014
 49
25.3999999999999986
 74
0
 49
-12.6999999999999993
 74
0
  0
LTYPE
  5
37
100
AcDbSymbolTableRecord
100
AcDbLinetypeTableRecord
  2
DASHDOT
 70
0
  3
Dash dot __ . __ . __ . __ . __ . __ . __ . __
 72
65
 73
4
 40
25.3999999999999986
 49
12.6999999999999993
 74
0
 49
-6.3499999999999996
 74
0
 49
0.0
 74
0
 49
-6.3499999999999996
 74
0
  0
LTYPE
  5
38
100
AcDbSymbolTableRecord
100
AcDbLinetypeTableRecord
  2
DASHDOT2
 70
0
  3
Dash dot (.5x) _._._._._._._._._._._._._._._.
 72
65
 73
4
 40
12.6999999999999993
 49
6.3499999999999996
 74
0
 49
-3.1749999999999998
 74
0
 49
0.0
 74
0
 49
-3.1749999999999998
 74
0
  0
LTYPE
  5
39
100
AcDbSymbolTableRecord
100
AcDbLinetypeTableRecord
  2
DASHDOTX2
 70
0
  3
Dash dot (2x) ____  .  ____  .  ____  .  ___
 72
65
 73
4
 40
50.7999999999999972
 49
25.3999999999999986
 74
0
 49
-12.6999999999999993
 74
0
 49
0.0
 74
0
 49
-12.6999999999999993
 74
0
  0
LTYPE
  5
3A
100
AcDbSymbolTableRecord
100
AcDbLinetypeTableRecord
  2
DIVIDE
 70
0
  3
Divide ____ . . ____ . . ____ . . ____ . . ____
 72
65
 73
6
 40
31.75
 49
12.6999999999999993
 74
0
 49
-6.3499999999999996
 74
0
 49
0.0
 74
0
 49
-6.3499999999999996
 74
0
 49
0.0
 74
0
 49
-6.3499999999999996
 74
0
  0
LTYPE
  5
3B
100
AcDbSymbolTableRecord
100
AcDbLinetypeTableRecord
  2
DIVIDE2
 70
0
  3
Divide (.5x) __..__..__..__..__..__..__..__.._
 72
65
 73
6
 40
15.875
 49
6.3499999999999996
 74
0
 49
-3.1749999999999998
 74
0
 49
0.0
 74
0
 49
-3.1749999999999998
 74
0
 49
0.0
 74
0
 49
-3.1749999999999998
 74
0
  0
LTYPE
  5
3C
100
AcDbSymbolTableRecord
100
AcDbLinetypeTableRecord
  2
DIVIDEX2
 70
0
  3
Divide (2x) ________  .  .  ________  .  .  _
 72
65
 73
6
 40
63.5
 49
25.3999999999999986
 74
0
 49
-12.6999999999999993
 74
0
 49
0.0
 74
0
 49
-12.6999999999999993
 74
0
 49
0.0
 74
0
 49
-12.6999999999999993
 74
0
  0
LTYPE
  5
3D
100
AcDbSymbolTableRecord
100
AcDbLinetypeTableRecord
  2
CENTER
 70
0
  3
Center ____ _ ____ _ ____ _ ____ _ ____ _ ____
 72
65
 73
4
 40
50.7999999999999972
 49
31.75
 74
0
 49
-6.3499999999999996
 74
0
 49
6.3499999999999996
 74
0
 49
-6.3499999999999996
 74
0
  0
LTYPE
  5
3E
100
AcDbSymbolTableRecord
100
AcDbLinetypeTableRecord
  2
CENTER2
 70
0
  3
Center (.5x) ___ _ ___ _ ___ _ ___ _ ___ _ ___
 72
65
 73
4
 40
28.5749999999999993
 49
19.0500000000000007
 74
0
 49
-3.1749999999999998
 74
0
 49
3.1749999999999998
 74
0
 49
-3.1749999999999998
 74
0
  0
LTYPE
  5
3F
100
AcDbSymbolTableRecord
100
AcDbLinetypeTableRecord
  2
CENTERX2
 70
0
  3
Center (2x) ________  __  ________  __  _____
 72
65
 73
4
 40
101.5999999999999943
 49
63.5
 74
0
 49
-12.6999999999999993
 74
0
 49
12.6999999999999993
 74
0
 49
-12.6999999999999993
 74
0
  0
LTYPE
  5
40
100
AcDbSymbolTableRecord
100
AcDbLinetypeTableRecord
  2
BORDER
 70
0
  3
Border __ __ . __ __ . __ __ . __ __ . __ __ .
 72
65
 73
6
 40
44.4500000000000028
 49
12.6999999999999993
 74
0
 49
-6.3499999999999996
 74
0
 49
12.6999999999999993
 74
0
 49
-6.3499999999999996
 74
0
 49
0.0
 74
0
 49
-6.3499999999999996
 74
0
  0
LTYPE
  5
41
100
AcDbSymbolTableRecord
100
AcDbLinetypeTableRecord
  2
BORDER2
 70
0
  3
Border (.5x) __.__.__.__.__.__.__.__.__.__.__.
 72
65
 73
6
 40
22.2250000000000014
 49
6.3499999999999996
 74
0
 49
-3.1749999999999998
 74
0
 49
6.3499999999999996
 74
0
 49
-3.1749999999999998
 74
0
 49
0.0
 74
0
 49
-3.1749999999999998
 74
0
  0
LTYPE
  5
42
100
AcDbSymbolTableRecord
100
AcDbLinetypeTableRecord
  2
BORDERX2
 70
0
  3
Border (2x) ____  ____  .  ____  ____  .  ___
 72
65
 73
6
 40
88.9000000000000057
 49
25.3999999999999986
 74
0
 49
-12.6999999999999993
 74
0
 49
25.3999999999999986
 74
0
 49
-12.6999999999999993
 74
0
 49
0.0
 74
0
 49
-12.6999999999999993
 74
0
  0
ENDTAB
  0
TABLE
  2
LAYER
  5
2
100
AcDbSymbolTable
 70
4
  0
LAYER
  5
10
100
AcDbSymbolTableRecord
100
AcDbLayerTableRecord
  2
0
 70
1
 62
7
  6
CONTINUOUS
290
1
370
0
390
F
  0
LAYER
  5
43
100
AcDbSymbolTableRecord
100
AcDbLayerTableRecord
  2
Cut
 70
0
 62
2
  6
CONTINUOUS
290
1
370
0
390
F
  0
LAYER
  5
44
100
AcDbSymbolTableRecord
100
AcDbLayerTableRecord
  2
Etch
 70
0
 62
4
  6
CONTINUOUS
290
1
370
0
390
F
  0
LAYER
  5
45
100
AcDbSymbolTableRecord
100
AcDbLayerTableRecord
  2
Cut-Optional
 70
0
 62
3
  6
CONTINUOUS
290
1
370
0
390
F
  0
ENDTAB
  0
TABLE
  2
STYLE
  5
3
100
AcDbSymbolTable
 70
1
  0
STYLE
  5
11
100
AcDbSymbolTableRecord
100
AcDbTextStyleTableRecord
  2
Standard
 70
0
 40
0.0
 41
0.75
 50
0.0
 71
0
 42
2.5
  3
txt
  4

  0
ENDTAB
  0
TABLE
  2
VIEW
  5
6
100
AcDbSymbolTable
 70
0
  0
ENDTAB
  0
TABLE
  2
UCS
  5
7
100
AcDbSymbolTable
 70
0
  0
ENDTAB
  0
TABLE
  2
APPID
  5
9
100
AcDbSymbolTable
 70
1
  0
APPID
  5
12
100
AcDbSymbolTableRecord
100
AcDbRegAppTableRecord
  2
ACAD
 70
0
  0
ENDTAB
  0
TABLE
  2
DIMSTYLE
  5
A
100
AcDbSymbolTable
 70
1
100
AcDbDimStyleTable
 71
0
  0
DIMSTYLE
105
27
100
AcDbSymbolTableRecord
100
AcDbDimStyleTableRecord
  2
Standard
 41
2.5
 42
0.625
 43
3.75
 44
1.25
 70
0
 73
0
 74
0
 77
1
 78
8
140
2.5
141
2.5
143
0.03937007874016
147
0.625
171
3
172
1
271
2
272
2
274
3
278
44
283
0
284
8
340
11
  0
ENDTAB
  0
TABLE
  2
BLOCK_RECORD
  5
1
100
AcDbSymbolTable
 70
1
  0
BLOCK_RECORD
  5
1F
100
AcDbSymbolTableRecord
100
AcDbBlockTableRecord
  2
*Model_Space
340
22
  0
BLOCK_RECORD
  5
1B
100
AcDbSymbolTableRecord
100
AcDbBlockTableRecord
  2
*Paper_Space
340
1E
  0
BLOCK_RECORD
  5
23
100
AcDbSymbolTableRecord
100
AcDbBlockTableRecord
  2
*Paper_Space0
340
26
  0
BLOCK_RECORD
  5
46
100
AcDbSymbolTableRecord
100
AcDbBlockTableRecord
  2
1
340
0
  0
BLOCK_RECORD
  5
47
100
AcDbSymbolTableRecord
100
AcDbBlockTableRecord
  2
2
340
0
  0
BLOCK_RECORD
  5
48
100
AcDbSymbolTableRecord
100
AcDbBlockTableRecord
  2
3
340
0
  0
BLOCK_RECORD
  5
49
100
AcDbSymbolTableRecord
100
AcDbBlockTableRecord
  2
4
340
0
  0
ENDTAB
  0
ENDSEC
  0
SECTION
  2
BLOCKS
  0
BLOCK
  5
20
100
AcDbEntity
  8
0
100
AcDbBlockBegin
  2
*Model_Space
 70
0
 10
0.0
 20
0.0
 30
0.0
  3
*Model_Space
  1

  0
ENDBLK
  5
21
100
AcDbEntity
  8
0
100
AcDbBlockEnd
  0
BLOCK
  5
1C
100
AcDbEntity
 67
1
  8
0
100
AcDbBlockBegin
  2
*Paper_Space
 70
0
 10
0.0
 20
0.0
 30
0.0
  3
*Paper_Space
  1

  0
ENDBLK
  5
1D
100
AcDbEntity
 67
1
  8
0
100
AcDbBlockEnd
  0
BLOCK
  5
24
100
AcDbEntity
  8
0
100
AcDbBlockBegin
  2
*Paper_Space0
 70
0
 10
0.0
 20
0.0
 30
0.0
  3
*Paper_Space0
  1

  0
ENDBLK
  5
25
100
AcDbEntity
  8
0
100
AcDbBlockEnd
  0
BLOCK
  5
4A
100
AcDbEntity
  8
0
100
AcDbBlockBegin
  2
1
 70
0
 10
0.0
 20
0.0
 30
0.0
  3
1
  1

  0
ENDBLK
  5
4B
100
AcDbEntity
  8
0
100
AcDbBlockEnd
  0
BLOCK
  5
4C
100
AcDbEntity
  8
0
100
AcDbBlockBegin
  2
2
 70
0
 10
0.0
 20
0.0
 30
0.0
  3
2
  1

  0
ENDBLK
  5
4D
100
AcDbEntity
  8
0
100
AcDbBlockEnd
  0
BLOCK
  5
4E
100
AcDbEntity
  8
0
100
AcDbBlockBegin
  2
3
 70
0
 10
0.0
 20
0.0
 30
0.0
  3
3
  1

  0
ENDBLK
  5
4F
100
AcDbEntity
  8
0
100
AcDbBlockEnd
  0
BLOCK
  5
50
100
AcDbEntity
  8
0
100
AcDbBlockBegin
  2
4
 70
0
 10
0.0
 20
0.0
 30
0.0
  3
4
  1

  0
ENDBLK
  5
51
100
AcDbEntity
  8
0
100
AcDbBlockEnd
  0
ENDSEC
  0
SECTION
  2
ENTITIES
  0
IMAGE
  5
52
  8
Etch
 62
256
370
-1
  6
ByLayer
100
AcDbEntity
100
AcDbRasterImage
 90
0
 10
15.9399414062529061
 20
216.7565917968981637
 30
0.0
 11
1.0
 21
0.0
 31
0.0
 12
0.0000000000000001
 22
1.0
 32
0.0
 13
1.0
 23
1.0
340
53
 70
15
280
0
281
50
282
50
283
0
  0
CIRCLE
  5
54
100
AcDbEntity
100
AcDbCircle
  8
Cut
 62
256
370
-1
  6
ByLayer
 10
50.0
 20
40.0
 30
0.0
 40
2.0
  0
CIRCLE
  5
55
100
AcDbEntity
100
AcDbCircle
  8
Cut
 62
256
370
-1
  6
ByLayer
 10
330.0
 20
40.0
 30
0.0
 40
2.0
  0
CIRCLE
  5
56
100
AcDbEntity
100
AcDbCircle
  8
Cut
 62
256
370
-1
  6
ByLayer
 10
170.0
 20
170.0
 30
0.0
 40
2.0
  0
CIRCLE
  5
57
100
AcDbEntity
100
AcDbCircle
  8
Cut
 62
256
370
-1
  6
ByLayer
 10
210.0
 20
170.0
 30
0.0
 40
2.0
  0
CIRCLE
  5
58
100
AcDbEntity
100
AcDbCircle
  8
Cut
 62
256
370
-1
  6
ByLayer
 10
190.0
 20
80.0
 30
0.0
 40
11.0
  0
CIRCLE
  5
59
100
AcDbEntity
100
AcDbCircle
  8
Cut
 62
256
370
-1
  6
ByLayer
 10
175.0
 20
65.0
 30
0.0
 40
1.5
  0
CIRCLE
  5
5A
100
AcDbEntity
100
AcDbCircle
  8
Cut
 62
256
370
-1
  6
ByLayer
 10
205.0
 20
65.0
 30
0.0
 40
1.5
  0
CIRCLE
  5
5B
100
AcDbEntity
100
AcDbCircle
  8
Cut
 62
256
370
-1
  6
ByLayer
 10
205.0
 20
95.0
 30
0.0
 40
1.5
  0
CIRCLE
  5
5C
100
AcDbEntity
100
AcDbCircle
  8
Cut
 62
256
370
-1
  6
ByLayer
 10
175.0
 20
95.0000000000000142
 30
0.0
 40
1.5
  0
ARC
  5
5D
100
AcDbEntity
  8
Cut
 62
256
370
-1
  6
ByLayer
100
AcDbCircle
 10
190.0
 20
39.9999999999999787
 30
0.0
 40
160.0
100
AcDbArc
 50
0.0
 51
180.0
  0
CIRCLE
  5
5E
100
AcDbEntity
100
AcDbCircle
  8
Cut
 62
256
370
-1
  6
ByLayer
 10
190.0
 20
39.9999999999999787
 30
0.0
 40
13.0
  0
CIRCLE
  5
5F
100
AcDbEntity
100
AcDbCircle
  8
Cut
 62
256
370
-1
  6
ByLayer
 10
292.5304832720494801
 20
142.5304832720494801
 30
0.0
 40
2.0
  0
CIRCLE
  5
60
100
AcDbEntity
100
AcDbCircle
  8
Cut
 62
256
370
-1
  6
ByLayer
 10
87.4695167279505341
 20
142.5304832720494801
 30
0.0
 40
2.0
  0
LINE
  5
61
100
AcDbEntity
100
AcDbLine
  8
Cut
 62
256
370
-1
  6
ByLayer
 10
390.0
 20
460.0
 30
0.0
 11
390.0
 21
460.0
 31
0.0
  0
CIRCLE
  5
62
100
AcDbEntity
100
AcDbCircle
  8
Cut
 62
256
370
-1
  6
ByLayer
 10
40.0
 20
280.0
 30
0.0
 40
2.0
  0
CIRCLE
  5
63
100
AcDbEntity
100
AcDbCircle
  8
Cut
 62
256
370
-1
  6
ByLayer
 10
340.0
 20
280.0
 30
0.0
 40
2.0
  0
CIRCLE
  5
64
100
AcDbEntity
100
AcDbCircle
  8
Cut
 62
256
370
-1
  6
ByLayer
 10
260.0
 20
430.0
 30
0.0
 40
2.0
  0
CIRCLE
  5
65
100
AcDbEntity
100
AcDbCircle
  8
Cut
 62
256
370
-1
  6
ByLayer
 10
120.0
 20
430.0
 30
0.0
 40
2.0
  0
LINE
  5
66
100
AcDbEntity
100
AcDbLine
  8
Cut
 62
256
370
-1
  6
ByLayer
 10
340.0
 20
460.0
 30
0.0
 11
40.0
 21
460.0
 31
0.0
  0
LINE
  5
67
100
AcDbEntity
100
AcDbLine
  8
Etch
 62
256
370
-1
  6
ByLayer
 10
62.2638418622436234
 20
97.7527496455824263
 30
0.0
 11
62.2638418622436234
 21
103.7527496455824263
 31
0.0
  0
LINE
  5
68
100
AcDbEntity
100
AcDbLine
  8
Etch
 62
256
370
-1
  6
ByLayer
 10
62.2638418622436234
 20
103.7527496455824263
 30
0.0
 11
106.5338418622436194
 21
103.7527496455824263
 31
0.0
  0
LINE
  5
69
100
AcDbEntity
100
AcDbLine
  8
Etch
 62
256
370
-1
  6
ByLayer
 10
106.5338418622436194
 20
103.7527496455824263
 30
0.0
 11
105.9188418622436245
 21
104.6567496455824227
 31
0.0
  0
LINE
  5
6A
100
AcDbEntity
100
AcDbLine
  8
Etch
 62
256
370
-1
  6
ByLayer
 10
105.9188418622436245
 20
104.6567496455824227
 30
0.0
 11
100.2588418622436279
 21
111.9537496455824197
 31
0.0
  0
LINE
  5
6B
100
AcDbEntity
100
AcDbLine
  8
Etch
 62
256
370
-1
  6
ByLayer
 10
100.2588418622436279
 20
111.9537496455824197
 30
0.0
 11
94.1518418622436286
 21
118.8807496455824264
 31
0.0
  0
LINE
  5
6C
100
AcDbEntity
100
AcDbLine
  8
Etch
 62
256
370
-1
  6
ByLayer
 10
94.1518418622436286
 20
118.8807496455824264
 30
0.0
 11
87.6218418622436275
 21
125.4107496455824275
 31
0.0
  0
LINE
  5
6D
100
AcDbEntity
100
AcDbLine
  8
Etch
 62
256
370
-1
  6
ByLayer
 10
87.6218418622436275
 20
125.4107496455824275
 30
0.0
 11
80.6948418622436208
 21
131.5177496455823984
 31
0.0
  0
LINE
  5
6E
100
AcDbEntity
100
AcDbLine
  8
Etch
 62
256
370
-1
  6
ByLayer
 10
80.6948418622436208
 20
131.5177496455823984
 30
0.0
 11
74.9008418622436238
 21
136.012749645582403
 31
0.0
  0
LINE
  5
6F
100
AcDbEntity
100
AcDbLine
  8
Etch
 62
256
370
-1
  6
ByLayer
 10
74.9008418622436238
 20
136.012749645582403
 30
0.0
 11
80.1928418622436254
 21
139.4977496455824166
 31
0.0
  0
LINE
  5
70
100
AcDbEntity
100
AcDbLine
  8
Etch
 62
256
370
-1
  6
ByLayer
 10
80.1928418622436254
 20
139.4977496455824166
 30
0.0
 11
84.5198418622436236
 21
136.1417496455824221
 31
0.0
  0
LINE
  5
71
100
AcDbEntity
100
AcDbLine
  8
Etch
 62
256
370
-1
  6
ByLayer
 10
84.5198418622436236
 20
136.1417496455824221
 30
0.0
 11
91.7298418622436316
 21
129.7847496455824512
 31
0.0
  0
LINE
  5
72
100
AcDbEntity
100
AcDbLine
  8
Etch
 62
256
370
-1
  6
ByLayer
 10
91.7298418622436316
 20
129.7847496455824512
 30
0.0
 11
98.5258418622436238
 21
122.9887496455824305
 31
0.0
  0
LINE
  5
73
100
AcDbEntity
100
AcDbLine
  8
Etch
 62
256
370
-1
  6
ByLayer
 10
98.5258418622436238
 20
122.9887496455824305
 30
0.0
 11
104.8828418622436232
 21
115.7787496455824225
 31
0.0
  0
LINE
  5
74
100
AcDbEntity
100
AcDbLine
  8
Etch
 62
256
370
-1
  6
ByLayer
 10
104.8828418622436232
 20
115.7787496455824225
 30
0.0
 11
109.2638418622436234
 21
110.1297496455824216
 31
0.0
  0
LINE
  5
75
100
AcDbEntity
100
AcDbLine
  8
Etch
 62
256
370
-1
  6
ByLayer
 10
109.2638418622436234
 20
110.1297496455824216
 30
0.0
 11
109.2638418622436234
 21
150.7527496455824121
 31
0.0
  0
LINE
  5
76
100
AcDbEntity
100
AcDbLine
  8
Etch
 62
256
370
-1
  6
ByLayer
 10
109.2638418622436234
 20
150.7527496455824121
 30
0.0
 11
115.2638418622436234
 21
150.7527496455824121
 31
0.0
  0
LINE
  5
77
100
AcDbEntity
100
AcDbLine
  8
Etch
 62
256
370
-1
  6
ByLayer
 10
115.2638418622436234
 20
150.7527496455824121
 30
0.0
 11
115.2638418622436234
 21
110.1297496455824216
 31
0.0
  0
LINE
  5
78
100
AcDbEntity
100
AcDbLine
  8
Etch
 62
256
370
-1
  6
ByLayer
 10
115.2638418622436234
 20
110.1297496455824216
 30
0.0
 11
119.6448418622436236
 21
115.7787496455824225
 31
0.0
  0
LINE
  5
79
100
AcDbEntity
100
AcDbLine
  8
Etch
 62
256
370
-1
  6
ByLayer
 10
119.6448418622436236
 20
115.7787496455824225
 30
0.0
 11
126.0018418622436229
 21
122.9887496455824305
 31
0.0
  0
LINE
  5
7A
100
AcDbEntity
100
AcDbLine
  8
Etch
 62
256
370
-1
  6
ByLayer
 10
126.0018418622436229
 20
122.9887496455824305
 30
0.0
 11
132.7978418622436152
 21
129.7847496455824512
 31
0.0
  0
LINE
  5
7B
100
AcDbEntity
100
AcDbLine
  8
Etch
 62
256
370
-1
  6
ByLayer
 10
132.7978418622436152
 20
129.7847496455824512
 30
0.0
 11
140.0078418622436232
 21
136.1417496455824221
 31
0.0
  0
LINE
  5
7C
100
AcDbEntity
100
AcDbLine
  8
Etch
 62
256
370
-1
  6
ByLayer
 10
140.0078418622436232
 20
136.1417496455824221
 30
0.0
 11
144.3348418622436213
 21
139.4977496455824166
 31
0.0
  0
LINE
  5
7D
100
AcDbEntity
100
AcDbLine
  8
Etch
 62
256
370
-1
  6
ByLayer
 10
144.3348418622436213
 20
139.4977496455824166
 30
0.0
 11
149.6268418622436229
 21
136.012749645582403
 31
0.0
  0
LINE
  5
7E
100
AcDbEntity
100
AcDbLine
  8
Etch
 62
256
370
-1
  6
ByLayer
 10
149.6268418622436229
 20
136.012749645582403
 30
0.0
 11
143.8328418622436118
 21
131.5177496455823984
 31
0.0
  0
LINE
  5
7F
100
AcDbEntity
100
AcDbLine
  8
Etch
 62
256
370
-1
  6
ByLayer
 10
143.8328418622436118
 20
131.5177496455823984
 30
0.0
 11
136.9058418622436193
 21
125.4107496455824275
 31
0.0
  0
LINE
  5
80
100
AcDbEntity
100
AcDbLine
  8
Etch
 62
256
370
-1
  6
ByLayer
 10
136.9058418622436193
 20
125.4107496455824275
 30
0.0
 11
130.3758418622436182
 21
118.8807496455824264
 31
0.0
  0
LINE
  5
81
100
AcDbEntity
100
AcDbLine
  8
Etch
 62
256
370
-1
  6
ByLayer
 10
130.3758418622436182
 20
118.8807496455824264
 30
0.0
 11
124.2688418622436188
 21
111.9537496455824197
 31
0.0
  0
LINE
  5
82
100
AcDbEntity
100
AcDbLine
  8
Etch
 62
256
370
-1
  6
ByLayer
 10
124.2688418622436188
 20
111.9537496455824197
 30
0.0
 11
118.6088418622436222
 21
104.6567496455824227
 31
0.0
  0
LINE
  5
83
100
AcDbEntity
100
AcDbLine
  8
Etch
 62
256
370
-1
  6
ByLayer
 10
118.6088418622436222
 20
104.6567496455824227
 30
0.0
 11
117.9938418622436274
 21
103.7527496455824263
 31
0.0
  0
LINE
  5
84
100
AcDbEntity
100
AcDbLine
  8
Etch
 62
256
370
-1
  6
ByLayer
 10
117.9938418622436274
 20
103.7527496455824263
 30
0.0
 11
162.2638418622436234
 21
103.7527496455824263
 31
0.0
  0
LINE
  5
85
100
AcDbEntity
100
AcDbLine
  8
Etch
 62
256
370
-1
  6
ByLayer
 10
162.2638418622436234
 20
103.7527496455824263
 30
0.0
 11
162.2638418622436234
 21
97.7527496455824263
 31
0.0
  0
LINE
  5
86
100
AcDbEntity
100
AcDbLine
  8
Etch
 62
256
370
-1
  6
ByLayer
 10
162.2638418622436234
 20
97.7527496455824263
 30
0.0
 11
117.6438418622436188
 21
97.7527496455824263
 31
0.0
  0
LINE
  5
87
100
AcDbEntity
100
AcDbLine
  8
Etch
 62
256
370
-1
  6
ByLayer
 10
117.6438418622436188
 20
97.7527496455824263
 30
0.0
 11
121.0688418622436302
 21
91.9607496455824247
 31
0.0
  0
LINE
  5
88
100
AcDbEntity
100
AcDbLine
  8
Etch
 62
256
370
-1
  6
ByLayer
 10
121.0688418622436302
 20
91.9607496455824247
 30
0.0
 11
125.4328418622436345
 21
83.3967496455824318
 31
0.0
  0
LINE
  5
89
100
AcDbEntity
100
AcDbLine
  8
Etch
 62
256
370
-1
  6
ByLayer
 10
125.4328418622436345
 20
83.3967496455824318
 30
0.0
 11
129.2498418622436134
 21
74.5757496455824196
 31
0.0
  0
LINE
  5
8A
100
AcDbEntity
100
AcDbLine
  8
Etch
 62
256
370
-1
  6
ByLayer
 10
129.2498418622436134
 20
74.5757496455824196
 30
0.0
 11
132.5058418622436136
 21
65.5327496455824274
 31
0.0
  0
LINE
  5
8B
100
AcDbEntity
100
AcDbLine
  8
Etch
 62
256
370
-1
  6
ByLayer
 10
132.5058418622436136
 20
65.5327496455824274
 30
0.0
 11
135.1868418622436252
 21
56.3027496455824235
 31
0.0
  0
LINE
  5
8C
100
AcDbEntity
100
AcDbLine
  8
Etch
 62
256
370
-1
  6
ByLayer
 10
135.1868418622436252
 20
56.3027496455824235
 30
0.0
 11
135.2508418622436182
 21
56.0187496455824245
 31
0.0
  0
LINE
  5
8D
100
AcDbEntity
100
AcDbLine
  8
Etch
 62
256
370
-1
  6
ByLayer
 10
135.2508418622436182
 20
56.0187496455824245
 30
0.0
 11
129.8938418622436188
 21
52.4917496455824235
 31
0.0
  0
LINE
  5
8E
100
AcDbEntity
100
AcDbLine
  8
Etch
 62
256
370
-1
  6
ByLayer
 10
129.8938418622436188
 20
52.4917496455824235
 30
0.0
 11
129.3758418622436182
 21
54.8097496455824285
 31
0.0
  0
LINE
  5
8F
100
AcDbEntity
100
AcDbLine
  8
Etch
 62
256
370
-1
  6
ByLayer
 10
129.3758418622436182
 20
54.8097496455824285
 30
0.0
 11
126.79884186224362
 21
63.6777496455824235
 31
0.0
  0
LINE
  5
90
100
AcDbEntity
100
AcDbLine
  8
Etch
 62
256
370
-1
  6
ByLayer
 10
126.79884186224362
 20
63.6777496455824235
 30
0.0
 11
123.6708418622436341
 21
72.3667496455824306
 31
0.0
  0
LINE
  5
91
100
AcDbEntity
100
AcDbLine
  8
Etch
 62
256
370
-1
  6
ByLayer
 10
123.6708418622436341
 20
72.3667496455824306
 30
0.0
 11
120.0038418622436325
 21
80.8427496455824297
 31
0.0
  0
LINE
  5
92
100
AcDbEntity
100
AcDbLine
  8
Etch
 62
256
370
-1
  6
ByLayer
 10
120.0038418622436325
 20
80.8427496455824297
 30
0.0
 11
115.8108418622436204
 21
89.0707496455824241
 31
0.0
  0
LINE
  5
93
100
AcDbEntity
100
AcDbLine
  8
Etch
 62
256
370
-1
  6
ByLayer
 10
115.8108418622436204
 20
89.0707496455824241
 30
0.0
 11
115.2638418622436234
 21
89.9957496455824213
 31
0.0
  0
LINE
  5
94
100
AcDbEntity
100
AcDbLine
  8
Etch
 62
256
370
-1
  6
ByLayer
 10
115.2638418622436234
 20
89.9957496455824213
 30
0.0
 11
115.2638418622436234
 21
50.7527496455824263
 31
0.0
  0
LINE
  5
95
100
AcDbEntity
100
AcDbLine
  8
Etch
 62
256
370
-1
  6
ByLayer
 10
115.2638418622436234
 20
50.7527496455824263
 30
0.0
 11
109.2638418622436234
 21
50.7527496455824263
 31
0.0
  0
LINE
  5
96
100
AcDbEntity
100
AcDbLine
  8
Etch
 62
256
370
-1
  6
ByLayer
 10
109.2638418622436234
 20
50.7527496455824263
 30
0.0
 11
109.2638418622436234
 21
89.9957496455824213
 31
0.0
  0
LINE
  5
97
100
AcDbEntity
100
AcDbLine
  8
Etch
 62
256
370
-1
  6
ByLayer
 10
109.2638418622436234
 20
89.9957496455824213
 30
0.0
 11
108.7168418622436263
 21
89.0707496455824241
 31
0.0
  0
LINE
  5
98
100
AcDbEntity
100
AcDbLine
  8
Etch
 62
256
370
-1
  6
ByLayer
 10
108.7168418622436263
 20
89.0707496455824241
 30
0.0
 11
104.5238418622436285
 21
80.8427496455824297
 31
0.0
  0
LINE
  5
99
100
AcDbEntity
100
AcDbLine
  8
Etch
 62
256
370
-1
  6
ByLayer
 10
104.5238418622436285
 20
80.8427496455824297
 30
0.0
 11
100.8568418622436269
 21
72.3667496455824306
 31
0.0
  0
LINE
  5
9A
100
AcDbEntity
100
AcDbLine
  8
Etch
 62
256
370
-1
  6
ByLayer
 10
100.8568418622436269
 20
72.3667496455824306
 30
0.0
 11
97.7288418622436268
 21
63.6777496455824235
 31
0.0
  0
LINE
  5
9B
100
AcDbEntity
100
AcDbLine
  8
Etch
 62
256
370
-1
  6
ByLayer
 10
97.7288418622436268
 20
63.6777496455824235
 30
0.0
 11
95.1518418622436286
 21
54.8097496455824285
 31
0.0
  0
LINE
  5
9C
100
AcDbEntity
100
AcDbLine
  8
Etch
 62
256
370
-1
  6
ByLayer
 10
95.1518418622436286
 20
54.8097496455824285
 30
0.0
 11
94.6338418622436279
 21
52.4917496455824235
 31
0.0
  0
LINE
  5
9D
100
AcDbEntity
100
AcDbLine
  8
Etch
 62
256
370
-1
  6
ByLayer
 10
94.6338418622436279
 20
52.4917496455824235
 30
0.0
 11
89.2768418622436286
 21
56.0187496455824245
 31
0.0
  0
LINE
  5
9E
100
AcDbEntity
100
AcDbLine
  8
Etch
 62
256
370
-1
  6
ByLayer
 10
89.2768418622436286
 20
56.0187496455824245
 30
0.0
 11
89.3408418622436216
 21
56.3027496455824235
 31
0.0
  0
LINE
  5
9F
100
AcDbEntity
100
AcDbLine
  8
Etch
 62
256
370
-1
  6
ByLayer
 10
89.3408418622436216
 20
56.3027496455824235
 30
0.0
 11
92.0218418622436189
 21
65.5327496455824274
 31
0.0
  0
LINE
  5
A0
100
AcDbEntity
100
AcDbLine
  8
Etch
 62
256
370
-1
  6
ByLayer
 10
92.0218418622436189
 20
65.5327496455824274
 30
0.0
 11
95.2778418622436192
 21
74.5757496455824196
 31
0.0
  0
LINE
  5
A1
100
AcDbEntity
100
AcDbLine
  8
Etch
 62
256
370
-1
  6
ByLayer
 10
95.2778418622436192
 20
74.5757496455824196
 30
0.0
 11
99.0948418622436265
 21
83.3967496455824318
 31
0.0
  0
LINE
  5
A2
100
AcDbEntity
100
AcDbLine
  8
Etch
 62
256
370
-1
  6
ByLayer
 10
99.0948418622436265
 20
83.3967496455824318
 30
0.0
 11
103.4588418622436166
 21
91.9607496455824247
 31
0.0
  0
LINE
  5
A3
100
AcDbEntity
100
AcDbLine
  8
Etch
 62
256
370
-1
  6
ByLayer
 10
103.4588418622436166
 20
91.9607496455824247
 30
0.0
 11
106.8838418622436279
 21
97.7527496455824263
 31
0.0
  0
LINE
  5
A4
100
AcDbEntity
100
AcDbLine
  8
Etch
 62
256
370
-1
  6
ByLayer
 10
106.8838418622436279
 20
97.7527496455824263
 30
0.0
 11
62.2638418622436234
 21
97.7527496455824263
 31
0.0
  0
CIRCLE
  5
A5
100
AcDbEntity
100
AcDbCircle
  8
Cut
 62
256
370
-1
  6
ByLayer
 10
190.0
 20
280.0
 30
0.0
 40
8.0
  0
LINE
  5
A6
100
AcDbEntity
100
AcDbLine
  8
Cut
 62
256
370
-1
  6
ByLayer
 10
350.0
 20
40.0
 30
0.0
 11
350.0
 21
0.0
 31
0.0
  0
LINE
  5
A7
100
AcDbEntity
100
AcDbLine
  8
Cut
 62
256
370
-1
  6
ByLayer
 10
30.0
 20
40.0
 30
0.0
 11
30.0
 21
0.0
 31
0.0
  0
ARC
  5
A8
100
AcDbEntity
  8
Cut
 62
256
370
-1
  6
ByLayer
100
AcDbCircle
 10
335.0
 20
415.0
 30
0.0
 40
45.2769256906870865
100
AcDbArc
 50
353.6598082540900805
 51
83.6598082540900805
  0
LINE
  5
A9
100
AcDbEntity
100
AcDbLine
  8
Cut
 62
256
370
-1
  6
ByLayer
 10
380.0
 20
0.0
 30
0.0
 11
380.0
 21
410.0
 31
0.0
  0
ARC
  5
AA
100
AcDbEntity
  8
Cut
 62
256
370
-1
  6
ByLayer
100
AcDbCircle
 10
45.0000000000000071
 20
415.0
 30
0.0
 40
45.2769256906870865
100
AcDbArc
 50
96.3401917459099195
 51
186.3401917459098911
  0
LINE
  5
AB
100
AcDbEntity
100
AcDbLine
  8
Cut
 62
256
370
-1
  6
ByLayer
 10
0.0
 20
410.0
 30
0.0
 11
0.0
 21
0.0
 31
0.0
  0
LINE
  5
AC
100
AcDbEntity
100
AcDbLine
  8
Cut
 62
256
370
-1
  6
ByLayer
 10
0.0
 20
0.0
 30
0.0
 11
380.0
 21
0.0
 31
0.0
  0
MTEXT
  5
AD
100
AcDbEntity
100
AcDbMText
  8
Etch
 62
256
370
-1
  6
ByLayer
 10
228.4917841269947303
 20
90.9181968254010542
 30
0.0
 40
20.0
 41
100.0
 71
1
 72
2
  1
Morgan
  7
kochigothic
 50
0.0
 73
1
 44
1.0
  0
LINE
  5
AE
100
AcDbEntity
100
AcDbLine
  8
Etch
 62
256
370
-1
  6
ByLayer
 10
40.0
 20
20.0
 30
0.0
 11
340.0
 21
20.0
 31
0.0
  0
CIRCLE
  5
AF
100
AcDbEntity
100
AcDbCircle
  8
Cut-Optional
 62
256
370
-1
  6
ByLayer
 10
285.0
 20
40.0
 30
0.0
 40
6.0
  0
CIRCLE
  5
B0
100
AcDbEntity
100
AcDbCircle
  8
Cut-Optional
 62
256
370
-1
  6
ByLayer
 10
95.0
 20
40.0
 30
0.0
 40
6.0
  0
CIRCLE
  5
B1
100
AcDbEntity
100
AcDbCircle
  8
Cut-Optional
 62
256
370
-1
  6
ByLayer
 10
95.0
 20
280.0
 30
0.0
 40
6.0
  0
CIRCLE
  5
B2
100
AcDbEntity
100
AcDbCircle
  8
Cut-Optional
 62
256
370
-1
  6
ByLayer
 10
285.0
 20
280.0
 30
0.0
 40
6.0
  0
ENDSEC
  0
SECTION
  2
OBJECTS
  0
DICTIONARY
  5
C
100
AcDbDictionary
280
0
281
1
  3
ACAD_GROUP
350
D
  3
ACAD_LAYOUT
350
1A
  3
ACAD_MLINESTYLE
350
17
  3
ACAD_PLOTSETTINGS
350
19
  3
ACAD_PLOTSTYLENAME
350
E
  3
AcDbVariableDictionary
350
B3
  0
DICTIONARY
  5
D
100
AcDbDictionary
280
0
281
1
  0
ACDBDICTIONARYWDFLT
  5
E
100
AcDbDictionary
281
1
  3
Normal
350
F
100
AcDbDictionaryWithDefault
340
F
  0
ACDBPLACEHOLDER
  5
F
  0
DICTIONARY
  5
17
100
AcDbDictionary
280
0
281
1
  3
Standard
350
18
  0
MLINESTYLE
  5
18
100
AcDbMlineStyle
  2
STANDARD
 70
0
  3

 62
256
 51
90.0
 52
90.0
 71
2
 49
0.5
 62
256
  6
BYLAYER
 49
-0.5
 62
256
  6
BYLAYER
  0
DICTIONARY
  5
19
100
AcDbDictionary
280
0
281
1
  0
DICTIONARY
  5
1A
100
AcDbDictionary
281
1
  3
Layout1
350
1E
  3
Layout2
350
26
  3
Model
350
22
  0
LAYOUT
  5
1E
100
AcDbPlotSettings
  1

  2
C:\Program Files\AutoCAD 2002\plotters\DWF ePlot (optimized for plotting).pc3
  4

  6

 40
0.0
 41
0.0
 42
0.0
 43
0.0
 44
0.0
 45
0.0
 46
0.0
 47
0.0
 48
0.0
 49
0.0
140
0.0
141
0.0
142
1.0
143
1.0
 70
688
 72
0
 73
0
 74
5
  7

 75
16
147
1.0
148
0.0
149
0.0
100
AcDbLayout
  1
Layout1
 70
1
 71
1
 10
0.0
 20
0.0
 11
420.0
 21
297.0
 12
0.0
 22
0.0
 32
0.0
 14
100000000000000000000.0
 24
100000000000000000000.0
 34
100000000000000000000.0
 15
-100000000000000000000.0
 25
-100000000000000000000.0
 35
-100000000000000000000.0
146
0.0
 13
0.0
 23
0.0
 33
0.0
 16
1.0
 26
0.0
 36
0.0
 17
0.0
 27
1.0
 37
0.0
 76
0
330
1B
  0
LAYOUT
  5
22
100
AcDbPlotSettings
  1

  2
C:\Program Files\AutoCAD 2002\plotters\DWF ePlot (optimized for plotting).pc3
  4

  6

 40
0.0
 41
0.0
 42
0.0
 43
0.0
 44
0.0
 45
0.0
 46
0.0
 47
0.0
 48
0.0
 49
0.0
140
0.0
141
0.0
142
1.0
143
1.0
 70
1712
 72
0
 73
0
 74
0
  7

 75
0
147
1.0
148
0.0
149
0.0
100
AcDbLayout
  1
Model
 70
1
 71
0
 10
0.0
 20
0.0
 11
12.0
 21
9.0
 12
0.0
 22
0.0
 32
0.0
 14
0.0
 24
0.0
 34
0.0
 15
0.0
 25
0.0
 35
0.0
146
0.0
 13
0.0
 23
0.0
 33
0.0
 16
1.0
 26
0.0
 36
0.0
 17
0.0
 27
1.0
 37
0.0
 76
0
330
1F
  0
LAYOUT
  5
26
100
AcDbPlotSettings
  1

  2
C:\Program Files\AutoCAD 2002\plotters\DWF ePlot (optimized for plotting).pc3
  4

  6

 40
0.0
 41
0.0
 42
0.0
 43
0.0
 44
0.0
 45
0.0
 46
0.0
 47
0.0
 48
0.0
 49
0.0
140
0.0
141
0.0
142
1.0
143
1.0
 70
688
 72
0
 73
0
 74
5
  7

 75
16
147
1.0
148
0.0
149
0.0
100
AcDbLayout
  1
Layout2
 70
1
 71
2
 10
0.0
 20
0.0
 11
12.0
 21
9.0
 12
0.0
 22
0.0
 32
0.0
 14
0.0
 24
0.0
 34
0.0
 15
0.0
 25
0.0
 35
0.0
146
0.0
 13
0.0
 23
0.0
 33
0.0
 16
1.0
 26
0.0
 36
0.0
 17
0.0
 27
1.0
 37
0.0
 76
0
330
23
  0
DICTIONARY
  5
B3
100
AcDbDictionary
281
1
  3
DIMASSOC
350
B5
  3
HIDETEXT
350
B4
  0
DICTIONARYVAR
  5
B4
100
DictionaryVariables
280
0
  1
2
  0
DICTIONARYVAR
  5
B5
100
DictionaryVariables
280
0
  1
1
  0
IMAGEDEF
  5
53
100
AcDbRasterImageDef
 90
0
  1
/home/qharley/Dropbox/Morgan/RepRAP Morgan SCARA/SCARA Cal/SCARA-CAL1.dxf
 10
1.0
 20
1.0
 11
1.0
 21
1.0
280
1
281
0
  0
ENDSEC
  0
EOF
