999
dxfrw 0.5.10
0
SECTION
2
HEADER
9
$ACADVER
1
AC1021
9
$HANDSEED
5
20000
9
$DWGCODEPAGE
3
ANSI_1252
9
$INSBASE
10
0
20
0
30
0
9
$EXTMIN
10
-4.97379915032e-12
20
-0.2769256907
30
0
9
$EXTMAX
10
460
20
400.276925691
30
0
9
$LIMMIN
10
0
20
0
9
$LIMMAX
10
12
20
9
9
$ORTHOMODE
70
0
9
$LTSCALE
40
1
9
$TEXTSTYLE
7
Standard
9
$DIMASZ
40
2.5
9
$DIMSCALE
40
1
9
$DIMEXO
40
0.625
9
$DIMEXE
40
1.25
9
$DIMTXT
40
2.5
9
$DIMTSZ
40
0
9
$DIMAUNIT
70
0
9
$DIMADEC
70
2
9
$DIMLUNIT
70
2
9
$DIMSTYLE
2
Standard
9
$DIMGAP
40
0.625
9
$DIMTIH
70
1
9
$LUNITS
70
2
9
$LUPREC
70
4
9
$AUNITS
70
0
9
$AUPREC
70
2
9
$SPLINESEGS
70
8
9
$GRIDMODE
70
1
9
$SNAPSTYLE
70
0
9
$PINSBASE
10
12.7734100866
20
74.9663693061
30
0
9
$PLIMMIN
10
0
20
0
9
$PLIMMAX
10
420
20
594
9
$INSUNITS
70
4
9
$PSVPSCALE
40
0.986816136417
0
ENDSEC
0
SECTION
2
CLASSES
0
ENDSEC
0
SECTION
2
TABLES
0
TABLE
2
VPORT
5
8
330
0
100
AcDbSymbolTable
70
1
0
VPORT
5
31
330
2
100
AcDbSymbolTableRecord
100
AcDbViewportTableRecord
2
*ACTIVE
70
0
10
0
20
0
11
1
21
1
12
428.275717941
22
242.999306103
13
0
23
0
14
10
24
10
15
10
25
10
16
0
26
0
36
1
17
0
27
0
37
0
40
506.272018973
41
1.82202447164
42
50
43
0
44
0
50
0
51
0
71
0
72
100
73
1
74
3
75
0
76
1
77
0
78
0
281
0
65
1
110
0
120
0
130
0
111
1
121
0
131
0
112
0
122
1
132
0
79
0
146
0
348
10020
60
7
61
5
292
1
282
1
141
0
142
0
63
250
421
3358443
0
ENDTAB
0
TABLE
2
LTYPE
5
5
330
0
100
AcDbSymbolTable
70
4
0
LTYPE
5
14
330
5
100
AcDbSymbolTableRecord
100
AcDbLinetypeTableRecord
2
ByBlock
70
0
3

72
65
73
0
40
0
0
LTYPE
5
15
330
5
100
AcDbSymbolTableRecord
100
AcDbLinetypeTableRecord
2
ByLayer
70
0
3

72
65
73
0
40
0
0
LTYPE
5
16
330
5
100
AcDbSymbolTableRecord
100
AcDbLinetypeTableRecord
2
Continuous
70
0
3
Solid line
72
65
73
0
40
0
0
LTYPE
5
32
330
5
100
AcDbSymbolTableRecord
100
AcDbLinetypeTableRecord
2
DOT
70
0
3
Dot . . . . . . . . . . . . . . . . . . . . . .
72
65
73
2
40
6.35
49
0
74
0
49
-6.35
74
0
0
LTYPE
5
33
330
5
100
AcDbSymbolTableRecord
100
AcDbLinetypeTableRecord
2
DOT2
70
0
3
Dot (.5x) .....................................
72
65
73
2
40
3.175
49
0
74
0
49
-3.175
74
0
0
LTYPE
5
34
330
5
100
AcDbSymbolTableRecord
100
AcDbLinetypeTableRecord
2
DOTX2
70
0
3
Dot (2x) .  .  .  .  .  .  .  .  .  .  .  .  .
72
65
73
2
40
12.7
49
0
74
0
49
-12.7
74
0
0
LTYPE
5
35
330
5
100
AcDbSymbolTableRecord
100
AcDbLinetypeTableRecord
2
DASHED
70
0
3
Dot . . . . . . . . . . . . . . . . . . . . . .
72
65
73
2
40
19.05
49
12.7
74
0
49
-6.35
74
0
0
LTYPE
5
36
330
5
100
AcDbSymbolTableRecord
100
AcDbLinetypeTableRecord
2
DASHED2
70
0
3
Dashed (.5x) _ _ _ _ _ _ _ _ _ _ _ _ _ _ _ _ _
72
65
73
2
40
9.525
49
6.35
74
0
49
-3.175
74
0
0
LTYPE
5
37
330
5
100
AcDbSymbolTableRecord
100
AcDbLinetypeTableRecord
2
DASHEDX2
70
0
3
Dashed (2x) ____  ____  ____  ____  ____  ___
72
65
73
2
40
38.1
49
25.4
74
0
49
-12.7
74
0
0
LTYPE
5
38
330
5
100
AcDbSymbolTableRecord
100
AcDbLinetypeTableRecord
2
DASHDOT
70
0
3
Dash dot __ . __ . __ . __ . __ . __ . __ . __
72
65
73
4
40
25.4
49
12.7
74
0
49
-6.35
74
0
49
0
74
0
49
-6.35
74
0
0
LTYPE
5
39
330
5
100
AcDbSymbolTableRecord
100
AcDbLinetypeTableRecord
2
DASHDOT2
70
0
3
Dash dot (.5x) _._._._._._._._._._._._._._._.
72
65
73
4
40
12.7
49
6.35
74
0
49
-3.175
74
0
49
0
74
0
49
-3.175
74
0
0
LTYPE
5
3A
330
5
100
AcDbSymbolTableRecord
100
AcDbLinetypeTableRecord
2
DASHDOTX2
70
0
3
Dash dot (2x) ____  .  ____  .  ____  .  ___
72
65
73
4
40
50.8
49
25.4
74
0
49
-12.7
74
0
49
0
74
0
49
-12.7
74
0
0
LTYPE
5
3B
330
5
100
AcDbSymbolTableRecord
100
AcDbLinetypeTableRecord
2
DIVIDE
70
0
3
Divide ____ . . ____ . . ____ . . ____ . . ____
72
65
73
6
40
31.75
49
12.7
74
0
49
-6.35
74
0
49
0
74
0
49
-6.35
74
0
49
0
74
0
49
-6.35
74
0
0
LTYPE
5
3C
330
5
100
AcDbSymbolTableRecord
100
AcDbLinetypeTableRecord
2
DIVIDE2
70
0
3
Divide (.5x) __..__..__..__..__..__..__..__.._
72
65
73
6
40
15.875
49
6.35
74
0
49
-3.175
74
0
49
0
74
0
49
-3.175
74
0
49
0
74
0
49
-3.175
74
0
0
LTYPE
5
3D
330
5
100
AcDbSymbolTableRecord
100
AcDbLinetypeTableRecord
2
DIVIDEX2
70
0
3
Divide (2x) ________  .  .  ________  .  .  _
72
65
73
6
40
63.5
49
25.4
74
0
49
-12.7
74
0
49
0
74
0
49
-12.7
74
0
49
0
74
0
49
-12.7
74
0
0
LTYPE
5
3E
330
5
100
AcDbSymbolTableRecord
100
AcDbLinetypeTableRecord
2
BORDER
70
0
3
Border __ __ . __ __ . __ __ . __ __ . __ __ .
72
65
73
6
40
44.45
49
12.7
74
0
49
-6.35
74
0
49
12.7
74
0
49
-6.35
74
0
49
0
74
0
49
-6.35
74
0
0
LTYPE
5
3F
330
5
100
AcDbSymbolTableRecord
100
AcDbLinetypeTableRecord
2
BORDER2
70
0
3
Border (.5x) __.__.__.__.__.__.__.__.__.__.__.
72
65
73
6
40
22.225
49
6.35
74
0
49
-3.175
74
0
49
6.35
74
0
49
-3.175
74
0
49
0
74
0
49
-3.175
74
0
0
LTYPE
5
40
330
5
100
AcDbSymbolTableRecord
100
AcDbLinetypeTableRecord
2
BORDERX2
70
0
3
Border (2x) ____  ____  .  ____  ____  .  ___
72
65
73
6
40
88.9
49
25.4
74
0
49
-12.7
74
0
49
25.4
74
0
49
-12.7
74
0
49
0
74
0
49
-12.7
74
0
0
LTYPE
5
41
330
5
100
AcDbSymbolTableRecord
100
AcDbLinetypeTableRecord
2
CENTER
70
0
3
Center ____ _ ____ _ ____ _ ____ _ ____ _ ____
72
65
73
4
40
50.8
49
31.75
74
0
49
-6.35
74
0
49
6.35
74
0
49
-6.35
74
0
0
LTYPE
5
42
330
5
100
AcDbSymbolTableRecord
100
AcDbLinetypeTableRecord
2
CENTER2
70
0
3
Center (.5x) ___ _ ___ _ ___ _ ___ _ ___ _ ___
72
65
73
4
40
28.575
49
19.05
74
0
49
-3.175
74
0
49
3.175
74
0
49
-3.175
74
0
0
LTYPE
5
43
330
5
100
AcDbSymbolTableRecord
100
AcDbLinetypeTableRecord
2
CENTERX2
70
0
3
Center (2x) ________  __  ________  __  _____
72
65
73
4
40
101.6
49
63.5
74
0
49
-12.7
74
0
49
12.7
74
0
49
-12.7
74
0
0
ENDTAB
0
TABLE
2
LAYER
5
2
330
0
100
AcDbSymbolTable
70
1
0
LAYER
5
10
330
2
100
AcDbSymbolTableRecord
100
AcDbLayerTableRecord
2
0
70
0
62
7
6
CONTINUOUS
370
0
390
F
0
ENDTAB
0
TABLE
2
STYLE
5
3
330
0
100
AcDbSymbolTable
70
3
0
STYLE
5
44
330
2
100
AcDbSymbolTableRecord
100
AcDbTextStyleTableRecord
2
Standard
70
0
40
0
41
1
50
0
71
0
42
1
3
txt
4

0
ENDTAB
0
TABLE
2
VIEW
5
6
330
0
100
AcDbSymbolTable
70
0
0
ENDTAB
0
TABLE
2
UCS
5
7
330
0
100
AcDbSymbolTable
70
0
0
ENDTAB
0
TABLE
2
APPID
5
9
330
0
100
AcDbSymbolTable
70
1
0
APPID
5
12
330
9
100
AcDbSymbolTableRecord
100
AcDbRegAppTableRecord
2
ACAD
70
0
0
ENDTAB
0
TABLE
2
DIMSTYLE
5
A
330
0
100
AcDbSymbolTable
70
1
100
AcDbDimStyleTable
71
1
0
DIMSTYLE
105
45
330
A
100
AcDbSymbolTableRecord
100
AcDbDimStyleTableRecord
2
Standard
70
0
40
1
41
2.5
42
0.625
43
0.38
44
1.25
45
0
46
0
47
0
48
0
140
2.5
141
0.09
142
0
143
25.4
144
1
145
0
146
1
147
0.625
148
0
71
0
72
0
73
0
74
1
75
0
76
0
77
0
78
0
79
0
170
0
171
2
172
0
173
0
174
0
175
0
176
0
177
0
178
0
179
0
271
4
272
4
273
2
274
2
275
0
276
0
277
2
278
46
279
0
280
0
281
0
282
0
283
1
284
0
285
0
286
0
288
0
289
3
340
Standard
341

371
-2
372
-2
0
ENDTAB
0
TABLE
2
BLOCK_RECORD
5
1
330
0
100
AcDbSymbolTable
70
2
0
BLOCK_RECORD
5
1F
330
1
100
AcDbSymbolTableRecord
100
AcDbBlockTableRecord
2
*Model_Space
70
0
280
1
281
0
0
BLOCK_RECORD
5
1E
330
1
100
AcDbSymbolTableRecord
100
AcDbBlockTableRecord
2
*Paper_Space
70
0
280
1
281
0
0
BLOCK_RECORD
5
46
330
1
100
AcDbSymbolTableRecord
100
AcDbBlockTableRecord
2
1
70
0
280
1
281
0
0
BLOCK_RECORD
5
49
330
1
100
AcDbSymbolTableRecord
100
AcDbBlockTableRecord
2
2
70
0
280
1
281
0
0
BLOCK_RECORD
5
4C
330
1
100
AcDbSymbolTableRecord
100
AcDbBlockTableRecord
2
3
70
0
280
1
281
0
0
BLOCK_RECORD
5
4F
330
1
100
AcDbSymbolTableRecord
100
AcDbBlockTableRecord
2
4
70
0
280
1
281
0
0
ENDTAB
0
ENDSEC
0
SECTION
2
BLOCKS
0
BLOCK
5
20
330
1F
100
AcDbEntity
8
0
100
AcDbBlockBegin
2
*Model_Space
70
0
10
0
20
0
30
0
3
*Model_Space
1

0
ENDBLK
5
21
330
1F
100
AcDbEntity
8
0
100
AcDbBlockEnd
0
BLOCK
5
1C
330
1B
100
AcDbEntity
8
0
100
AcDbBlockBegin
2
*Paper_Space
70
0
10
0
20
0
30
0
3
*Paper_Space
1

0
ENDBLK
5
1D
330
1F
100
AcDbEntity
8
0
100
AcDbBlockEnd
0
BLOCK
5
47
330
46
100
AcDbEntity
8
0
100
AcDbBlockBegin
2
1
70
0
10
0
20
0
3
1
1

0
ENDBLK
5
48
330
46
100
AcDbEntity
8
0
100
AcDbBlockEnd
0
BLOCK
5
4A
330
49
100
AcDbEntity
8
0
100
AcDbBlockBegin
2
2
70
0
10
0
20
0
3
2
1

0
ENDBLK
5
4B
330
49
100
AcDbEntity
8
0
100
AcDbBlockEnd
0
BLOCK
5
4D
330
4C
100
AcDbEntity
8
0
100
AcDbBlockBegin
2
3
70
0
10
0
20
0
3
3
1

0
ENDBLK
5
4E
330
4C
100
AcDbEntity
8
0
100
AcDbBlockEnd
0
BLOCK
5
50
330
4F
100
AcDbEntity
8
0
100
AcDbBlockBegin
2
4
70
0
10
0
20
0
3
4
1

0
ENDBLK
5
51
330
4F
100
AcDbEntity
8
0
100
AcDbBlockEnd
0
ENDSEC
0
SECTION
2
ENTITIES
0
CIRCLE
5
52
100
AcDbEntity
8
0
6
ByLayer
62
256
370
-1
100
AcDbCircle
10
420
20
60
40
2
0
CIRCLE
5
53
100
AcDbEntity
8
0
6
ByLayer
62
256
370
-1
100
AcDbCircle
10
420
20
340
40
2
0
CIRCLE
5
54
100
AcDbEntity
8
0
6
ByLayer
62
256
370
-1
100
AcDbCircle
10
290
20
180
40
2
0
CIRCLE
5
55
100
AcDbEntity
8
0
6
ByLayer
62
256
370
-1
100
AcDbCircle
10
290
20
220
40
2
0
CIRCLE
5
56
100
AcDbEntity
8
0
6
ByLayer
62
256
370
-1
100
AcDbCircle
10
420
20
200
40
13
0
CIRCLE
5
57
100
AcDbEntity
8
0
6
ByLayer
62
256
370
-1
100
AcDbCircle
10
317.469516728
20
302.530483272
40
2
0
CIRCLE
5
58
100
AcDbEntity
8
0
6
ByLayer
62
256
370
-1
100
AcDbCircle
10
317.469516728
20
97.469516728
40
2
0
CIRCLE
5
59
100
AcDbEntity
8
0
6
ByLayer
62
256
370
-1
100
AcDbCircle
10
180
20
50
40
2
0
CIRCLE
5
5A
100
AcDbEntity
8
0
6
ByLayer
62
256
370
-1
100
AcDbCircle
10
180
20
350
40
2
0
CIRCLE
5
5B
100
AcDbEntity
8
0
6
ByLayer
62
256
370
-1
100
AcDbCircle
10
30
20
270
40
2
0
CIRCLE
5
5C
100
AcDbEntity
8
0
6
ByLayer
62
256
370
-1
100
AcDbCircle
10
30
20
130
40
2
0
CIRCLE
5
5D
100
AcDbEntity
8
0
6
ByLayer
62
256
370
-1
100
AcDbCircle
10
180
20
200
40
8
0
ARC
5
5E
100
AcDbEntity
8
0
6
ByLayer
62
256
370
-1
100
AcDbCircle
10
460
20
1.81898940355e-12
40
0
100
AcDbArc
50
90
51
90
0
CIRCLE
5
5F
100
AcDbEntity
8
0
6
ByLayer
62
256
370
-1
100
AcDbCircle
10
250
20
190
40
2
0
CIRCLE
5
60
100
AcDbEntity
8
0
6
ByLayer
62
256
370
-1
100
AcDbCircle
10
250
20
210
40
2
0
CIRCLE
5
61
100
AcDbEntity
8
0
6
ByLayer
62
256
370
-1
100
AcDbCircle
10
171
20
296.5
40
2
0
CIRCLE
5
62
100
AcDbEntity
8
0
6
ByLayer
62
256
370
-1
100
AcDbCircle
10
189
20
296.5
40
2
0
CIRCLE
5
63
100
AcDbEntity
8
0
6
ByLayer
62
256
370
-1
100
AcDbCircle
10
189
20
103.5
40
2
0
CIRCLE
5
64
100
AcDbEntity
8
0
6
ByLayer
62
256
370
-1
100
AcDbCircle
10
171
20
103.5
40
2
0
CIRCLE
5
65
100
AcDbEntity
8
0
6
ByLayer
62
256
370
-1
100
AcDbCircle
10
411
20
296.5
40
2
0
CIRCLE
5
66
100
AcDbEntity
8
0
6
ByLayer
62
256
370
-1
100
AcDbCircle
10
429
20
296.5
40
2
0
CIRCLE
5
67
100
AcDbEntity
8
0
6
ByLayer
62
256
370
-1
100
AcDbCircle
10
429
20
103.5
40
2
0
CIRCLE
5
68
100
AcDbEntity
8
0
6
ByLayer
62
256
370
-1
100
AcDbCircle
10
411
20
103.5
40
2
0
ARC
5
69
100
AcDbEntity
8
0
6
ByLayer
62
256
370
-1
100
AcDbCircle
10
460
20
1.81898940355e-12
40
0
100
AcDbArc
50
90
51
90
0
LINE
5
6A
100
AcDbEntity
8
0
6
ByLayer
62
256
370
-1
100
AcDbLine
10
383
20
189
11
377
21
189
0
LINE
5
6B
100
AcDbEntity
8
0
6
ByLayer
62
256
370
-1
100
AcDbLine
10
377
20
211
11
383
21
211
0
ARC
5
6C
100
AcDbEntity
8
0
6
ByLayer
62
256
370
-1
100
AcDbCircle
10
377
20
200
40
11
100
AcDbArc
50
90
51
270
0
ARC
5
6D
100
AcDbEntity
8
0
6
ByLayer
62
256
370
-1
100
AcDbCircle
10
383
20
200
40
11
100
AcDbArc
50
270
51
90
0
LINE
5
6E
100
AcDbEntity
8
0
6
ByLayer
62
256
370
-1
100
AcDbLine
10
362
20
182.5
11
368
21
182.5
0
LINE
5
6F
100
AcDbEntity
8
0
6
ByLayer
62
256
370
-1
100
AcDbLine
10
362
20
187.5
11
368
21
187.5
0
ARC
5
70
100
AcDbEntity
8
0
6
ByLayer
62
256
370
-1
100
AcDbCircle
10
362
20
185
40
2.5
100
AcDbArc
50
90
51
270
0
ARC
5
71
100
AcDbEntity
8
0
6
ByLayer
62
256
370
-1
100
AcDbCircle
10
368
20
185
40
2.5
100
AcDbArc
50
270
51
90
0
LINE
5
72
100
AcDbEntity
8
0
6
ByLayer
62
256
370
-1
100
AcDbLine
10
362
20
212.5
11
368
21
212.5
0
LINE
5
73
100
AcDbEntity
8
0
6
ByLayer
62
256
370
-1
100
AcDbLine
10
362
20
217.5
11
368
21
217.5
0
LINE
5
74
100
AcDbEntity
8
0
6
ByLayer
62
256
370
-1
100
AcDbLine
10
392
20
212.5
11
398
21
212.5
0
LINE
5
75
100
AcDbEntity
8
0
6
ByLayer
62
256
370
-1
100
AcDbLine
10
392
20
217.5
11
398
21
217.5
0
LINE
5
76
100
AcDbEntity
8
0
6
ByLayer
62
256
370
-1
100
AcDbLine
10
392
20
187.5
11
398
21
187.5
0
LINE
5
77
100
AcDbEntity
8
0
6
ByLayer
62
256
370
-1
100
AcDbLine
10
392
20
182.5
11
398
21
182.5
0
ARC
5
78
100
AcDbEntity
8
0
6
ByLayer
62
256
370
-1
100
AcDbCircle
10
362
20
215
40
2.5
100
AcDbArc
50
90
51
270
0
ARC
5
79
100
AcDbEntity
8
0
6
ByLayer
62
256
370
-1
100
AcDbCircle
10
368
20
215
40
2.5
100
AcDbArc
50
270
51
90
0
ARC
5
7A
100
AcDbEntity
8
0
6
ByLayer
62
256
370
-1
100
AcDbCircle
10
392
20
215
40
2.5
100
AcDbArc
50
90
51
270
0
ARC
5
7B
100
AcDbEntity
8
0
6
ByLayer
62
256
370
-1
100
AcDbCircle
10
398
20
215
40
2.5
100
AcDbArc
50
270
51
90
0
ARC
5
7C
100
AcDbEntity
8
0
6
ByLayer
62
256
370
-1
100
AcDbCircle
10
398
20
185
40
2.5
100
AcDbArc
50
270
51
90
0
ARC
5
7D
100
AcDbEntity
8
0
6
ByLayer
62
256
370
-1
100
AcDbCircle
10
392
20
185
40
2.5
100
AcDbArc
50
90
51
270
0
ARC
5
7E
100
AcDbEntity
8
0
6
ByLayer
62
256
370
-1
100
AcDbCircle
10
450
20
50
40
10
100
AcDbArc
50
270
51
360
0
LINE
5
7F
100
AcDbEntity
8
0
6
ByLayer
62
256
370
-1
100
AcDbLine
10
460
20
50
11
460
21
350
0
ARC
5
80
100
AcDbEntity
8
0
6
ByLayer
62
256
370
-1
100
AcDbCircle
10
450
20
350
40
10
100
AcDbArc
50
9.43988629458e-12
51
90
0
LINE
5
81
100
AcDbEntity
8
0
6
ByLayer
62
256
370
-1
100
AcDbLine
10
399.109688839
20
144.425929168
11
402.173866611
21
146.997079607
0
ARC
5
82
100
AcDbEntity
8
0
6
ByLayer
62
256
370
-1
100
AcDbCircle
10
369.999999999
20
120
40
42.0000000004
100
AcDbArc
50
39.9999999995
51
79.9999999994
0
LINE
5
83
100
AcDbEntity
8
0
6
ByLayer
62
256
370
-1
100
AcDbLine
10
377.293223462
20
161.361925627
11
376.598630751
21
157.422694614
0
ARC
5
84
100
AcDbEntity
8
0
6
ByLayer
62
256
370
-1
100
AcDbCircle
10
370.000000001
20
119.999999999
40
38.0000000009
100
AcDbArc
50
40.0000000017
51
80.0000000016
0
LINE
5
85
100
AcDbEntity
8
0
6
ByLayer
62
256
370
-1
100
AcDbLine
10
337.826133389
20
93.0029203932
11
340.890311161
21
95.5740708319
0
ARC
5
86
100
AcDbEntity
8
0
6
ByLayer
62
256
370
-1
100
AcDbCircle
10
370
20
120.000000001
40
38.0000000012
100
AcDbArc
50
220.000000001
51
260.000000001
0
LINE
5
87
100
AcDbEntity
8
0
6
ByLayer
62
256
370
-1
100
AcDbLine
10
363.401369249
20
82.5773053855
11
362.706776538
21
78.6380743735
0
ARC
5
88
100
AcDbEntity
8
0
6
ByLayer
62
256
370
-1
100
AcDbCircle
10
370
20
120
40
42.0000000001
100
AcDbArc
50
220
51
260
0
LINE
5
89
100
AcDbEntity
8
0
6
ByLayer
62
256
370
-1
100
AcDbLine
10
460
20
10
11
460
21
30
0
ARC
5
8A
100
AcDbEntity
8
0
6
ByLayer
62
256
370
-1
100
AcDbCircle
10
450
20
30
40
10
100
AcDbArc
50
9.31266410733e-12
51
90
0
LINE
5
8B
100
AcDbEntity
8
0
6
ByLayer
62
256
370
-1
100
AcDbLine
10
450
20
40
11
420
21
40
0
ARC
5
8C
100
AcDbEntity
8
0
6
ByLayer
62
256
370
-1
100
AcDbCircle
10
420
20
200
40
160
100
AcDbArc
50
90
51
270
0
LINE
5
8D
100
AcDbEntity
8
0
6
ByLayer
62
256
370
-1
100
AcDbLine
10
420
20
360
11
450
21
360
0
ARC
5
8E
100
AcDbEntity
8
0
6
ByLayer
62
256
370
-1
100
AcDbCircle
10
450
20
370
40
10
100
AcDbArc
50
270
51
360
0
LINE
5
8F
100
AcDbEntity
8
0
6
ByLayer
62
256
370
-1
100
AcDbLine
10
460
20
370
11
460
21
390
0
ARC
5
90
100
AcDbEntity
8
0
6
ByLayer
62
256
370
-1
100
AcDbCircle
10
450
20
390
40
10
100
AcDbArc
50
9.43988629458e-12
51
90
0
LINE
5
91
100
AcDbEntity
8
0
6
ByLayer
62
256
370
-1
100
AcDbLine
10
450
20
400
11
50
21
400
0
ARC
5
92
100
AcDbEntity
8
0
6
ByLayer
62
256
370
-1
100
AcDbCircle
10
45
20
355
40
45.2769256907
100
AcDbArc
50
83.6598082541
51
173.659808254
0
LINE
5
93
100
AcDbEntity
8
0
6
ByLayer
62
256
370
-1
100
AcDbLine
10
-1.42108547152e-14
20
360
11
0
21
40
0
ARC
5
94
100
AcDbEntity
8
0
6
ByLayer
62
256
370
-1
100
AcDbCircle
10
45
20
45
40
45.2769256907
100
AcDbArc
50
186.340191746
51
276.340191746
0
LINE
5
95
100
AcDbEntity
8
0
6
ByLayer
62
256
370
-1
100
AcDbLine
10
50
20
1.81898940355e-12
11
450
21
1.82254211722e-12
0
ARC
5
96
100
AcDbEntity
8
0
6
ByLayer
62
256
370
-1
100
AcDbCircle
10
450
20
10
40
10
100
AcDbArc
50
270
51
360
0
ARC
5
97
100
AcDbEntity
8
0
6
ByLayer
62
256
370
-1
100
AcDbCircle
10
450
20
10
40
10
100
AcDbArc
50
270
51
360
0
CIRCLE
5
98
100
AcDbEntity
8
0
6
ByLayer
62
256
370
-1
100
AcDbCircle
10
420
20
295
40
6
0
CIRCLE
5
99
100
AcDbEntity
8
0
6
ByLayer
62
256
370
-1
100
AcDbCircle
10
420
20
105
40
6
0
CIRCLE
5
9A
100
AcDbEntity
8
0
6
ByLayer
62
256
370
-1
100
AcDbCircle
10
180
20
105
40
6
0
CIRCLE
5
9B
100
AcDbEntity
8
0
6
ByLayer
62
256
370
-1
100
AcDbCircle
10
180
20
295
40
6
0
CIRCLE
5
9C
100
AcDbEntity
8
0
6
ByLayer
62
256
370
-1
100
AcDbCircle
10
196.253301326
20
121.788989643
40
2
0
CIRCLE
5
9D
100
AcDbEntity
8
0
6
ByLayer
62
256
370
-1
100
AcDbCircle
10
239.288989643
20
146.246698674
40
2
0
CIRCLE
5
9E
100
AcDbEntity
8
0
6
ByLayer
62
256
370
-1
100
AcDbCircle
10
263.746698674
20
103.211010357
40
2
0
CIRCLE
5
9F
100
AcDbEntity
8
0
6
ByLayer
62
256
370
-1
100
AcDbCircle
10
220.711010357
20
78.7533013256
40
2
0
CIRCLE
5
A0
100
AcDbEntity
8
0
6
ByLayer
62
256
370
-1
100
AcDbCircle
10
220.827037309
20
321.278421447
40
2
0
CIRCLE
5
A1
100
AcDbEntity
8
0
6
ByLayer
62
256
370
-1
100
AcDbCircle
10
263.778421447
20
296.672962691
40
2
0
CIRCLE
5
A2
100
AcDbEntity
8
0
6
ByLayer
62
256
370
-1
100
AcDbCircle
10
239.172962691
20
253.721578553
40
2
0
CIRCLE
5
A3
100
AcDbEntity
8
0
6
ByLayer
62
256
370
-1
100
AcDbCircle
10
196.221578553
20
278.327037309
40
2
0
ENDSEC
0
SECTION
2
OBJECTS
0
DICTIONARY
5
C
330
0
100
AcDbDictionary
281
1
3
ACAD_GROUP
350
D
0
DICTIONARY
5
D
330
C
100
AcDbDictionary
281
1
0
ENDSEC
0
EOF
