  0
SECTION
  2
BLOCKS
  0
ENDSEC
  0
SECTION
  2
ENTITIES
  0
LINE
  8
0
 10
-107
 11
-107
 20
-99.5
 21
99.5
  0
LINE
  8
0
 10
-107
 11
-106.995
 20
99.5
 21
99.657
  0
LINE
  8
0
 10
-106.995
 11
-106.98
 20
99.657
 21
99.813
  0
LINE
  8
0
 10
-106.98
 11
-106.956
 20
99.813
 21
99.968
  0
LINE
  8
0
 10
-106.956
 11
-106.921
 20
99.968
 21
100.122
  0
LINE
  8
0
 10
-106.921
 11
-106.878
 20
100.122
 21
100.273
  0
LINE
  8
0
 10
-106.878
 11
-106.824
 20
100.273
 21
100.42
  0
LINE
  8
0
 10
-106.824
 11
-106.762
 20
100.42
 21
100.564
  0
LINE
  8
0
 10
-106.762
 11
-106.691
 20
100.564
 21
100.704
  0
LINE
  8
0
 10
-106.691
 11
-106.611
 20
100.704
 21
100.84
  0
LINE
  8
0
 10
-106.611
 11
-106.523
 20
100.84
 21
100.969
  0
LINE
  8
0
 10
-106.523
 11
-106.426
 20
100.969
 21
101.094
  0
LINE
  8
0
 10
-106.426
 11
-106.322
 20
101.094
 21
101.211
  0
LINE
  8
0
 10
-106.322
 11
-106.211
 20
101.211
 21
101.322
  0
LINE
  8
0
 10
-106.211
 11
-106.094
 20
101.322
 21
101.426
  0
LINE
  8
0
 10
-106.094
 11
-105.969
 20
101.426
 21
101.523
  0
LINE
  8
0
 10
-105.969
 11
-105.84
 20
101.523
 21
101.611
  0
LINE
  8
0
 10
-105.84
 11
-105.704
 20
101.611
 21
101.691
  0
LINE
  8
0
 10
-105.704
 11
-105.564
 20
101.691
 21
101.762
  0
LINE
  8
0
 10
-105.564
 11
-105.42
 20
101.762
 21
101.824
  0
LINE
  8
0
 10
-105.42
 11
-105.273
 20
101.824
 21
101.878
  0
LINE
  8
0
 10
-105.273
 11
-105.122
 20
101.878
 21
101.921
  0
LINE
  8
0
 10
-105.122
 11
-104.968
 20
101.921
 21
101.956
  0
LINE
  8
0
 10
-104.968
 11
-104.813
 20
101.956
 21
101.98
  0
LINE
  8
0
 10
-104.813
 11
-104.657
 20
101.98
 21
101.995
  0
LINE
  8
0
 10
-104.657
 11
-104.343
 20
101.995
 21
102.005
  0
LINE
  8
0
 10
-104.343
 11
-104.187
 20
102.005
 21
102.02
  0
LINE
  8
0
 10
-104.187
 11
-104.032
 20
102.02
 21
102.044
  0
LINE
  8
0
 10
-104.032
 11
-103.878
 20
102.044
 21
102.079
  0
LINE
  8
0
 10
-103.878
 11
-103.727
 20
102.079
 21
102.122
  0
LINE
  8
0
 10
-103.727
 11
-103.58
 20
102.122
 21
102.176
  0
LINE
  8
0
 10
-103.58
 11
-103.436
 20
102.176
 21
102.238
  0
LINE
  8
0
 10
-103.436
 11
-103.296
 20
102.238
 21
102.309
  0
LINE
  8
0
 10
-103.296
 11
-103.16
 20
102.309
 21
102.389
  0
LINE
  8
0
 10
-103.16
 11
-103.031
 20
102.389
 21
102.477
  0
LINE
  8
0
 10
-103.031
 11
-102.906
 20
102.477
 21
102.574
  0
LINE
  8
0
 10
-102.906
 11
-102.789
 20
102.574
 21
102.678
  0
LINE
  8
0
 10
-102.789
 11
-102.678
 20
102.678
 21
102.789
  0
LINE
  8
0
 10
-102.678
 11
-102.574
 20
102.789
 21
102.906
  0
LINE
  8
0
 10
-102.574
 11
-102.477
 20
102.906
 21
103.031
  0
LINE
  8
0
 10
-102.477
 11
-102.389
 20
103.031
 21
103.16
  0
LINE
  8
0
 10
-102.389
 11
-102.309
 20
103.16
 21
103.296
  0
LINE
  8
0
 10
-102.309
 11
-102.238
 20
103.296
 21
103.436
  0
LINE
  8
0
 10
-102.238
 11
-102.176
 20
103.436
 21
103.58
  0
LINE
  8
0
 10
-102.176
 11
-102.122
 20
103.58
 21
103.727
  0
LINE
  8
0
 10
-102.122
 11
-102.079
 20
103.727
 21
103.878
  0
LINE
  8
0
 10
-102.079
 11
-102.044
 20
103.878
 21
104.032
  0
LINE
  8
0
 10
-102.044
 11
-102.02
 20
104.032
 21
104.187
  0
LINE
  8
0
 10
-102.02
 11
-102.005
 20
104.187
 21
104.343
  0
LINE
  8
0
 10
-102.005
 11
-101.995
 20
104.343
 21
104.657
  0
LINE
  8
0
 10
-101.995
 11
-101.98
 20
104.657
 21
104.813
  0
LINE
  8
0
 10
-101.98
 11
-101.956
 20
104.813
 21
104.968
  0
LINE
  8
0
 10
-101.956
 11
-101.921
 20
104.968
 21
105.122
  0
LINE
  8
0
 10
-101.921
 11
-101.878
 20
105.122
 21
105.273
  0
LINE
  8
0
 10
-101.878
 11
-101.824
 20
105.273
 21
105.42
  0
LINE
  8
0
 10
-101.824
 11
-101.762
 20
105.42
 21
105.564
  0
LINE
  8
0
 10
-101.762
 11
-101.691
 20
105.564
 21
105.704
  0
LINE
  8
0
 10
-101.691
 11
-101.611
 20
105.704
 21
105.84
  0
LINE
  8
0
 10
-101.611
 11
-101.523
 20
105.84
 21
105.969
  0
LINE
  8
0
 10
-101.523
 11
-101.426
 20
105.969
 21
106.094
  0
LINE
  8
0
 10
-101.426
 11
-101.322
 20
106.094
 21
106.211
  0
LINE
  8
0
 10
-101.322
 11
-101.211
 20
106.211
 21
106.322
  0
LINE
  8
0
 10
-101.211
 11
-101.094
 20
106.322
 21
106.426
  0
LINE
  8
0
 10
-101.094
 11
-100.969
 20
106.426
 21
106.523
  0
LINE
  8
0
 10
-100.969
 11
-100.84
 20
106.523
 21
106.611
  0
LINE
  8
0
 10
-100.84
 11
-100.704
 20
106.611
 21
106.691
  0
LINE
  8
0
 10
-100.704
 11
-100.564
 20
106.691
 21
106.762
  0
LINE
  8
0
 10
-100.564
 11
-100.42
 20
106.762
 21
106.824
  0
LINE
  8
0
 10
-100.42
 11
-100.273
 20
106.824
 21
106.878
  0
LINE
  8
0
 10
-100.273
 11
-100.122
 20
106.878
 21
106.921
  0
LINE
  8
0
 10
-100.122
 11
-99.968
 20
106.921
 21
106.956
  0
LINE
  8
0
 10
-99.968
 11
-99.813
 20
106.956
 21
106.98
  0
LINE
  8
0
 10
-99.813
 11
-99.657
 20
106.98
 21
106.995
  0
LINE
  8
0
 10
-99.657
 11
-99.5
 20
106.995
 21
107
  0
LINE
  8
0
 10
-99.5
 11
99.5
 20
107
 21
107
  0
LINE
  8
0
 10
99.5
 11
99.657
 20
107
 21
106.995
  0
LINE
  8
0
 10
99.657
 11
99.813
 20
106.995
 21
106.98
  0
LINE
  8
0
 10
99.813
 11
99.968
 20
106.98
 21
106.956
  0
LINE
  8
0
 10
99.968
 11
100.122
 20
106.956
 21
106.921
  0
LINE
  8
0
 10
100.122
 11
100.273
 20
106.921
 21
106.878
  0
LINE
  8
0
 10
100.273
 11
100.42
 20
106.878
 21
106.824
  0
LINE
  8
0
 10
100.42
 11
100.564
 20
106.824
 21
106.762
  0
LINE
  8
0
 10
100.564
 11
100.704
 20
106.762
 21
106.691
  0
LINE
  8
0
 10
100.704
 11
100.84
 20
106.691
 21
106.611
  0
LINE
  8
0
 10
100.84
 11
100.969
 20
106.611
 21
106.523
  0
LINE
  8
0
 10
100.969
 11
101.094
 20
106.523
 21
106.426
  0
LINE
  8
0
 10
101.094
 11
101.211
 20
106.426
 21
106.322
  0
LINE
  8
0
 10
101.211
 11
101.322
 20
106.322
 21
106.211
  0
LINE
  8
0
 10
101.322
 11
101.426
 20
106.211
 21
106.094
  0
LINE
  8
0
 10
101.426
 11
101.523
 20
106.094
 21
105.969
  0
LINE
  8
0
 10
101.523
 11
101.611
 20
105.969
 21
105.84
  0
LINE
  8
0
 10
101.611
 11
101.691
 20
105.84
 21
105.704
  0
LINE
  8
0
 10
101.691
 11
101.762
 20
105.704
 21
105.564
  0
LINE
  8
0
 10
101.762
 11
101.824
 20
105.564
 21
105.42
  0
LINE
  8
0
 10
101.824
 11
101.878
 20
105.42
 21
105.273
  0
LINE
  8
0
 10
101.878
 11
101.921
 20
105.273
 21
105.122
  0
LINE
  8
0
 10
101.921
 11
101.956
 20
105.122
 21
104.968
  0
LINE
  8
0
 10
101.956
 11
101.98
 20
104.968
 21
104.813
  0
LINE
  8
0
 10
101.98
 11
101.995
 20
104.813
 21
104.657
  0
LINE
  8
0
 10
101.995
 11
102.005
 20
104.657
 21
104.343
  0
LINE
  8
0
 10
102.005
 11
102.02
 20
104.343
 21
104.187
  0
LINE
  8
0
 10
102.02
 11
102.044
 20
104.187
 21
104.032
  0
LINE
  8
0
 10
102.044
 11
102.079
 20
104.032
 21
103.878
  0
LINE
  8
0
 10
102.079
 11
102.122
 20
103.878
 21
103.727
  0
LINE
  8
0
 10
102.122
 11
102.176
 20
103.727
 21
103.58
  0
LINE
  8
0
 10
102.176
 11
102.238
 20
103.58
 21
103.436
  0
LINE
  8
0
 10
102.238
 11
102.309
 20
103.436
 21
103.296
  0
LINE
  8
0
 10
102.309
 11
102.389
 20
103.296
 21
103.16
  0
LINE
  8
0
 10
102.389
 11
102.477
 20
103.16
 21
103.031
  0
LINE
  8
0
 10
102.477
 11
102.574
 20
103.031
 21
102.906
  0
LINE
  8
0
 10
102.574
 11
102.678
 20
102.906
 21
102.789
  0
LINE
  8
0
 10
102.678
 11
102.789
 20
102.789
 21
102.678
  0
LINE
  8
0
 10
102.789
 11
102.906
 20
102.678
 21
102.574
  0
LINE
  8
0
 10
102.906
 11
103.031
 20
102.574
 21
102.477
  0
LINE
  8
0
 10
103.031
 11
103.16
 20
102.477
 21
102.389
  0
LINE
  8
0
 10
103.16
 11
103.296
 20
102.389
 21
102.309
  0
LINE
  8
0
 10
103.296
 11
103.436
 20
102.309
 21
102.238
  0
LINE
  8
0
 10
103.436
 11
103.58
 20
102.238
 21
102.176
  0
LINE
  8
0
 10
103.58
 11
103.727
 20
102.176
 21
102.122
  0
LINE
  8
0
 10
103.727
 11
103.878
 20
102.122
 21
102.079
  0
LINE
  8
0
 10
103.878
 11
104.032
 20
102.079
 21
102.044
  0
LINE
  8
0
 10
104.032
 11
104.187
 20
102.044
 21
102.02
  0
LINE
  8
0
 10
104.187
 11
104.343
 20
102.02
 21
102.005
  0
LINE
  8
0
 10
104.343
 11
104.657
 20
102.005
 21
101.995
  0
LINE
  8
0
 10
104.657
 11
104.813
 20
101.995
 21
101.98
  0
LINE
  8
0
 10
104.813
 11
104.968
 20
101.98
 21
101.956
  0
LINE
  8
0
 10
104.968
 11
105.122
 20
101.956
 21
101.921
  0
LINE
  8
0
 10
105.122
 11
105.273
 20
101.921
 21
101.878
  0
LINE
  8
0
 10
105.273
 11
105.42
 20
101.878
 21
101.824
  0
LINE
  8
0
 10
105.42
 11
105.564
 20
101.824
 21
101.762
  0
LINE
  8
0
 10
105.564
 11
105.704
 20
101.762
 21
101.691
  0
LINE
  8
0
 10
105.704
 11
105.84
 20
101.691
 21
101.611
  0
LINE
  8
0
 10
105.84
 11
105.969
 20
101.611
 21
101.523
  0
LINE
  8
0
 10
105.969
 11
106.094
 20
101.523
 21
101.426
  0
LINE
  8
0
 10
106.094
 11
106.211
 20
101.426
 21
101.322
  0
LINE
  8
0
 10
106.211
 11
106.322
 20
101.322
 21
101.211
  0
LINE
  8
0
 10
106.322
 11
106.426
 20
101.211
 21
101.094
  0
LINE
  8
0
 10
106.426
 11
106.523
 20
101.094
 21
100.969
  0
LINE
  8
0
 10
106.523
 11
106.611
 20
100.969
 21
100.84
  0
LINE
  8
0
 10
106.611
 11
106.691
 20
100.84
 21
100.704
  0
LINE
  8
0
 10
106.691
 11
106.762
 20
100.704
 21
100.564
  0
LINE
  8
0
 10
106.762
 11
106.824
 20
100.564
 21
100.42
  0
LINE
  8
0
 10
106.824
 11
106.878
 20
100.42
 21
100.273
  0
LINE
  8
0
 10
106.878
 11
106.921
 20
100.273
 21
100.122
  0
LINE
  8
0
 10
106.921
 11
106.956
 20
100.122
 21
99.968
  0
LINE
  8
0
 10
106.956
 11
106.98
 20
99.968
 21
99.813
  0
LINE
  8
0
 10
106.98
 11
106.995
 20
99.813
 21
99.657
  0
LINE
  8
0
 10
106.995
 11
107
 20
99.657
 21
99.5
  0
LINE
  8
0
 10
107
 11
107
 20
99.5
 21
-99.5
  0
LINE
  8
0
 10
107
 11
106.995
 20
-99.5
 21
-99.657
  0
LINE
  8
0
 10
106.995
 11
106.98
 20
-99.657
 21
-99.813
  0
LINE
  8
0
 10
106.98
 11
106.956
 20
-99.813
 21
-99.968
  0
LINE
  8
0
 10
106.956
 11
106.921
 20
-99.968
 21
-100.122
  0
LINE
  8
0
 10
106.921
 11
106.878
 20
-100.122
 21
-100.273
  0
LINE
  8
0
 10
106.878
 11
106.824
 20
-100.273
 21
-100.42
  0
LINE
  8
0
 10
106.824
 11
106.762
 20
-100.42
 21
-100.564
  0
LINE
  8
0
 10
106.762
 11
106.691
 20
-100.564
 21
-100.704
  0
LINE
  8
0
 10
106.691
 11
106.611
 20
-100.704
 21
-100.84
  0
LINE
  8
0
 10
106.611
 11
106.523
 20
-100.84
 21
-100.969
  0
LINE
  8
0
 10
106.523
 11
106.426
 20
-100.969
 21
-101.094
  0
LINE
  8
0
 10
106.426
 11
106.322
 20
-101.094
 21
-101.211
  0
LINE
  8
0
 10
106.322
 11
106.211
 20
-101.211
 21
-101.322
  0
LINE
  8
0
 10
106.211
 11
106.094
 20
-101.322
 21
-101.426
  0
LINE
  8
0
 10
106.094
 11
105.969
 20
-101.426
 21
-101.523
  0
LINE
  8
0
 10
105.969
 11
105.84
 20
-101.523
 21
-101.611
  0
LINE
  8
0
 10
105.84
 11
105.704
 20
-101.611
 21
-101.691
  0
LINE
  8
0
 10
105.704
 11
105.564
 20
-101.691
 21
-101.762
  0
LINE
  8
0
 10
105.564
 11
105.42
 20
-101.762
 21
-101.824
  0
LINE
  8
0
 10
105.42
 11
105.273
 20
-101.824
 21
-101.878
  0
LINE
  8
0
 10
105.273
 11
105.122
 20
-101.878
 21
-101.921
  0
LINE
  8
0
 10
105.122
 11
104.968
 20
-101.921
 21
-101.956
  0
LINE
  8
0
 10
104.968
 11
104.813
 20
-101.956
 21
-101.98
  0
LINE
  8
0
 10
104.813
 11
104.657
 20
-101.98
 21
-101.995
  0
LINE
  8
0
 10
104.657
 11
104.343
 20
-101.995
 21
-102.005
  0
LINE
  8
0
 10
104.343
 11
104.187
 20
-102.005
 21
-102.02
  0
LINE
  8
0
 10
104.187
 11
104.032
 20
-102.02
 21
-102.044
  0
LINE
  8
0
 10
104.032
 11
103.878
 20
-102.044
 21
-102.079
  0
LINE
  8
0
 10
103.878
 11
103.727
 20
-102.079
 21
-102.122
  0
LINE
  8
0
 10
103.727
 11
103.58
 20
-102.122
 21
-102.176
  0
LINE
  8
0
 10
103.58
 11
103.436
 20
-102.176
 21
-102.238
  0
LINE
  8
0
 10
103.436
 11
103.296
 20
-102.238
 21
-102.309
  0
LINE
  8
0
 10
103.296
 11
103.16
 20
-102.309
 21
-102.389
  0
LINE
  8
0
 10
103.16
 11
103.031
 20
-102.389
 21
-102.477
  0
LINE
  8
0
 10
103.031
 11
102.906
 20
-102.477
 21
-102.574
  0
LINE
  8
0
 10
102.906
 11
102.789
 20
-102.574
 21
-102.678
  0
LINE
  8
0
 10
102.789
 11
102.678
 20
-102.678
 21
-102.789
  0
LINE
  8
0
 10
102.678
 11
102.574
 20
-102.789
 21
-102.906
  0
LINE
  8
0
 10
102.574
 11
102.477
 20
-102.906
 21
-103.031
  0
LINE
  8
0
 10
102.477
 11
102.389
 20
-103.031
 21
-103.16
  0
LINE
  8
0
 10
102.389
 11
102.309
 20
-103.16
 21
-103.296
  0
LINE
  8
0
 10
102.309
 11
102.238
 20
-103.296
 21
-103.436
  0
LINE
  8
0
 10
102.238
 11
102.176
 20
-103.436
 21
-103.58
  0
LINE
  8
0
 10
102.176
 11
102.122
 20
-103.58
 21
-103.727
  0
LINE
  8
0
 10
102.122
 11
102.079
 20
-103.727
 21
-103.878
  0
LINE
  8
0
 10
102.079
 11
102.044
 20
-103.878
 21
-104.032
  0
LINE
  8
0
 10
102.044
 11
102.02
 20
-104.032
 21
-104.187
  0
LINE
  8
0
 10
102.02
 11
102.005
 20
-104.187
 21
-104.343
  0
LINE
  8
0
 10
102.005
 11
101.995
 20
-104.343
 21
-104.657
  0
LINE
  8
0
 10
101.995
 11
101.98
 20
-104.657
 21
-104.813
  0
LINE
  8
0
 10
101.98
 11
101.956
 20
-104.813
 21
-104.968
  0
LINE
  8
0
 10
101.956
 11
101.921
 20
-104.968
 21
-105.122
  0
LINE
  8
0
 10
101.921
 11
101.878
 20
-105.122
 21
-105.273
  0
LINE
  8
0
 10
101.878
 11
101.824
 20
-105.273
 21
-105.42
  0
LINE
  8
0
 10
101.824
 11
101.762
 20
-105.42
 21
-105.564
  0
LINE
  8
0
 10
101.762
 11
101.691
 20
-105.564
 21
-105.704
  0
LINE
  8
0
 10
101.691
 11
101.611
 20
-105.704
 21
-105.84
  0
LINE
  8
0
 10
101.611
 11
101.523
 20
-105.84
 21
-105.969
  0
LINE
  8
0
 10
101.523
 11
101.426
 20
-105.969
 21
-106.094
  0
LINE
  8
0
 10
101.426
 11
101.322
 20
-106.094
 21
-106.211
  0
LINE
  8
0
 10
101.322
 11
101.211
 20
-106.211
 21
-106.322
  0
LINE
  8
0
 10
101.211
 11
101.094
 20
-106.322
 21
-106.426
  0
LINE
  8
0
 10
101.094
 11
100.969
 20
-106.426
 21
-106.523
  0
LINE
  8
0
 10
100.969
 11
100.84
 20
-106.523
 21
-106.611
  0
LINE
  8
0
 10
100.84
 11
100.704
 20
-106.611
 21
-106.691
  0
LINE
  8
0
 10
100.704
 11
100.564
 20
-106.691
 21
-106.762
  0
LINE
  8
0
 10
100.564
 11
100.42
 20
-106.762
 21
-106.824
  0
LINE
  8
0
 10
100.42
 11
100.273
 20
-106.824
 21
-106.878
  0
LINE
  8
0
 10
100.273
 11
100.122
 20
-106.878
 21
-106.921
  0
LINE
  8
0
 10
100.122
 11
99.968
 20
-106.921
 21
-106.956
  0
LINE
  8
0
 10
99.968
 11
99.813
 20
-106.956
 21
-106.98
  0
LINE
  8
0
 10
99.813
 11
99.657
 20
-106.98
 21
-106.995
  0
LINE
  8
0
 10
99.657
 11
99.5
 20
-106.995
 21
-107
  0
LINE
  8
0
 10
99.5
 11
40
 20
-107
 21
-107
  0
LINE
  8
0
 10
40
 11
39.686
 20
-107
 21
-106.99
  0
LINE
  8
0
 10
39.686
 11
39.373
 20
-106.99
 21
-106.961
  0
LINE
  8
0
 10
39.373
 11
39.063
 20
-106.961
 21
-106.911
  0
LINE
  8
0
 10
39.063
 11
38.757
 20
-106.911
 21
-106.843
  0
LINE
  8
0
 10
38.757
 11
38.455
 20
-106.843
 21
-106.755
  0
LINE
  8
0
 10
38.455
 11
38.159
 20
-106.755
 21
-106.649
  0
LINE
  8
0
 10
38.159
 11
37.871
 20
-106.649
 21
-106.524
  0
LINE
  8
0
 10
37.871
 11
37.591
 20
-106.524
 21
-106.382
  0
LINE
  8
0
 10
37.591
 11
37.321
 20
-106.382
 21
-106.222
  0
LINE
  8
0
 10
37.321
 11
37.061
 20
-106.222
 21
-106.045
  0
LINE
  8
0
 10
37.061
 11
36.813
 20
-106.045
 21
-105.853
  0
LINE
  8
0
 10
36.813
 11
36.577
 20
-105.853
 21
-105.645
  0
LINE
  8
0
 10
36.577
 11
36.355
 20
-105.645
 21
-105.423
  0
LINE
  8
0
 10
36.355
 11
36.147
 20
-105.423
 21
-105.187
  0
LINE
  8
0
 10
36.147
 11
35.955
 20
-105.187
 21
-104.939
  0
LINE
  8
0
 10
35.955
 11
35.778
 20
-104.939
 21
-104.679
  0
LINE
  8
0
 10
35.778
 11
35.618
 20
-104.679
 21
-104.409
  0
LINE
  8
0
 10
35.618
 11
35.476
 20
-104.409
 21
-104.129
  0
LINE
  8
0
 10
35.476
 11
35.351
 20
-104.129
 21
-103.841
  0
LINE
  8
0
 10
35.351
 11
35.245
 20
-103.841
 21
-103.545
  0
LINE
  8
0
 10
35.245
 11
35.157
 20
-103.545
 21
-103.243
  0
LINE
  8
0
 10
35.157
 11
35.089
 20
-103.243
 21
-102.937
  0
LINE
  8
0
 10
35.089
 11
35.039
 20
-102.937
 21
-102.627
  0
LINE
  8
0
 10
35.039
 11
35.01
 20
-102.627
 21
-102.314
  0
LINE
  8
0
 10
35.01
 11
34.99
 20
-102.314
 21
-101.686
  0
LINE
  8
0
 10
34.99
 11
34.961
 20
-101.686
 21
-101.373
  0
LINE
  8
0
 10
34.961
 11
34.911
 20
-101.373
 21
-101.063
  0
LINE
  8
0
 10
34.911
 11
34.843
 20
-101.063
 21
-100.757
  0
LINE
  8
0
 10
34.843
 11
34.755
 20
-100.757
 21
-100.455
  0
LINE
  8
0
 10
34.755
 11
34.649
 20
-100.455
 21
-100.159
  0
LINE
  8
0
 10
34.649
 11
34.524
 20
-100.159
 21
-99.871
  0
LINE
  8
0
 10
34.524
 11
34.382
 20
-99.871
 21
-99.591
  0
LINE
  8
0
 10
34.382
 11
34.222
 20
-99.591
 21
-99.321
  0
LINE
  8
0
 10
34.222
 11
34.045
 20
-99.321
 21
-99.061
  0
LINE
  8
0
 10
34.045
 11
33.853
 20
-99.061
 21
-98.813
  0
LINE
  8
0
 10
33.853
 11
33.645
 20
-98.813
 21
-98.577
  0
LINE
  8
0
 10
33.645
 11
33.423
 20
-98.577
 21
-98.355
  0
LINE
  8
0
 10
33.423
 11
33.187
 20
-98.355
 21
-98.147
  0
LINE
  8
0
 10
33.187
 11
32.939
 20
-98.147
 21
-97.955
  0
LINE
  8
0
 10
32.939
 11
32.679
 20
-97.955
 21
-97.778
  0
LINE
  8
0
 10
32.679
 11
32.409
 20
-97.778
 21
-97.618
  0
LINE
  8
0
 10
32.409
 11
32.129
 20
-97.618
 21
-97.476
  0
LINE
  8
0
 10
32.129
 11
31.841
 20
-97.476
 21
-97.351
  0
LINE
  8
0
 10
31.841
 11
31.545
 20
-97.351
 21
-97.245
  0
LINE
  8
0
 10
31.545
 11
31.243
 20
-97.245
 21
-97.157
  0
LINE
  8
0
 10
31.243
 11
30.937
 20
-97.157
 21
-97.089
  0
LINE
  8
0
 10
30.937
 11
30.627
 20
-97.089
 21
-97.039
  0
LINE
  8
0
 10
30.627
 11
30.314
 20
-97.039
 21
-97.01
  0
LINE
  8
0
 10
30.314
 11
30
 20
-97.01
 21
-97
  0
LINE
  8
0
 10
30
 11
-30
 20
-97
 21
-97
  0
LINE
  8
0
 10
-30
 11
-30.314
 20
-97
 21
-97.01
  0
LINE
  8
0
 10
-30.314
 11
-30.627
 20
-97.01
 21
-97.039
  0
LINE
  8
0
 10
-30.627
 11
-30.937
 20
-97.039
 21
-97.089
  0
LINE
  8
0
 10
-30.937
 11
-31.243
 20
-97.089
 21
-97.157
  0
LINE
  8
0
 10
-31.243
 11
-31.545
 20
-97.157
 21
-97.245
  0
LINE
  8
0
 10
-31.545
 11
-31.841
 20
-97.245
 21
-97.351
  0
LINE
  8
0
 10
-31.841
 11
-32.129
 20
-97.351
 21
-97.476
  0
LINE
  8
0
 10
-32.129
 11
-32.409
 20
-97.476
 21
-97.618
  0
LINE
  8
0
 10
-32.409
 11
-32.679
 20
-97.618
 21
-97.778
  0
LINE
  8
0
 10
-32.679
 11
-32.939
 20
-97.778
 21
-97.955
  0
LINE
  8
0
 10
-32.939
 11
-33.187
 20
-97.955
 21
-98.147
  0
LINE
  8
0
 10
-33.187
 11
-33.423
 20
-98.147
 21
-98.355
  0
LINE
  8
0
 10
-33.423
 11
-33.645
 20
-98.355
 21
-98.577
  0
LINE
  8
0
 10
-33.645
 11
-33.853
 20
-98.577
 21
-98.813
  0
LINE
  8
0
 10
-33.853
 11
-34.045
 20
-98.813
 21
-99.061
  0
LINE
  8
0
 10
-34.045
 11
-34.222
 20
-99.061
 21
-99.321
  0
LINE
  8
0
 10
-34.222
 11
-34.382
 20
-99.321
 21
-99.591
  0
LINE
  8
0
 10
-34.382
 11
-34.524
 20
-99.591
 21
-99.871
  0
LINE
  8
0
 10
-34.524
 11
-34.649
 20
-99.871
 21
-100.159
  0
LINE
  8
0
 10
-34.649
 11
-34.755
 20
-100.159
 21
-100.455
  0
LINE
  8
0
 10
-34.755
 11
-34.843
 20
-100.455
 21
-100.757
  0
LINE
  8
0
 10
-34.843
 11
-34.911
 20
-100.757
 21
-101.063
  0
LINE
  8
0
 10
-34.911
 11
-34.961
 20
-101.063
 21
-101.373
  0
LINE
  8
0
 10
-34.961
 11
-34.99
 20
-101.373
 21
-101.686
  0
LINE
  8
0
 10
-34.99
 11
-35.01
 20
-101.686
 21
-102.314
  0
LINE
  8
0
 10
-35.01
 11
-35.039
 20
-102.314
 21
-102.627
  0
LINE
  8
0
 10
-35.039
 11
-35.089
 20
-102.627
 21
-102.937
  0
LINE
  8
0
 10
-35.089
 11
-35.157
 20
-102.937
 21
-103.243
  0
LINE
  8
0
 10
-35.157
 11
-35.245
 20
-103.243
 21
-103.545
  0
LINE
  8
0
 10
-35.245
 11
-35.351
 20
-103.545
 21
-103.841
  0
LINE
  8
0
 10
-35.351
 11
-35.476
 20
-103.841
 21
-104.129
  0
LINE
  8
0
 10
-35.476
 11
-35.618
 20
-104.129
 21
-104.409
  0
LINE
  8
0
 10
-35.618
 11
-35.778
 20
-104.409
 21
-104.679
  0
LINE
  8
0
 10
-35.778
 11
-35.955
 20
-104.679
 21
-104.939
  0
LINE
  8
0
 10
-35.955
 11
-36.147
 20
-104.939
 21
-105.187
  0
LINE
  8
0
 10
-36.147
 11
-36.355
 20
-105.187
 21
-105.423
  0
LINE
  8
0
 10
-36.355
 11
-36.577
 20
-105.423
 21
-105.645
  0
LINE
  8
0
 10
-36.577
 11
-36.813
 20
-105.645
 21
-105.853
  0
LINE
  8
0
 10
-36.813
 11
-37.061
 20
-105.853
 21
-106.045
  0
LINE
  8
0
 10
-37.061
 11
-37.321
 20
-106.045
 21
-106.222
  0
LINE
  8
0
 10
-37.321
 11
-37.591
 20
-106.222
 21
-106.382
  0
LINE
  8
0
 10
-37.591
 11
-37.871
 20
-106.382
 21
-106.524
  0
LINE
  8
0
 10
-37.871
 11
-38.159
 20
-106.524
 21
-106.649
  0
LINE
  8
0
 10
-38.159
 11
-38.455
 20
-106.649
 21
-106.755
  0
LINE
  8
0
 10
-38.455
 11
-38.757
 20
-106.755
 21
-106.843
  0
LINE
  8
0
 10
-38.757
 11
-39.063
 20
-106.843
 21
-106.911
  0
LINE
  8
0
 10
-39.063
 11
-39.373
 20
-106.911
 21
-106.961
  0
LINE
  8
0
 10
-39.373
 11
-39.686
 20
-106.961
 21
-106.99
  0
LINE
  8
0
 10
-39.686
 11
-40
 20
-106.99
 21
-107
  0
LINE
  8
0
 10
-40
 11
-99.5
 20
-107
 21
-107
  0
LINE
  8
0
 10
-99.5
 11
-99.657
 20
-107
 21
-106.995
  0
LINE
  8
0
 10
-99.657
 11
-99.813
 20
-106.995
 21
-106.98
  0
LINE
  8
0
 10
-99.813
 11
-99.968
 20
-106.98
 21
-106.956
  0
LINE
  8
0
 10
-99.968
 11
-100.122
 20
-106.956
 21
-106.921
  0
LINE
  8
0
 10
-100.122
 11
-100.273
 20
-106.921
 21
-106.878
  0
LINE
  8
0
 10
-100.273
 11
-100.42
 20
-106.878
 21
-106.824
  0
LINE
  8
0
 10
-100.42
 11
-100.564
 20
-106.824
 21
-106.762
  0
LINE
  8
0
 10
-100.564
 11
-100.704
 20
-106.762
 21
-106.691
  0
LINE
  8
0
 10
-100.704
 11
-100.84
 20
-106.691
 21
-106.611
  0
LINE
  8
0
 10
-100.84
 11
-100.969
 20
-106.611
 21
-106.523
  0
LINE
  8
0
 10
-100.969
 11
-101.094
 20
-106.523
 21
-106.426
  0
LINE
  8
0
 10
-101.094
 11
-101.211
 20
-106.426
 21
-106.322
  0
LINE
  8
0
 10
-101.211
 11
-101.322
 20
-106.322
 21
-106.211
  0
LINE
  8
0
 10
-101.322
 11
-101.426
 20
-106.211
 21
-106.094
  0
LINE
  8
0
 10
-101.426
 11
-101.523
 20
-106.094
 21
-105.969
  0
LINE
  8
0
 10
-101.523
 11
-101.611
 20
-105.969
 21
-105.84
  0
LINE
  8
0
 10
-101.611
 11
-101.691
 20
-105.84
 21
-105.704
  0
LINE
  8
0
 10
-101.691
 11
-101.762
 20
-105.704
 21
-105.564
  0
LINE
  8
0
 10
-101.762
 11
-101.824
 20
-105.564
 21
-105.42
  0
LINE
  8
0
 10
-101.824
 11
-101.878
 20
-105.42
 21
-105.273
  0
LINE
  8
0
 10
-101.878
 11
-101.921
 20
-105.273
 21
-105.122
  0
LINE
  8
0
 10
-101.921
 11
-101.956
 20
-105.122
 21
-104.968
  0
LINE
  8
0
 10
-101.956
 11
-101.98
 20
-104.968
 21
-104.813
  0
LINE
  8
0
 10
-101.98
 11
-101.995
 20
-104.813
 21
-104.657
  0
LINE
  8
0
 10
-101.995
 11
-102.005
 20
-104.657
 21
-104.343
  0
LINE
  8
0
 10
-102.005
 11
-102.02
 20
-104.343
 21
-104.187
  0
LINE
  8
0
 10
-102.02
 11
-102.044
 20
-104.187
 21
-104.032
  0
LINE
  8
0
 10
-102.044
 11
-102.079
 20
-104.032
 21
-103.878
  0
LINE
  8
0
 10
-102.079
 11
-102.122
 20
-103.878
 21
-103.727
  0
LINE
  8
0
 10
-102.122
 11
-102.176
 20
-103.727
 21
-103.58
  0
LINE
  8
0
 10
-102.176
 11
-102.238
 20
-103.58
 21
-103.436
  0
LINE
  8
0
 10
-102.238
 11
-102.309
 20
-103.436
 21
-103.296
  0
LINE
  8
0
 10
-102.309
 11
-102.389
 20
-103.296
 21
-103.16
  0
LINE
  8
0
 10
-102.389
 11
-102.477
 20
-103.16
 21
-103.031
  0
LINE
  8
0
 10
-102.477
 11
-102.574
 20
-103.031
 21
-102.906
  0
LINE
  8
0
 10
-102.574
 11
-102.678
 20
-102.906
 21
-102.789
  0
LINE
  8
0
 10
-102.678
 11
-102.789
 20
-102.789
 21
-102.678
  0
LINE
  8
0
 10
-102.789
 11
-102.906
 20
-102.678
 21
-102.574
  0
LINE
  8
0
 10
-102.906
 11
-103.031
 20
-102.574
 21
-102.477
  0
LINE
  8
0
 10
-103.031
 11
-103.16
 20
-102.477
 21
-102.389
  0
LINE
  8
0
 10
-103.16
 11
-103.296
 20
-102.389
 21
-102.309
  0
LINE
  8
0
 10
-103.296
 11
-103.436
 20
-102.309
 21
-102.238
  0
LINE
  8
0
 10
-103.436
 11
-103.58
 20
-102.238
 21
-102.176
  0
LINE
  8
0
 10
-103.58
 11
-103.727
 20
-102.176
 21
-102.122
  0
LINE
  8
0
 10
-103.727
 11
-103.878
 20
-102.122
 21
-102.079
  0
LINE
  8
0
 10
-103.878
 11
-104.032
 20
-102.079
 21
-102.044
  0
LINE
  8
0
 10
-104.032
 11
-104.187
 20
-102.044
 21
-102.02
  0
LINE
  8
0
 10
-104.187
 11
-104.343
 20
-102.02
 21
-102.005
  0
LINE
  8
0
 10
-104.343
 11
-104.657
 20
-102.005
 21
-101.995
  0
LINE
  8
0
 10
-104.657
 11
-104.813
 20
-101.995
 21
-101.98
  0
LINE
  8
0
 10
-104.813
 11
-104.968
 20
-101.98
 21
-101.956
  0
LINE
  8
0
 10
-104.968
 11
-105.122
 20
-101.956
 21
-101.921
  0
LINE
  8
0
 10
-105.122
 11
-105.273
 20
-101.921
 21
-101.878
  0
LINE
  8
0
 10
-105.273
 11
-105.42
 20
-101.878
 21
-101.824
  0
LINE
  8
0
 10
-105.42
 11
-105.564
 20
-101.824
 21
-101.762
  0
LINE
  8
0
 10
-105.564
 11
-105.704
 20
-101.762
 21
-101.691
  0
LINE
  8
0
 10
-105.704
 11
-105.84
 20
-101.691
 21
-101.611
  0
LINE
  8
0
 10
-105.84
 11
-105.969
 20
-101.611
 21
-101.523
  0
LINE
  8
0
 10
-105.969
 11
-106.094
 20
-101.523
 21
-101.426
  0
LINE
  8
0
 10
-106.094
 11
-106.211
 20
-101.426
 21
-101.322
  0
LINE
  8
0
 10
-106.211
 11
-106.322
 20
-101.322
 21
-101.211
  0
LINE
  8
0
 10
-106.322
 11
-106.426
 20
-101.211
 21
-101.094
  0
LINE
  8
0
 10
-106.426
 11
-106.523
 20
-101.094
 21
-100.969
  0
LINE
  8
0
 10
-106.523
 11
-106.611
 20
-100.969
 21
-100.84
  0
LINE
  8
0
 10
-106.611
 11
-106.691
 20
-100.84
 21
-100.704
  0
LINE
  8
0
 10
-106.691
 11
-106.762
 20
-100.704
 21
-100.564
  0
LINE
  8
0
 10
-106.762
 11
-106.824
 20
-100.564
 21
-100.42
  0
LINE
  8
0
 10
-106.824
 11
-106.878
 20
-100.42
 21
-100.273
  0
LINE
  8
0
 10
-106.878
 11
-106.921
 20
-100.273
 21
-100.122
  0
LINE
  8
0
 10
-106.921
 11
-106.956
 20
-100.122
 21
-99.968
  0
LINE
  8
0
 10
-106.956
 11
-106.98
 20
-99.968
 21
-99.813
  0
LINE
  8
0
 10
-106.98
 11
-106.995
 20
-99.813
 21
-99.657
  0
LINE
  8
0
 10
-106.995
 11
-107
 20
-99.657
 21
-99.5
  0
ENDSEC
  0
SECTION
  2
OBJECTS
  0
DICTIONARY
  0
ENDSEC
  0
EOF
